<svg width="1200" height="148" viewBox="0 0 1200 148" fill="none" xmlns="http://www.w3.org/2000/svg">
<g clip-path="url(#clip0_3931_21451)">
<path d="M1210 126.994C1210 127.584 1210 128.174 1210 128.752C1210 129.33 1209.91 130.262 1209.83 131.005C1209.83 131.158 1209.83 131.312 1209.83 131.453C1207.93 149.928 1194.89 165.064 1181.63 177.392C1153.33 203.688 1120.81 224.923 1087.08 243.716C1082.79 246.076 1078.49 248.435 1074.17 250.795H650.963C649.921 248.695 651.638 230.185 583.777 111.587C578.119 101.434 575.579 89.8495 576.471 78.2711C577.193 68.0665 581.042 58.3219 586.429 49.6981C596.814 33.0993 613.107 19.8274 631.911 13.9523C640.954 11.0706 650.531 10.2402 659.938 11.5221C671.696 13.2091 682.164 18.8836 693.342 22.5408C703.17 25.7614 715.39 27.4366 724.472 21.243C733.814 14.8725 734.027 3.12243 733.175 -6.99964C732.914 -10.0669 732.559 -13.1224 732.239 -16.1897C731.92 -19.257 731.612 -22.2771 731.481 -25.3326C731.265 -29.1016 731.415 -32.8827 731.931 -36.6226C733.112 -44.2132 736.5 -51.2925 741.677 -56.9847C741.89 -57.2325 742.115 -57.4802 742.34 -57.7162C743.062 -58.5066 743.832 -59.2734 744.637 -60.0049C759.758 -73.9374 781.699 -75.5655 800.503 -68.8056C804.901 -67.1764 809.149 -65.1671 813.196 -62.8008L813.492 -62.6356C819.247 -59.3324 824.741 -55.5573 830.46 -52.1243C841.511 -45.5035 853.874 -41.3572 866.694 -39.9731C891.288 -37.0355 917.03 -39.4186 941.517 -42.3325C948.231 -43.1229 954.897 -44.0549 961.564 -45.1167H961.86C981.106 -48.2277 1000.16 -52.4025 1018.95 -57.6218C1063.11 -69.8202 1109.49 -86.1594 1155.5 -73.3122C1173.26 -68.3455 1195.94 -57.6454 1203.52 -39.5484C1207.61 -29.8038 1205.81 -19.9059 1201.4 -10.7394C1200.68 -9.21753 1199.88 -7.71928 1199.04 -6.24461C1198.61 -5.51318 1198.17 -4.78175 1197.72 -4.06212C1194.73 0.629433 1191.4 5.09325 1187.75 9.2924C1186.2 11.0974 1184.65 12.8316 1183.16 14.4596C1175.46 22.8593 1166.92 30.6691 1159.01 38.9862C1155.35 42.7821 1151.88 46.7589 1148.62 50.9014C1145.84 54.4215 1143.31 58.1266 1141.05 61.9909C1138.27 66.7806 1135.56 72.0658 1135.38 77.7285C1135.2 80.0457 1135.78 82.3583 1137.05 84.3114C1137.04 84.3348 1137.04 84.3587 1137.05 84.3821C1139.14 87.2961 1142.97 88.5466 1147.53 88.8415C1157.5 89.4786 1167.48 88.523 1177.4 89.9623C1187.54 91.4369 1195.96 95.9435 1201.7 102.762C1201.96 103.069 1202.22 103.388 1202.47 103.718C1207.29 110.06 1209.92 117.788 1209.95 125.743C1210 126.168 1210 126.581 1210 126.994Z" fill="#F9FCFE"/>
<path d="M741.677 -56.973V250.771H650.963C649.921 248.671 651.638 230.161 583.777 111.563C578.119 101.41 575.579 89.8259 576.471 78.2475C577.193 68.0428 581.042 58.2983 586.429 49.6744C596.814 33.0757 613.107 19.8037 631.911 13.9287C640.954 11.0469 650.531 10.2166 659.938 11.4984C671.696 13.1854 682.164 18.8599 693.342 22.5171C703.17 25.7377 715.39 27.413 724.472 21.2194C733.814 14.8489 734.027 3.09875 733.175 -7.02332C732.914 -10.0906 732.559 -13.1461 732.239 -16.2134C732.239 -17.6055 732.085 -18.9858 731.967 -20.3424C731.825 -22.0177 731.659 -23.6811 731.481 -25.3563C731.265 -29.1253 731.415 -32.9063 731.931 -36.6463C733.119 -44.2244 736.506 -51.2905 741.677 -56.973Z" fill="#C4E4D0"/>
<path d="M961.564 -45.0578V250.771H847.488V-21.1919L813.149 -22.1711V-62.7891L813.445 -62.624C819.2 -59.3207 824.694 -55.5456 830.413 -52.1126C841.463 -45.4918 853.827 -41.3455 866.647 -39.9614C891.24 -37.0239 916.983 -39.4069 941.47 -42.3208C948.231 -43.0641 954.898 -43.996 961.564 -45.0578Z" fill="#CCE7D4"/>
<path d="M953.76 4.68298H752.724V235.627H953.76V4.68298Z" fill="#E7F3E7"/>
<path d="M825.155 77.9788C825.153 79.1571 824.823 80.3117 824.202 81.3146C823.581 82.3176 822.694 83.1297 821.638 83.6611C820.583 84.1924 819.4 84.4223 818.221 84.3251C817.043 84.2279 815.914 83.8076 814.96 83.1106C813.112 84.4694 810.875 85.2014 808.578 85.1987C807.116 85.2034 805.668 84.9061 804.327 84.3257C803.276 85.4018 801.974 86.202 800.538 86.6549C799.101 87.1078 797.574 87.1994 796.093 86.9214C794.612 86.6433 793.223 86.0044 792.051 85.0616C790.878 84.1187 789.958 82.9013 789.372 81.518C789.37 81.4787 789.37 81.4393 789.372 81.4V81.5062C788.692 83.024 787.586 84.3132 786.186 85.2176C784.787 86.1221 783.154 86.6031 781.486 86.6026C780.21 86.607 778.951 86.3205 777.803 85.765C776.614 86.7417 775.216 87.4348 773.717 87.7916C772.217 88.1484 770.656 88.1593 769.152 87.8236C767.648 87.4879 766.24 86.8145 765.037 85.8546C763.834 84.8947 762.866 83.6737 762.209 82.2848C761.891 82.3327 761.571 82.3564 761.25 82.3556C760.211 82.354 759.188 82.1105 758.261 81.6446C757.335 81.1786 756.53 80.5031 755.912 79.6721C755.294 78.8411 754.88 77.8775 754.703 76.8585C754.525 75.8395 754.59 74.7932 754.891 73.8034C755.192 72.8136 755.721 71.9077 756.436 71.158C757.151 70.4083 758.032 69.8357 759.009 69.486C759.986 69.1363 761.032 69.0191 762.062 69.1438C763.093 69.2686 764.079 69.6318 764.944 70.2044C766.285 69.1156 767.883 68.3848 769.586 68.0809C769.579 68.026 769.579 67.9706 769.586 67.9157C769.586 66.3513 770.209 64.8509 771.32 63.7447C772.43 62.6385 773.936 62.0171 775.506 62.0171C775.612 62.0054 775.72 62.0054 775.826 62.0171C776.607 58.1252 778.769 54.6438 781.915 52.2098C785.062 49.7759 788.983 48.5522 792.961 48.7628C796.939 48.9733 800.708 50.604 803.578 53.3564C806.448 56.1088 808.227 59.7989 808.59 63.7513H808.661C811.024 63.7507 813.322 64.5241 815.2 65.9523C817.079 67.3806 818.434 69.3845 819.057 71.6554C820.694 71.7281 822.24 72.4252 823.375 73.6023C824.511 74.7794 825.148 76.3464 825.155 77.9788Z" fill="white"/>
<path d="M953.761 4.68107V30.1396C952.083 31.7074 949.868 32.5769 947.568 32.5699C945.772 32.5685 944.017 32.0411 942.52 31.053C941.023 30.065 939.85 28.6602 939.149 27.0133C939.147 26.974 939.147 26.9347 939.149 26.8954L939.09 27.0015C938.41 28.5194 937.304 29.8085 935.904 30.713C934.504 31.6175 932.872 32.0985 931.204 32.098C929.928 32.1023 928.668 31.8158 927.521 31.2604C926.328 32.2351 924.926 32.9252 923.424 33.2777C921.922 33.6303 920.359 33.636 918.854 33.2945C917.349 32.9531 915.943 32.2734 914.742 31.3074C913.542 30.3414 912.578 29.1148 911.926 27.7212C911.609 27.7691 911.288 27.7927 910.967 27.792C909.929 27.7904 908.906 27.5469 907.979 27.081C907.052 26.615 906.248 25.9395 905.63 25.1085C905.012 24.2774 904.598 23.3139 904.421 22.2949C904.243 21.2759 904.308 20.2296 904.608 19.2398C904.909 18.25 905.439 17.344 906.154 16.5944C906.869 15.8447 907.75 15.2721 908.727 14.9224C909.704 14.5727 910.749 14.4555 911.78 14.5802C912.81 14.7049 913.797 15.0681 914.662 15.6407C916.003 14.552 917.6 13.8212 919.303 13.5172C919.297 13.4624 919.297 13.4069 919.303 13.3521C919.303 11.7877 919.927 10.2873 921.038 9.1811C922.148 8.07489 923.654 7.45343 925.224 7.45343C925.33 7.44174 925.437 7.44174 925.544 7.45343C925.733 6.49814 926.011 5.56223 926.372 4.65747L953.761 4.68107Z" fill="white"/>
<path d="M866.386 56.4838C866.383 57.5643 865.95 58.5996 865.182 59.3625C864.414 60.1254 863.373 60.5539 862.289 60.5539C861.412 60.554 860.558 60.2773 859.85 59.7635C858.667 60.6342 857.235 61.1017 855.765 61.0966C854.828 61.102 853.9 60.9132 853.041 60.5421C852.368 61.2285 851.535 61.7387 850.617 62.0273C849.698 62.316 848.722 62.3742 847.776 62.1968C846.829 62.0194 845.941 61.6119 845.191 61.0104C844.44 60.4089 843.85 59.6321 843.474 58.7489V58.6781V58.7371C843.04 59.7116 842.331 60.5393 841.433 61.1195C840.535 61.6997 839.488 62.0074 838.417 62.005C837.598 62.009 836.788 61.8274 836.049 61.4741C835.286 62.0953 834.391 62.5355 833.432 62.7615C832.473 62.9875 831.475 62.9933 830.514 62.7786C829.552 62.5638 828.652 62.134 827.882 61.5217C827.112 60.9095 826.491 60.1307 826.067 59.2444C825.862 59.2565 825.657 59.2565 825.452 59.2444C824.787 59.2425 824.132 59.0859 823.539 58.7871C822.946 58.4882 822.432 58.0553 822.036 57.5231C821.641 56.9908 821.376 56.3738 821.263 55.7214C821.15 55.0691 821.191 54.3993 821.384 53.7657C821.577 53.1321 821.915 52.5521 822.373 52.0721C822.831 51.5922 823.395 51.2254 824.02 51.0012C824.645 50.7771 825.315 50.7016 825.974 50.781C826.634 50.8603 827.266 51.0922 827.82 51.4582C828.676 50.7575 829.7 50.29 830.792 50.1015C830.786 50.0663 830.786 50.0305 830.792 49.9953C830.792 48.9867 831.193 48.0193 831.908 47.305C832.623 46.5907 833.592 46.1879 834.605 46.1848H834.818C835.378 43.7466 836.783 41.5835 838.787 40.077C840.791 38.5704 843.264 37.8169 845.771 37.9495C848.278 38.0821 850.658 39.0921 852.49 40.8016C854.323 42.5111 855.491 44.8102 855.788 47.2937C857.302 47.2939 858.774 47.7891 859.979 48.7033C861.183 49.6176 862.053 50.9004 862.455 52.3548C863.521 52.3977 864.528 52.8531 865.262 53.6241C865.996 54.3952 866.399 55.4211 866.386 56.4838Z" fill="white"/>
<path d="M953.76 36.7473V237.207H937.029V237.584L790.911 237.207H752.724V102.765H800.052V145.778H837.434V56.9207H881.98V126.289H918.51V36.7473H953.76Z" fill="#CCE7D4"/>
<path d="M750.983 2.9118V237.406H955.596V2.9118H750.983ZM754.536 6.45099H857.327V233.867H754.536V6.45099ZM951.996 233.867H861.827V6.45099H951.996V233.867Z" fill="#D8ECDA"/>
<path d="M939.599 249.828C939.393 249.814 939.199 249.726 939.054 249.581C938.908 249.436 938.82 249.242 938.806 249.037L902.075 4.9987C902.015 4.75496 902.05 4.49762 902.173 4.27866C902.296 4.0597 902.498 3.89542 902.738 3.81897C902.854 3.80594 902.971 3.81668 903.082 3.85053C903.194 3.88438 903.297 3.94063 903.386 4.01581C903.475 4.09098 903.547 4.18349 903.599 4.28761C903.65 4.39173 903.68 4.50526 903.685 4.62119L940.392 248.625C940.454 248.865 940.422 249.12 940.303 249.338C940.185 249.557 939.989 249.723 939.753 249.804H939.564L939.599 249.828Z" fill="#273339"/>
<path d="M903.318 250.382C903.109 250.369 902.912 250.28 902.764 250.132C902.616 249.984 902.527 249.788 902.513 249.58L866.706 4.99887C866.643 4.75501 866.676 4.49636 866.8 4.27667C866.923 4.05698 867.127 3.89313 867.369 3.81914C867.484 3.8078 867.601 3.82018 867.712 3.85553C867.823 3.89089 867.925 3.94847 868.013 4.02473C868.101 4.10098 868.172 4.1943 868.222 4.29894C868.272 4.40358 868.3 4.51732 868.304 4.63316L904.111 249.203C904.175 249.445 904.143 249.702 904.021 249.922C903.9 250.141 903.699 250.306 903.46 250.382H903.318Z" fill="#273339"/>
<path d="M904.431 16.2294H869.547C869.32 16.186 869.115 16.0651 868.968 15.8875C868.82 15.7098 868.74 15.4866 868.74 15.2561C868.74 15.0256 868.82 14.8024 868.968 14.6247C869.115 14.4471 869.32 14.3262 869.547 14.2828H904.431C904.658 14.3262 904.863 14.4471 905.01 14.6247C905.157 14.8024 905.238 15.0256 905.238 15.2561C905.238 15.4866 905.157 15.7098 905.01 15.8875C904.863 16.0651 904.658 16.186 904.431 16.2294Z" fill="#273339"/>
<path d="M908.043 40.8862H873.135C873.019 40.8758 872.905 40.8425 872.801 40.7882C872.697 40.7339 872.605 40.6596 872.53 40.5697C872.456 40.4797 872.399 40.3759 872.365 40.2642C872.331 40.1525 872.319 40.0351 872.33 39.9188C872.307 39.6827 872.379 39.447 872.53 39.2635C872.681 39.0799 872.898 38.9635 873.135 38.9396H908.019C908.255 38.9664 908.471 39.0837 908.621 39.2665C908.771 39.4493 908.844 39.6833 908.824 39.9188C908.844 40.153 908.771 40.3856 908.62 40.5666C908.47 40.7475 908.254 40.8623 908.019 40.8862H908.043Z" fill="#273339"/>
<path d="M911.654 65.5656H876.77C876.535 65.5388 876.319 65.4216 876.168 65.2388C876.018 65.056 875.945 64.8219 875.965 64.5864C875.945 64.3522 876.019 64.1196 876.169 63.9387C876.32 63.7578 876.536 63.643 876.77 63.6191H911.654C911.889 63.643 912.105 63.7578 912.255 63.9387C912.406 64.1196 912.479 64.3522 912.459 64.5864C912.479 64.8219 912.406 65.056 912.256 65.2388C912.106 65.4216 911.89 65.5388 911.654 65.5656Z" fill="#273339"/>
<path d="M915.265 90.2332H880.37C880.143 90.1898 879.938 90.0689 879.791 89.8913C879.643 89.7136 879.563 89.4904 879.563 89.2599C879.563 89.0294 879.643 88.8062 879.791 88.6285C879.938 88.4509 880.143 88.33 880.37 88.2866H915.254C915.481 88.33 915.686 88.4509 915.833 88.6285C915.981 88.8062 916.061 89.0294 916.061 89.2599C916.061 89.4904 915.981 89.7136 915.833 89.8913C915.686 90.0689 915.481 90.1898 915.254 90.2332H915.265Z" fill="#273339"/>
<path d="M918.877 114.902H883.993C883.766 114.859 883.561 114.738 883.414 114.561C883.266 114.383 883.186 114.16 883.186 113.929C883.186 113.699 883.266 113.475 883.414 113.298C883.561 113.12 883.766 112.999 883.993 112.956H918.877C919.104 112.999 919.309 113.12 919.456 113.298C919.604 113.475 919.684 113.699 919.684 113.929C919.684 114.16 919.604 114.383 919.456 114.561C919.309 114.738 919.104 114.859 918.877 114.902Z" fill="#273339"/>
<path d="M922.489 139.57H887.605C887.378 139.527 887.173 139.406 887.026 139.228C886.878 139.05 886.797 138.827 886.797 138.597C886.797 138.366 886.878 138.143 887.026 137.965C887.173 137.788 887.378 137.667 887.605 137.623H922.477C922.704 137.667 922.909 137.788 923.056 137.965C923.204 138.143 923.284 138.366 923.284 138.597C923.284 138.827 923.204 139.05 923.056 139.228C922.909 139.406 922.704 139.527 922.477 139.57H922.489Z" fill="#273339"/>
<path d="M1209.69 125.332C1209.69 126.335 1209.69 127.337 1209.69 128.328C1209.69 129.083 1209.6 129.838 1209.53 130.582H989.958V-6.62079H1198.73C1195.44 -1.11266 1191.67 4.08763 1187.44 8.91624C1185.89 10.7212 1184.34 12.4554 1182.85 14.0834C1175.15 22.4831 1166.61 30.2929 1158.7 38.61C1155.04 42.4059 1151.57 46.3827 1148.31 50.5253C1145.53 54.0453 1143.01 57.7505 1140.74 61.6147C1137.96 66.4044 1135.25 71.6896 1135.07 77.3523C1134.82 85.2093 1140.11 87.9699 1147.27 88.4653C1157.24 89.1024 1167.22 88.1468 1177.14 89.5861C1196.2 92.3584 1209.23 105.89 1209.69 125.332Z" fill="#E7F3E7"/>
<path d="M1066.43 33.3708C1066.42 34.5491 1066.09 35.7037 1065.47 36.7066C1064.85 37.7096 1063.97 38.5217 1062.91 39.0531C1061.85 39.5844 1060.67 39.8142 1059.49 39.7171C1058.31 39.6199 1057.19 39.1996 1056.23 38.5026C1054.38 39.8614 1052.15 40.5933 1049.85 40.5907C1048.39 40.5954 1046.94 40.2981 1045.6 39.7177C1044.55 40.7938 1043.25 41.594 1041.81 42.0469C1040.37 42.4999 1038.85 42.5914 1037.37 42.3133C1035.88 42.0353 1034.5 41.3964 1033.32 40.4536C1032.15 39.5107 1031.23 38.2933 1030.64 36.91C1030.64 36.8707 1030.64 36.8313 1030.64 36.792L1030.58 36.8982C1029.91 38.416 1028.8 39.7052 1027.4 40.6096C1026 41.5141 1024.37 41.9951 1022.7 41.9946C1021.42 41.999 1020.16 41.7124 1019.02 41.157C1017.82 42.1318 1016.42 42.8218 1014.92 43.1744C1013.42 43.5269 1011.85 43.5327 1010.35 43.1912C1008.84 42.8497 1007.44 42.17 1006.24 41.204C1005.04 40.2381 1004.07 39.0114 1003.42 37.6178C1003.1 37.6657 1002.78 37.6894 1002.46 37.6886C1001.42 37.687 1000.4 37.4436 999.474 36.9776C998.548 36.5117 997.743 35.8362 997.125 35.0051C996.507 34.1741 996.093 33.2105 995.916 32.1915C995.738 31.1725 995.803 30.1263 996.104 29.1364C996.405 28.1466 996.934 27.2407 997.649 26.491C998.364 25.7413 999.245 25.1687 1000.22 24.819C1001.2 24.4693 1002.24 24.3521 1003.28 24.4768C1004.31 24.6016 1005.29 24.9648 1006.16 25.5374C1007.5 24.4486 1009.1 23.7178 1010.8 23.4139C1010.79 23.359 1010.79 23.3036 1010.8 23.2487C1010.8 21.6843 1011.42 20.1839 1012.53 19.0777C1013.64 17.9715 1015.15 17.3501 1016.72 17.3501C1016.83 17.3384 1016.93 17.3384 1017.04 17.3501C1017.84 13.4746 1020.02 10.0153 1023.16 7.60183C1026.31 5.18833 1030.22 3.98104 1034.19 4.19968C1038.16 4.41832 1041.91 6.04836 1044.77 8.79313C1047.63 11.5379 1049.41 15.2149 1049.78 19.155H1049.85C1052.21 19.1545 1054.51 19.9279 1056.39 21.3561C1058.27 22.7844 1059.62 24.7882 1060.25 27.0592C1061.9 27.111 1063.46 27.7973 1064.61 28.9741C1065.77 30.1509 1066.42 31.7267 1066.43 33.3708Z" fill="white"/>
<path d="M1158.7 38.6093V8.91553H1187.44C1185.89 10.7205 1184.34 12.4547 1182.85 14.0827C1175.15 22.4824 1166.6 30.2922 1158.7 38.6093Z" fill="#CCE7D4"/>
<path d="M1209.69 125.332C1209.69 126.334 1209.69 127.337 1209.69 128.328H1111.2V128.21H1091.21V130.806H1056.87V127.526H1019.63V128.21H989.958V32.7819H1019.63V61.4729H1056.9V6.45032H1091.23V22.3059H1117.99V50.525H1148.33C1145.56 54.045 1143.03 57.7502 1140.77 61.6144C1137.98 66.4041 1135.27 71.6893 1135.09 77.352C1134.84 85.209 1140.14 87.9696 1147.29 88.465C1157.26 89.1021 1167.24 88.1465 1177.16 89.5858C1196.2 92.3581 1209.23 105.89 1209.69 125.332Z" fill="#CCE7D4"/>
<path d="M1111.2 126.995V-4.0496H1197.71C1198.16 -4.76923 1198.6 -5.50066 1199.02 -6.2321C1199.88 -7.70676 1200.68 -9.20502 1201.39 -10.7269H987.898V131.454H1209.75C1209.75 131.312 1209.75 131.159 1209.75 131.006C1209.82 130.263 1209.88 129.507 1209.92 128.752C1209.95 127.997 1209.92 127.573 1209.92 126.995H1111.2ZM1107.55 126.995H993.937V-4.0496H1107.55V126.995Z" fill="#D8ECDA"/>
<path d="M1111.78 149.374V151.073H1088.68V150.625L1075.23 132.469L1076.6 131.454L1089.87 149.374H1111.78Z" fill="#231F20"/>
<path d="M1025.9 92.1219H995.606V152.3H1025.9V92.1219Z" fill="#B2DCBF"/>
<path d="M1022.59 96.5573H999.881V98.7516H1022.59V96.5573Z" fill="#D7EDDE"/>
<path d="M1022.59 102.456H999.881V104.65H1022.59V102.456Z" fill="#D7EDDE"/>
<path d="M1022.59 108.353H999.881V110.548H1022.59V108.353Z" fill="#D7EDDE"/>
<path d="M1022.59 114.253H999.881V116.447H1022.59V114.253Z" fill="#D7EDDE"/>
<path d="M1022.59 120.152H999.881V122.346H1022.59V120.152Z" fill="#D7EDDE"/>
<path d="M1022.59 126.051H999.881V128.245H1022.59V126.051Z" fill="#D7EDDE"/>
<path d="M1022.59 131.948H999.881V134.143H1022.59V131.948Z" fill="#D7EDDE"/>
<path d="M1014.6 144.029H1008.38V152.299H1014.6V144.029Z" fill="#D7EDDE"/>
<path d="M1053.69 79.6989H1023.72V153.196H1053.69V79.6989Z" fill="#B2DCBF"/>
<path d="M1033.59 86.2698H1027.32V96.5689H1033.59V86.2698Z" fill="#D7EDDE"/>
<path d="M1042.08 86.2698H1035.81V96.5689H1042.08V86.2698Z" fill="#D7EDDE"/>
<path d="M1050.56 86.2698H1044.28V96.5689H1050.56V86.2698Z" fill="#D7EDDE"/>
<path d="M1033.59 100.154H1027.32V110.453H1033.59V100.154Z" fill="#D7EDDE"/>
<path d="M1042.08 100.154H1035.81V110.453H1042.08V100.154Z" fill="#D7EDDE"/>
<path d="M1050.56 100.013H1044.28V110.312H1050.56V100.013Z" fill="#D7EDDE"/>
<path d="M1033.59 113.899H1027.32V124.198H1033.59V113.899Z" fill="#D7EDDE"/>
<path d="M1042.08 113.899H1035.81V124.198H1042.08V113.899Z" fill="#D7EDDE"/>
<path d="M1050.56 113.899H1044.28V124.198H1050.56V113.899Z" fill="#D7EDDE"/>
<path d="M1033.59 127.56H1027.32V137.859H1033.59V127.56Z" fill="#D7EDDE"/>
<path d="M1042.08 127.56H1035.81V137.859H1042.08V127.56Z" fill="#D7EDDE"/>
<path d="M1050.56 127.56H1044.28V137.859H1050.56V127.56Z" fill="#D7EDDE"/>
<path d="M998.46 86.7192H971.202V153.574H998.46V86.7192Z" fill="#B2DCBF"/>
<path d="M980.178 92.3576H974.47V101.725H980.178V92.3576Z" fill="#D7EDDE"/>
<path d="M987.898 92.3576H982.19V101.725H987.898V92.3576Z" fill="#D7EDDE"/>
<path d="M995.606 92.3576H989.899V101.725H995.606V92.3576Z" fill="#D7EDDE"/>
<path d="M980.178 104.993H974.47V114.36H980.178V104.993Z" fill="#D7EDDE"/>
<path d="M987.898 104.993H982.19V114.36H987.898V104.993Z" fill="#D7EDDE"/>
<path d="M995.606 104.993H989.899V114.36H995.606V104.993Z" fill="#D7EDDE"/>
<path d="M980.178 117.628H974.47V126.995H980.178V117.628Z" fill="#D7EDDE"/>
<path d="M987.898 117.628H982.19V126.995H987.898V117.628Z" fill="#D7EDDE"/>
<path d="M995.606 117.628H989.899V126.995H995.606V117.628Z" fill="#D7EDDE"/>
<path d="M980.178 130.263H974.47V139.63H980.178V130.263Z" fill="#D7EDDE"/>
<path d="M987.898 130.263H982.19V139.63H987.898V130.263Z" fill="#D7EDDE"/>
<path d="M995.606 130.263H989.899V139.63H995.606V130.263Z" fill="#D7EDDE"/>
<path d="M980.178 142.897H974.47V152.264H980.178V142.897Z" fill="#D7EDDE"/>
<path d="M987.898 142.897H982.19V152.264H987.898V142.897Z" fill="#D7EDDE"/>
<path d="M995.606 142.897H989.899V152.264H995.606V142.897Z" fill="#D7EDDE"/>
<path d="M679.369 28.8418V137.483H598.306C597.725 136.457 597.121 135.418 596.577 134.38C592.527 127.113 588.162 119.378 583.481 111.175C577.823 101.023 575.282 89.4379 576.175 77.8595C576.563 72.7426 577.663 67.7043 579.443 62.8888C581.191 58.1349 583.433 53.5761 586.133 49.2865C590.173 42.8675 595.037 37.0019 600.603 31.8383H599.513C599.987 31.4136 600.449 31.0007 600.934 30.6586C601.609 30.0569 602.308 29.4789 602.995 28.9008L679.369 28.8418Z" fill="#E7F3E7"/>
<path d="M653.532 67.1832C653.532 68.1793 653.255 69.156 652.732 70.0044C652.208 70.8529 651.458 71.5398 650.566 71.9887C649.673 72.4376 648.673 72.6307 647.677 72.5467C646.681 72.4627 645.727 72.1048 644.923 71.5128C643.36 72.6631 641.467 73.2833 639.524 73.2824C638.301 73.282 637.091 73.0289 635.972 72.5392C635.084 73.4468 633.985 74.1219 632.772 74.5043C631.559 74.8867 630.27 74.9646 629.02 74.7311C627.77 74.4976 626.597 73.96 625.605 73.1659C624.614 72.3719 623.835 71.3461 623.337 70.1797V70.0853C623.333 70.1127 623.333 70.1405 623.337 70.1679C622.763 71.4509 621.827 72.5404 620.644 73.3046C619.461 74.0688 618.081 74.475 616.671 74.4739C615.592 74.4766 614.527 74.2345 613.557 73.7661C612.552 74.5906 611.372 75.1757 610.106 75.4769C608.84 75.7781 607.522 75.7874 606.252 75.5041C604.982 75.2207 603.794 74.6523 602.778 73.842C601.762 73.0318 600.945 72.0011 600.389 70.8286C600.119 70.8725 599.846 70.8922 599.572 70.8876C598.694 70.8872 597.828 70.682 597.044 70.2884C596.26 69.8948 595.579 69.3237 595.056 68.6209C594.533 67.9181 594.183 67.103 594.033 66.241C593.883 65.3789 593.937 64.4939 594.192 63.6567C594.447 62.8195 594.896 62.0534 595.501 61.4198C596.107 60.7862 596.853 60.3026 597.679 60.0078C598.506 59.713 599.391 59.6152 600.262 59.7222C601.134 59.8292 601.968 60.138 602.698 60.6239C603.802 59.7112 605.116 59.0868 606.523 58.8071C606.517 58.7602 606.517 58.7125 606.523 58.6656C606.521 58.0062 606.65 57.3529 606.903 56.7432C607.155 56.1336 607.525 55.5795 607.993 55.1126C608.46 54.6458 609.015 54.2754 609.627 54.0227C610.238 53.77 610.894 53.6399 611.555 53.6399C611.646 53.6283 611.737 53.6283 611.828 53.6399C612.48 50.3464 614.303 47.3979 616.961 45.3357C619.62 43.2734 622.936 42.236 626.301 42.4139C629.665 42.5918 632.853 43.973 635.277 46.3039C637.702 48.6349 639.202 51.759 639.5 55.1028H639.559C641.556 55.1021 643.498 55.7553 645.085 56.9618C646.673 58.1683 647.818 59.8613 648.345 61.7801C649.744 61.8351 651.067 62.4293 652.035 63.4373C653.002 64.4454 653.539 65.7884 653.532 67.1832Z" fill="white"/>
<path d="M676.657 79.5236V134.381H596.577C592.527 127.114 588.162 119.379 583.481 111.176C577.823 101.023 575.282 89.4386 576.175 77.8602C576.563 72.7433 577.663 67.705 579.443 62.8895H586.24V92.6658H613.628V119.245C613.628 120.59 617.37 119.245 617.37 119.245V62.9249H646.676V106.209H652.703V79.5236H676.657Z" fill="#CCE7D4"/>
<path d="M603.421 111.942V116.661L607.328 112.768V108.049L603.421 111.942ZM603.421 111.942V116.661L607.328 112.768V108.049L603.421 111.942ZM603.421 111.942V116.661L607.328 112.768V108.049L603.421 111.942ZM604.404 27.6738L602.983 28.8536C602.296 29.4316 601.597 30.0333 600.922 30.6113C600.437 31.0125 599.975 31.4254 599.502 31.7911H603.421V134.333H596.577C597.157 135.371 597.761 136.409 598.306 137.436H680.683V27.6738H604.404ZM676.634 134.38H607.328V31.8383H676.657L676.634 134.38ZM603.397 111.965V116.684L607.305 112.791V108.072L603.397 111.965ZM603.397 111.965V116.684L607.305 112.791V108.072L603.397 111.965Z" fill="#D8ECDA"/>
<path d="M653.851 127.196C655.238 127.196 656.362 126.076 656.362 124.695C656.362 123.313 655.238 122.194 653.851 122.194C652.465 122.194 651.341 123.313 651.341 124.695C651.341 126.076 652.465 127.196 653.851 127.196Z" fill="#F9FCFE"/>
<path d="M657.664 128.552L649.032 122.158C649.883 121.018 651.154 120.261 652.565 120.054C653.977 119.847 655.412 120.207 656.557 121.055C657.702 121.903 658.462 123.169 658.669 124.575C658.877 125.981 658.515 127.412 657.664 128.552Z" fill="#B7DFC5"/>
<path d="M661.632 146.944C661.537 146.72 660.743 144.396 663.68 134.168C666.617 123.939 665.042 121.981 662.496 120.117C660.305 118.489 656.362 122.323 656.315 122.358L655.486 121.521C655.676 121.332 660.222 116.896 663.218 119.161C666.451 121.58 667.588 124.612 664.758 134.498C661.928 144.384 662.638 146.425 662.674 146.519L661.632 146.944Z" fill="#B7DFC5"/>
<path d="M666.699 148.513H656.764C656.764 146.779 659.026 145.399 661.738 145.399C664.449 145.399 666.652 146.779 666.699 148.513Z" fill="#B7DFC5"/>
<path d="M717.733 137C717.695 137.012 717.653 137.012 717.615 137C715.247 135.419 712.618 129.084 712.523 128.813C712.512 128.788 712.505 128.761 712.504 128.734C712.503 128.707 712.508 128.679 712.518 128.654C712.528 128.629 712.543 128.606 712.562 128.586C712.581 128.567 712.604 128.551 712.63 128.541C712.655 128.53 712.682 128.523 712.709 128.522C712.736 128.521 712.763 128.526 712.789 128.536C712.814 128.546 712.838 128.561 712.857 128.58C712.877 128.599 712.892 128.622 712.902 128.647C712.902 128.718 715.507 134.865 717.639 136.54C719.683 134.511 722.282 133.129 725.11 132.564C725.138 132.557 725.166 132.556 725.194 132.561C725.222 132.566 725.248 132.576 725.271 132.592C725.295 132.607 725.315 132.627 725.33 132.651C725.345 132.675 725.355 132.701 725.359 132.729C725.37 132.782 725.36 132.838 725.331 132.884C725.303 132.93 725.258 132.963 725.205 132.977C722.396 133.52 719.822 134.908 717.828 136.953C717.8 136.975 717.768 136.991 717.733 137Z" fill="#B7DFC5"/>
<path d="M718.657 131.69C718.657 131.69 718.053 127.325 715.259 126.853C712.464 126.382 713.293 124.258 712.559 123.444C711.825 122.63 709.918 125.037 711.564 127.373C713.21 129.708 711.86 128.977 712.559 131.148C713.257 133.318 718.906 135.312 718.657 131.69Z" fill="#B7DFC5"/>
<path d="M718.657 131.69C718.657 131.69 718.053 127.325 715.259 126.853C712.464 126.382 713.293 124.258 712.559 123.444C711.825 122.63 709.918 125.037 711.564 127.373C713.21 129.708 711.86 128.977 712.559 131.148C713.257 133.318 718.906 135.312 718.657 131.69Z" fill="#B7DFC5"/>
<path d="M718.064 134.769C718.027 134.769 717.991 134.757 717.963 134.733C717.935 134.709 717.916 134.676 717.911 134.639C717.603 133.353 717.236 132.067 716.809 130.817C715.909 128.045 714.974 125.178 715.625 122.111C716.278 119.615 717.3 117.229 718.657 115.032L719.272 113.911L719.77 112.991C720.975 110.902 722.02 108.725 722.896 106.479C723.911 104.151 724.071 101.54 723.346 99.1058C723.338 99.0857 723.335 99.0643 723.337 99.043C723.338 99.0217 723.344 99.0009 723.354 98.982C723.364 98.9632 723.378 98.9466 723.395 98.9334C723.412 98.9201 723.431 98.9106 723.452 98.9053C723.49 98.8938 723.53 98.8973 723.566 98.9148C723.601 98.9324 723.628 98.9627 723.642 98.9996C724.382 101.506 724.228 104.191 723.203 106.597C722.313 108.85 721.256 111.035 720.042 113.133L719.545 114.053L718.929 115.233C717.586 117.398 716.576 119.753 715.933 122.217C715.317 125.201 716.182 127.903 717.117 130.758C717.549 132.025 717.916 133.312 718.218 134.616C718.224 134.636 718.225 134.657 718.222 134.677C718.218 134.698 718.211 134.718 718.2 134.735C718.189 134.753 718.174 134.768 718.157 134.78C718.14 134.792 718.12 134.8 718.1 134.804L718.064 134.769Z" fill="#B7DFC5"/>
<path d="M724.186 101.359C724.186 101.359 726.093 96.0625 722.091 95.8384C718.088 95.6142 722.363 100.746 724.186 101.359Z" fill="#B7DFC5"/>
<path d="M720.587 105.37C720.587 105.37 719.521 100.486 716.644 101.43C713.766 102.374 717.745 105.394 720.587 105.37Z" fill="#B7DFC5"/>
<path d="M725.406 105.926C725.406 105.926 725.087 102.032 728.118 102.044C731.149 102.056 729.669 105.418 725.406 105.926Z" fill="#B7DFC5"/>
<path d="M723.192 113.794C723.192 113.794 727.348 110.255 728.734 113.016C730.119 115.776 725.584 116.177 723.192 113.794Z" fill="#B7DFC5"/>
<path d="M716.016 112.956C716.016 112.956 715.424 106.952 712.097 108.721C708.769 110.491 713.151 113.534 716.016 112.956Z" fill="#B7DFC5"/>
<path d="M712.902 121.45C712.902 121.45 715.483 115.469 710.972 116.024C706.461 116.578 709.764 119.893 712.902 121.45Z" fill="#B7DFC5"/>
<path d="M719.746 123.798C719.746 123.798 723.666 119.433 726.531 120.931C729.397 122.429 726.898 126.794 719.746 123.798Z" fill="#B7DFC5"/>
<path d="M723.192 113.794C723.192 113.794 727.348 110.255 728.734 113.016C730.119 115.776 725.584 116.177 723.192 113.794Z" fill="#B7DFC5"/>
<path d="M716.016 112.956C716.016 112.956 715.424 106.952 712.097 108.721C708.769 110.491 713.151 113.534 716.016 112.956Z" fill="#B7DFC5"/>
<path d="M722.256 108.602C722.235 108.598 722.215 108.588 722.198 108.573C722.182 108.559 722.169 108.54 722.162 108.52C722.162 108.52 720.682 105.511 719.533 104.78C719.518 104.766 719.505 104.748 719.497 104.729C719.489 104.71 719.484 104.689 719.484 104.668C719.484 104.647 719.489 104.626 719.497 104.607C719.505 104.588 719.518 104.57 719.533 104.556C719.562 104.534 719.597 104.522 719.634 104.522C719.67 104.522 719.705 104.534 719.734 104.556C720.851 105.62 721.755 106.885 722.399 108.284C723.952 107.342 725.308 106.107 726.389 104.65C726.403 104.635 726.421 104.623 726.44 104.614C726.459 104.606 726.48 104.602 726.501 104.602C726.523 104.602 726.543 104.606 726.563 104.614C726.582 104.623 726.6 104.635 726.614 104.65C726.629 104.673 726.637 104.7 726.637 104.727C726.637 104.754 726.629 104.781 726.614 104.804C725.477 106.352 724.035 107.653 722.375 108.626L722.256 108.602Z" fill="#B7DFC5"/>
<path d="M714.121 110.786C715.878 112.033 717.344 113.642 718.42 115.505C720.779 114.016 723.526 113.253 726.318 113.31C726.359 113.313 726.399 113.332 726.427 113.363C726.456 113.393 726.472 113.434 726.471 113.475C726.47 113.497 726.464 113.518 726.454 113.538C726.445 113.557 726.431 113.575 726.415 113.589C726.398 113.603 726.379 113.614 726.358 113.621C726.338 113.628 726.316 113.63 726.294 113.629C723.517 113.569 720.788 114.351 718.467 115.87H718.372C718.328 115.857 718.29 115.827 718.266 115.788C717.199 113.903 715.742 112.266 713.991 110.986C713.963 110.956 713.947 110.916 713.947 110.874C713.947 110.833 713.963 110.793 713.991 110.762" fill="#B7DFC5"/>
<path d="M715.767 125.686C715.733 125.699 715.695 125.699 715.661 125.686C713.293 123.704 711.576 118.843 711.505 118.607C711.493 118.568 711.496 118.526 711.513 118.489C711.531 118.452 711.561 118.422 711.599 118.407C711.619 118.399 711.639 118.396 711.66 118.397C711.681 118.397 711.701 118.402 711.72 118.411C711.739 118.42 711.756 118.432 711.77 118.448C711.784 118.463 711.794 118.481 711.801 118.501C711.801 118.56 713.529 123.373 715.779 125.355C716.513 124.966 721.025 122.665 724.435 122.665C724.479 122.665 724.521 122.683 724.552 122.714C724.583 122.745 724.601 122.787 724.601 122.831C724.595 122.871 724.576 122.909 724.546 122.937C724.515 122.965 724.476 122.982 724.435 122.984C720.883 122.984 715.886 125.65 715.827 125.686H715.767Z" fill="#B7DFC5"/>
<path d="M717.094 132.481C717.094 132.481 715.626 129.567 718.397 128.482C721.167 127.396 721.546 128.588 723.275 127.786C725.004 126.983 726.52 124.706 726.602 126.287C726.685 127.868 724.72 128.529 725.288 129.319C725.856 130.11 720.279 134.097 717.094 132.481Z" fill="#B7DFC5"/>
<path d="M717.129 131.029C717.129 131.029 715.069 128.953 713.281 128.988C711.493 129.023 710.309 127.23 709.942 128.552C709.575 129.873 712.203 133.412 717.129 131.029Z" fill="#B7DFC5"/>
<path d="M707.491 130.676L708.178 136.61L708.272 137.389L708.557 139.878L708.758 141.636L708.9 142.78L709.563 148.549H726.804L727.478 142.78L727.609 141.636L727.81 139.878L728.106 137.389L728.189 136.61L728.888 130.676H707.491Z" fill="#D8ECDA"/>
<path opacity="0.4" d="M708.556 139.878L708.758 141.636H727.608L727.81 139.878H708.556Z" fill="#96D2B2"/>
<path opacity="0.4" d="M708.9 142.78L709.563 148.549H726.804L727.479 142.78H708.9Z" fill="#96D2B2"/>
<path opacity="0.4" d="M708.178 136.609L708.272 137.388H728.106L728.189 136.609H708.178Z" fill="#96D2B2"/>
<path d="M976.672 68.5154C974.671 72.0546 976.08 70.7804 975.393 72.1607C975.215 72.5518 974.954 72.9003 974.63 73.1831C974.305 73.4659 973.924 73.6764 973.511 73.8006L969.497 77.21C968.482 76.8418 967.528 76.3249 966.667 75.6763V78.4723C967.989 80.2318 969.061 82.1652 969.852 84.2176L963.931 82.4833C963.103 82.2592 961.291 79.3807 961.291 79.3807L961.954 78.7908H961.658V70.2496C960.326 68.9645 959.387 67.3289 958.952 65.5333C958.516 63.7376 958.601 61.8556 959.197 60.1061C959.792 58.3567 960.874 56.8117 962.317 55.6509C963.759 54.49 965.503 53.7611 967.345 53.5489C969.187 53.3366 971.051 53.6498 972.722 54.4519C974.392 55.254 975.8 56.5122 976.78 58.08C977.761 59.6478 978.275 61.4608 978.262 63.3081C978.249 65.1555 977.71 66.9612 976.708 68.5154H976.672Z" fill="#F9C750"/>
<path d="M1010.47 75.6648C1010.66 75.8507 1010.76 76.1027 1010.76 76.3655C1010.76 76.6284 1010.66 76.8804 1010.47 77.0663L991.113 96.3528C990.973 96.4922 990.783 96.5705 990.585 96.5705C990.387 96.5705 990.198 96.4922 990.058 96.3528L989.698 95.9941C989.558 95.8547 989.479 95.6657 989.479 95.4686C989.479 95.2715 989.558 95.0824 989.698 94.943L1009.06 75.6565C1009.24 75.4706 1009.5 75.3662 1009.76 75.3662C1010.02 75.3662 1010.28 75.4706 1010.46 75.6565L1010.47 75.6648Z" fill="#444545"/>
<path d="M957.596 64.41C957.596 64.41 956.696 58.3226 960.189 55.1609C965.139 50.6662 975.5 47.2921 980.568 61.9916C980.568 61.9916 979.632 70.7451 970.787 58.4524L967.495 63.3129C967.495 63.3129 967.377 59.054 964.547 61.1658C961.717 63.2775 965.731 65.2712 965.731 65.2712L961.634 70.2969C961.634 70.2969 957.821 67.6897 957.596 64.41Z" fill="#1A4533"/>
<path d="M988.726 95.8377C988.791 95.7683 988.841 95.6865 988.874 95.5974C988.906 95.5082 988.921 95.4134 988.916 95.3187C988.916 94.3395 988.916 90.6705 991.722 89.5144C991.431 90.2501 991.232 91.0188 991.13 91.8031C991.071 92.3339 991.651 92.3221 992.148 92.1098C994.031 91.3194 998.223 89.3728 1000.33 87.1667C1000.43 87.0721 1000.55 87.0082 1000.69 86.9831C1000.82 86.958 1000.96 86.9727 1001.09 87.0255C1001.21 87.0782 1001.32 87.1667 1001.4 87.2799C1001.47 87.3931 1001.51 87.526 1001.51 87.6622C1001.36 90.352 999.987 94.9647 993.036 97.8787L992.894 97.9613L988.217 101.5C988.137 101.561 988.046 101.604 987.948 101.627C987.851 101.65 987.749 101.652 987.651 101.633C987.552 101.614 987.459 101.575 987.377 101.517C987.295 101.46 987.226 101.386 987.175 101.3L986.05 99.4241C985.974 99.2928 985.942 99.1406 985.959 98.9897C985.976 98.8389 986.041 98.6976 986.145 98.5865L988.726 95.8377Z" fill="#F9C750"/>
<path d="M955.832 138.414C955.832 138.414 953.866 149.751 956.827 152.995C959.787 156.24 961.942 199.335 961.942 199.335L960.865 242.985H973.002V138.414H955.832Z" fill="#1A4533"/>
<path d="M973.096 140.019H955.619C955.619 140.019 958.318 122.972 958.2 120.152C957.513 107.435 955.666 101.784 955.24 92.3579C955.026 87.7334 957.75 81.0679 961.48 78.2012L967.992 80.0415C971.415 83.8433 973.396 88.7175 973.593 93.8208L973.096 140.019Z" fill="white"/>
<path d="M992.812 100.557L981.432 109.995L976.992 113.687C976.683 113.946 976.321 114.135 975.932 114.239C975.542 114.344 975.134 114.362 974.736 114.292C974.339 114.222 973.962 114.066 973.631 113.836C973.301 113.605 973.025 113.305 972.824 112.956L970.74 109.358L958.769 88.7598C958.177 87.7367 958.017 86.5212 958.324 85.3807C958.632 84.2402 959.382 83.2681 960.409 82.6783C961.436 82.0885 962.656 81.9293 963.8 82.2358C964.945 82.5422 965.921 83.2891 966.513 84.3122L977.773 103.754L988.43 95.4961L992.812 100.557Z" fill="#DFE2E8"/>
<path d="M1123.11 101.924C1122.27 102.699 1121.31 103.347 1120.28 103.847L1115.69 100.673C1115.23 100.589 1114.81 100.408 1114.43 100.143C1114.06 99.8785 1113.75 99.536 1113.52 99.1395C1112.64 97.7474 1114.26 98.9979 1111.77 95.4351C1110.77 94.1747 1110.07 92.6998 1109.75 91.127C1109.42 89.5541 1109.46 87.9266 1109.87 86.3729C1110.28 84.8192 1111.05 83.3821 1112.11 82.1751C1113.18 80.9681 1114.51 80.0243 1116 79.4184C1117.5 78.8125 1119.11 78.5611 1120.72 78.6841C1122.33 78.807 1123.88 79.3009 1125.27 80.1267C1126.65 80.9526 1127.82 82.0877 1128.69 83.4424C1129.56 84.7971 1130.09 86.3341 1130.26 87.9321C1130.71 89.9598 1130.33 92.0808 1129.21 93.8307L1132.16 97.594C1133.17 97.8983 1134.12 98.3646 1134.97 98.9743C1134.97 98.9743 1134.22 102.148 1131.59 102.962C1131.59 102.962 1130.52 114.323 1127.76 116.198C1127.76 116.198 1128.83 104.649 1128.27 103.221L1125.02 100.414L1123.11 101.924Z" fill="#F9C750"/>
<path d="M1132.5 146.117L1132.11 146.329C1128.38 148.323 1099.81 163.683 1097.87 165.7C1097.87 165.7 1109.02 167.765 1113.66 171.894C1113.66 171.894 1143.45 168.756 1149.37 161.571C1155.29 154.386 1148.3 141.221 1148.3 141.221C1148.3 141.221 1135.16 141.669 1132.5 146.117Z" fill="#1A4533"/>
<path d="M1135.25 99.0695C1135.25 99.0695 1131.54 99.5885 1130.72 105.641C1129.91 111.693 1122.59 123.997 1130.72 126.652C1130.72 126.652 1134.06 139.699 1132.5 146.117C1132.5 146.117 1147.01 144.489 1150.56 141.988L1147.98 135.346C1147.98 135.346 1153.22 103.942 1135.25 99.0695Z" fill="white"/>
<path d="M1099.01 148.547C1098.84 148.936 1098.32 145.491 1101.94 142.978C1104.89 140.928 1108.24 139.532 1111.78 138.885V142.648L1110.45 142.424C1110.45 142.424 1108.75 147.296 1105.35 147.296C1105.85 146.952 1106.25 146.489 1106.53 145.949C1106.8 145.409 1106.94 144.81 1106.92 144.205C1106.71 142.282 1100.39 145.491 1099.01 148.547Z" fill="#F9C750"/>
<path d="M1135.44 106.454C1133.98 113.721 1130.7 129.919 1129.92 132.408C1129.92 132.408 1123.89 134.26 1121.09 135.44C1117.76 136.809 1114.33 137.895 1110.82 138.684L1110.23 143.474C1110.23 143.474 1128.06 142.955 1134.8 140.005C1134.8 140.005 1149.54 110.807 1141.75 104.212C1141.23 103.786 1140.6 103.501 1139.94 103.385C1139.27 103.27 1138.59 103.328 1137.96 103.553C1137.32 103.779 1136.75 104.165 1136.31 104.673C1135.87 105.181 1135.57 105.795 1135.44 106.454Z" fill="#DFE2E8"/>
<path d="M1125.16 76.7251C1125.16 76.7251 1122.03 72.5253 1126.98 69.5052C1131.93 66.4851 1137.64 66.8626 1140.26 74.3539C1142.87 81.8452 1135.82 82.0929 1137.63 88.5814C1139.44 95.0699 1140.85 93.8666 1140.85 93.8666C1140.85 93.8666 1139.19 95.5064 1136.11 89.5134C1133.03 83.5204 1137.24 82.6474 1134.93 80.4059C1132.62 78.1644 1133.61 81.1491 1129.16 79.6509C1129.19 79.6509 1127.87 79.7217 1125.16 76.7251Z" fill="#1A4533"/>
<path d="M1124.97 77.6329C1124.97 77.5267 1125.17 76.4532 1125.72 76.3706C1126.26 76.288 1127.66 76.5947 1127.79 77.7627C1127.4 78.1308 1127.03 78.525 1126.7 78.9424L1124.97 77.6329Z" fill="#DFE2E8"/>
<path d="M1131.42 90.2564C1131.28 91.4362 1129.91 93.949 1129.2 93.8664C1128.01 93.7484 1126.46 92.026 1124.76 90.2446C1125.68 90.3272 1125.94 89.8671 1125.68 89.0649C1125.34 88.1329 1124.96 86.6347 1123.89 86.0448C1123.13 85.6083 1122.6 86.9768 1122.35 87.8026C1120.52 86.1746 1118.71 85.2544 1117.34 86.847C1112.12 92.9462 1107.69 94.1967 1107.69 88.0268C1107.69 81.8568 1113.85 76.371 1120.1 76.371C1126.35 76.371 1132.38 81.845 1131.42 90.2564Z" fill="#1A4533"/>
<path d="M1112.88 77.6225L1113.45 76.9624C1113.68 76.6951 1114.01 76.5307 1114.36 76.5053C1114.72 76.4799 1115.07 76.5956 1115.34 76.827L1123.89 84.2006L1121.56 86.8765L1113.01 79.5029C1112.74 79.2715 1112.58 78.9434 1112.55 78.5908C1112.53 78.2381 1112.64 77.8898 1112.88 77.6225Z" fill="#D8ECDA"/>
<path d="M1123.38 89.8441C1123.38 89.8441 1124.5 96.3327 1120.48 99.9662L1120.92 100.403C1120.92 100.403 1125.18 97.1113 1124.14 89.7852L1123.38 89.8441Z" fill="#D8ECDA"/>
<path d="M1124.14 91.2118C1126.16 91.2118 1127.79 89.585 1127.79 87.5783C1127.79 85.5715 1126.16 83.9447 1124.14 83.9447C1122.13 83.9447 1120.49 85.5715 1120.49 87.5783C1120.49 89.585 1122.13 91.2118 1124.14 91.2118Z" fill="#B2DCBF"/>
<path d="M1120.67 100.791C1121.02 100.791 1121.31 100.506 1121.31 100.154C1121.31 99.8026 1121.02 99.5173 1120.67 99.5173C1120.32 99.5173 1120.03 99.8026 1120.03 100.154C1120.03 100.506 1120.32 100.791 1120.67 100.791Z" fill="#D8ECDA"/>
<path d="M1124.14 90.5628C1125.79 90.5628 1127.14 89.2265 1127.14 87.5781C1127.14 85.9297 1125.79 84.5934 1124.14 84.5934C1122.49 84.5934 1121.14 85.9297 1121.14 87.5781C1121.14 89.2265 1122.49 90.5628 1124.14 90.5628Z" fill="#D8ECDA"/>
<path d="M933.335 132.917C933.335 132.917 937.503 130.557 940.913 130.557L943.518 156.004C943.575 156.558 943.457 157.116 943.181 157.6C942.905 158.085 942.485 158.471 941.978 158.706C941.471 158.941 940.904 159.013 940.354 158.911C939.804 158.81 939.3 158.54 938.912 158.139C936.745 155.898 934.483 151.568 933.477 143.216L932.458 133.271L933.335 132.917Z" fill="#1A4533"/>
<path d="M828.992 9.02228L829.264 -2.55087L813.006 -11.3398L813.172 -18.7014" stroke="#231F20" stroke-miterlimit="10"/>
<path d="M882.75 20.335C886.184 19.1553 886.598 18.9311 888.919 16.1942C890.964 13.599 891.917 10.3144 891.578 7.0325C891.24 3.75065 889.635 0.728002 887.103 -1.39833C884.572 -3.52465 881.31 -4.58855 878.006 -4.36576C874.702 -4.14297 871.614 -2.65091 869.393 -0.204062C867.804 1.64993 866.792 3.92523 866.48 6.34344C865.45 11.5932 865.166 9.0922 864.68 11.0623C864.526 11.6033 864.491 12.1709 864.577 12.7267C864.663 13.2824 864.868 13.8132 865.178 14.283L866.279 21.0429C867.606 21.5318 868.999 21.8221 870.412 21.9041L873.324 22.2934L875.693 27.1538L881.732 28.5105L884.68 24.2871L882.75 20.335Z" fill="#F9C750"/>
<path d="M855.717 30.209L858.274 41.499L846.007 43.3394C844.832 43.5146 843.633 43.4503 842.484 43.1501C841.334 42.85 840.258 42.3204 839.32 41.5934C838.382 40.8664 837.603 39.9572 837.028 38.921C836.453 37.8847 836.096 36.743 835.978 35.565L834.178 17.468C834.095 16.653 833.745 15.8878 833.182 15.2907C832.62 14.6937 831.875 14.2979 831.064 14.1647L828.47 13.7282C827.215 13.5277 825.96 8.89133 825.877 6.09537C825.818 4.08983 827.239 0.904571 827.819 0.928165C828.802 0.928165 830.827 0.12595 831.49 0.845585L839.116 9.10369C839.575 9.58952 839.887 10.1948 840.015 10.8497L843.923 29.277C844.027 29.7722 844.23 30.241 844.522 30.6549C844.814 31.0688 845.187 31.419 845.62 31.684C846.052 31.9491 846.534 32.1235 847.036 32.1964C847.539 32.2694 848.051 32.2394 848.541 32.1084L855.717 30.209Z" fill="#F9C750"/>
<path d="M901.649 40.7326L909.937 34.1733L919.6 46.4897C920.029 47.1138 920.326 47.8185 920.473 48.5609C920.619 49.3032 920.613 50.0675 920.453 50.8072C920.294 51.5468 919.984 52.2464 919.545 52.863C919.105 53.4797 918.543 54.0006 917.894 54.3939L905.047 62.2273L903.093 53.9692L909.014 49.3918L901.649 40.7326Z" fill="#F9C750"/>
<path d="M855.717 30.2093L891.891 19.8158C891.891 19.8158 898.996 15.7104 909.913 34.1731L901.624 40.7324L900.322 39.5527L900.843 42.5964L869.843 53.2965L867.558 40.2016L858.251 41.5111L855.717 30.2093Z" fill="white"/>
<path d="M933.406 141.694L933.181 131.513L922.263 130.97C922.263 130.97 917.219 90.517 911.275 78.4956C910.706 77.3159 904.999 62.3923 904.999 62.3923C904.999 62.3923 901.447 45.475 900.819 42.7616C900.192 40.0482 898.262 36.7568 897.077 33.4417C895.893 30.1267 890.079 21.3023 889.085 20.7833C888.09 20.2642 886.871 21.4203 886.871 21.4203C889.239 22.1517 895.301 34.008 895.301 34.008C888.99 34.4799 879.73 38.9157 879.73 38.9157C879.517 36.6742 876.048 24.5348 876.048 24.5348C875.624 24.3474 875.147 24.3144 874.701 24.4416C874.256 24.5689 873.869 24.8482 873.609 25.2308C875.894 30.1149 875.479 45.534 874.355 48.3653C873.23 51.1967 869.452 53.273 869.452 53.273L880.642 91.3192C880.749 92.3574 885.319 129.719 887.463 138.19C889.606 146.66 896.699 145.186 896.699 145.186L910.339 143.157L921.494 179.197C924.005 179.015 926.439 178.247 928.598 176.956L923.057 142.107L933.406 141.694ZM901.577 127.395L901.364 109.994L906.041 128.587L901.577 127.395Z" fill="#1A4533"/>
<path d="M882.75 20.3345C881.043 20.5103 879.319 20.2505 877.741 19.5795C873.336 17.574 878.925 15.5802 875.373 12.5837C871.82 9.5872 870.873 6.00082 866.101 6.01262C866.101 6.01262 863.626 4.53796 867.285 3.08689C870.944 1.63582 877.078 7.44009 877.078 7.44009L882.75 20.3345Z" fill="#231F20"/>
<path d="M882.75 20.3346C882.75 20.3346 862.999 5.11612 864.882 -1.58473C864.882 -1.58473 866.504 -3.94419 869.251 -0.92408C869.251 -0.92408 878.724 -11.4001 889.488 0.255649C889.523 0.279243 899.387 14.8017 882.75 20.3346Z" fill="#1A4533"/>
<path d="M910.576 143.086C910.754 143.086 920.25 141.776 922.843 141.906" stroke="#E7F3E7" stroke-miterlimit="10"/>
<path d="M906.195 128.457L921.932 130.804" stroke="#E7F3E7" stroke-miterlimit="10"/>
<path d="M789.596 70.5443H776.05C774.677 70.5443 773.564 71.6535 773.564 73.0217V92.1451C773.564 93.5134 774.677 94.6226 776.05 94.6226H789.596C790.97 94.6226 792.083 93.5134 792.083 92.1451V73.0217C792.083 71.6535 790.97 70.5443 789.596 70.5443Z" fill="#3A3A3A"/>
<path d="M789.004 71.5706H776.63C775.374 71.5706 774.356 72.5847 774.356 73.8357V91.3074C774.356 92.5584 775.374 93.5725 776.63 93.5725H789.004C790.259 93.5725 791.277 92.5584 791.277 91.3074V73.8357C791.277 72.5847 790.259 71.5706 789.004 71.5706Z" fill="#E7F3E7"/>
<path d="M788.708 73.4348H778.619V74.3432H788.708V73.4348Z" fill="#A6D6AD"/>
<path d="M788.708 74.9554H778.619V75.8638H788.708V74.9554Z" fill="#A6D6AD"/>
<path d="M788.708 76.4783H778.619V77.3867H788.708V76.4783Z" fill="#A6D6AD"/>
<path d="M788.708 78.0001H778.619V78.9085H788.708V78.0001Z" fill="#A6D6AD"/>
<path d="M788.708 79.5213H778.619V80.4297H788.708V79.5213Z" fill="#A6D6AD"/>
<path d="M788.708 81.1967H778.619V82.1051H788.708V81.1967Z" fill="#A6D6AD"/>
<path d="M788.708 82.8721H778.619V83.7805H788.708V82.8721Z" fill="#A6D6AD"/>
<path d="M788.708 84.5464H778.619V85.4548H788.708V84.5464Z" fill="#A6D6AD"/>
<path d="M788.708 85.8454H778.619V86.7538H788.708V85.8454Z" fill="#A6D6AD"/>
<path d="M777.636 73.4348H776.18V74.3432H777.636V73.4348Z" fill="#A6D6AD"/>
<path d="M777.636 74.9554H776.18V75.7695H777.636V74.9554Z" fill="#A6D6AD"/>
<path d="M777.542 76.4783H776.18V77.3867H777.542V76.4783Z" fill="#A6D6AD"/>
<path d="M777.542 78.0823H776.18V78.92H777.542V78.0823Z" fill="#A6D6AD"/>
<path d="M777.542 79.5213H776.18V80.4297H777.542V79.5213Z" fill="#A6D6AD"/>
<path d="M777.707 88.8182L780.17 100.12L787.382 91.5552C787.382 91.5552 786.103 85.3852 788.068 84.1347C788.068 84.1347 788.566 85.3144 789.158 87.2492C789.158 87.2492 791.822 84.1937 791.917 81.2444C791.917 81.2444 797.34 88.2284 791.917 92.558C791.917 92.558 784.717 108.083 779.282 109.853C773.847 111.622 771.882 107.788 769.217 92.8529L777.707 88.8182Z" fill="#F9C750"/>
<path d="M740.207 91.684L740.716 103.399L749.289 96.0254C749.289 96.0254 749.076 89.6431 751.231 88.7229C751.231 88.7229 751.503 90.0442 751.776 92.0143C751.776 92.0143 754.925 89.4071 755.518 86.4696C755.518 86.4696 759.697 94.362 753.599 97.7832C753.599 97.7832 743.854 112.129 738.206 112.99C732.558 113.851 731.244 109.698 731.101 94.303L740.207 91.684Z" fill="#F9C750"/>
<path d="M747.182 76.9612C743.937 77.0791 743.499 76.9611 740.693 75.3685C739.143 74.4865 737.82 73.2571 736.829 71.7775C735.839 70.2979 735.208 68.6088 734.986 66.844C734.764 65.0792 734.958 63.2873 735.552 61.6101C736.146 59.9328 737.123 58.4164 738.407 57.1809C739.692 55.9454 741.247 55.0248 742.95 54.492C744.653 53.9592 746.457 53.8288 748.22 54.1112C749.982 54.3935 751.655 55.0809 753.104 56.1189C754.554 57.1568 755.741 58.5167 756.572 60.091C759.07 64.2083 758.537 62.014 759.544 63.5123C759.843 63.9218 760.052 64.3908 760.154 64.8874C760.256 65.384 760.25 65.8967 760.136 66.3908L761.32 72.4428C760.35 73.2645 759.265 73.9402 758.099 74.4483L755.731 75.6281L755.257 80.4532L750.521 83.4615L746.72 80.7953L747.182 76.9612Z" fill="#F9C750"/>
<path d="M781.165 99.6366C781.165 99.6366 778.359 103.081 771.574 101.347L772.178 104.886L737.744 105.146L737.188 101.949L731.48 102.197C729.503 83.3209 736.702 79.5812 736.702 79.5812L767.844 78.0475C767.844 78.0475 775.245 76.9386 777.021 84.3119C778.797 91.6852 781.165 99.6366 781.165 99.6366Z" fill="white"/>
<path d="M772.58 104.709C772.58 104.709 768.105 103.977 765.997 101.571C763.889 99.164 758.087 84.0399 758.584 78.4362C758.194 78.1481 757.715 78.0056 757.23 78.0336C756.746 78.0617 756.286 78.2584 755.932 78.5896C755.932 78.5896 756.773 91.8143 757.353 94.103C757.353 94.103 746.696 92.9232 740.231 94.6928C740.231 94.6928 742.007 80.8664 744.127 79.2974C744.127 79.2974 742.528 78.5896 741.758 79.439C740.989 80.2884 738.336 91.0475 738.313 94.7754C738.289 98.5034 737.567 102.396 737.886 105.299C738.206 108.201 740.669 126.18 740.669 126.18C740.669 126.18 740.349 142.956 740.136 144.3C738.123 156.782 742.717 194.805 742.717 194.805L741.131 242.985H753.966L757.874 195.206L758.359 162.374L763.629 194.026V242.985H777.944V194.203L772.58 104.709Z" fill="#1A4533"/>
<path d="M747.098 77.3037C747.098 77.3037 757.128 55.4198 752.498 50.5239C752.498 50.5239 750.07 49.2734 749.064 53.0485C749.064 53.0485 736.24 48.3296 732.297 63.1352C732.297 63.1352 730.355 79.9581 747.098 77.3037Z" fill="#1A4533"/>
<path d="M675.354 65.5653C675.354 65.5653 674.455 65.9782 674.087 71.0392C673.72 76.1003 671.127 74.72 670.535 78.5187C669.943 82.3174 665.692 82.6359 667.504 85.7858C669.316 88.9357 670.583 88.2869 671.944 88.3576C673.306 88.4284 678.859 88.4166 680.399 86.4229C681.938 84.4291 685.538 87.8032 686.935 85.7858C688.332 83.7685 693.744 88.8531 694.288 88.0273C694.833 87.2015 698.681 87.6852 700.955 88.8413C703.228 89.9975 704.507 83.7803 703.252 82.0579C701.997 80.3355 701.464 80.4535 701.926 77.7401C702.387 75.0267 702.873 76.1592 701.381 72.8088C699.889 69.4584 699.96 72.042 699.486 68.6916C699.013 65.3411 699.261 64.5389 696.81 62.7929C694.359 61.0469 695.839 61.0233 694.442 59.2537C693.258 57.7791 693.53 56.5404 691.257 56.8117C689.37 57.0729 687.447 56.837 685.68 56.1274C684.342 55.5376 683.158 55.3724 681.453 57.6257C679.747 59.879 679.428 57.6847 677.367 59.9852C675.875 61.7548 675.651 61.1767 675.354 65.5653Z" fill="#1A4533"/>
<path d="M678.458 63.0644C678.458 63.0644 672.135 74.4842 678.458 80.253C679.521 80.6457 680.665 80.7715 681.788 80.6193C682.911 80.467 683.98 80.0414 684.899 79.38L682.862 86.8005C682.862 86.8005 689.186 86.1281 689.411 85.5618C689.636 84.9955 690.831 76.242 690.831 76.242C690.831 76.242 694.715 72.8561 695.627 69.258C696.539 65.6598 695.284 59.4662 689.304 57.8854C683.324 56.3046 678.458 63.0644 678.458 63.0644Z" fill="#F9C750"/>
<path d="M673.554 126.675V200.491C673.554 200.491 685.253 206.33 705.288 199.134C705.288 199.134 706.922 147.415 696.017 124.882C696.017 124.882 679.037 123.773 676.266 124.882C673.495 125.991 673.554 126.675 673.554 126.675Z" fill="#1A4533"/>
<path d="M677.901 85.833C677.901 85.833 672.584 84.6533 669.186 94.3389C667.776 98.4153 665.752 102.254 663.182 105.723C662.551 106.576 661.62 107.16 660.575 107.359C659.53 107.558 658.449 107.357 657.546 106.797C654.147 104.673 648.831 101.37 646.427 100.049C642.756 98.0079 643.301 94.2091 635.391 93.9378C635.391 93.9378 633.213 95.5422 637.985 97.2528C634.986 97.989 631.853 97.989 628.855 97.2528C624.356 95.9787 631.579 99.9072 640.578 102.078C640.578 102.078 650.394 111.421 659.606 115.987C660.687 116.528 661.917 116.699 663.105 116.473C664.293 116.247 665.374 115.637 666.178 114.736C673.237 106.69 677.367 96.5069 677.901 85.833Z" fill="#F9C750"/>
<path d="M677.901 85.8335C677.901 85.8335 663.763 106.561 673.555 108.602C673.555 108.602 673.164 123.313 673.555 126.676C673.555 126.676 690.843 129.637 696.053 124.882C695.236 123.625 694.508 122.312 693.874 120.954C690.843 112.696 704.235 89.1013 697.427 85.8335C690.618 82.5656 677.901 85.8335 677.901 85.8335Z" fill="white"/>
<path d="M682.531 60.539C681.896 60.795 681.342 61.2156 680.925 61.757C680.509 62.2984 680.245 62.941 680.162 63.6181C679.985 65.8832 677.072 66.1663 677.072 66.1663V63.7125L679.251 60.539L681.228 58.4391L683.798 57.106L687.066 57.6487L690.156 57.106L693.057 58.6397L695.532 61.7895L696.87 66.1663L695.875 71.6757L693.507 73.3627L689.955 73.8464C689.955 73.8464 686.841 75.1913 688.309 70.6021C689.351 67.3461 688.866 66.65 687.954 65.4821C687.042 64.3142 685.147 64.6799 684.591 63.3468C684.034 62.0137 682.898 62.1789 682.531 60.539Z" fill="#1A4533"/>
<path d="M694.194 71.1387L690.342 67.3015L683.15 74.4672L687.002 78.3045L694.194 71.1387Z" fill="#3F4165"/>
<path d="M685.763 75.4745C685.333 73.9934 685.474 72.4055 686.16 71.0233C686.846 69.6412 688.027 68.565 689.469 68.0068C689.469 68.0068 694.798 74.6604 695.473 76.8311C696.148 79.0018 691.387 92.9816 691.387 92.9816C691.387 92.9816 693.756 84.0983 697.379 85.8325C701.002 87.5667 701.204 94.881 688.261 107.787C688.261 107.787 680.766 112.129 682.258 102.077C683.75 92.026 690.713 79.0018 690.713 79.0018L685.763 75.4745Z" fill="#F9C750"/>
</g>
<defs>
<clipPath id="clip0_3931_21451">
<rect width="1200" height="148" fill="white"/>
</clipPath>
</defs>
</svg>
