<svg width="852" height="160" viewBox="0 0 852 160" fill="none" xmlns="http://www.w3.org/2000/svg">
<g filter="url(#filter0_d_1160_25529)">
<rect x="6" y="2" width="840" height="148" rx="10" fill="#52B788"/>
</g>
<g clip-path="url(#clip0_1160_25529)">
<path d="M873 117.271C873 117.709 873 118.148 873 118.577C873 119.006 872.93 119.699 872.877 120.251C872.877 120.365 872.877 120.479 872.877 120.584C871.461 134.309 861.775 145.553 851.923 154.712C830.899 174.247 806.743 190.023 781.681 203.984C778.497 205.737 775.301 207.49 772.093 209.243H457.69C456.916 207.683 458.191 193.932 407.777 105.825C403.574 98.2827 401.687 89.6765 402.35 81.0749C402.886 73.4938 405.745 66.2546 409.748 59.8479C417.463 47.5166 429.567 37.6569 443.536 33.2923C450.255 31.1514 457.369 30.5346 464.358 31.4869C473.093 32.7401 480.869 36.9557 489.173 39.6727C496.475 42.0653 505.553 43.3098 512.3 38.7086C519.24 33.9759 519.399 25.2467 518.765 17.727C518.572 15.4483 518.308 13.1784 518.071 10.8997C517.833 8.62099 517.604 6.37735 517.508 4.10741C517.346 1.30743 517.458 -1.50152 517.842 -4.27996C518.719 -9.91903 521.236 -15.1783 525.081 -19.407C525.24 -19.5911 525.407 -19.7751 525.574 -19.9504C526.111 -20.5376 526.682 -21.1073 527.281 -21.6507C538.514 -32.0012 554.814 -33.2107 568.784 -28.1888C572.051 -26.9784 575.207 -25.4857 578.214 -23.7278L578.433 -23.6051C582.709 -21.1511 586.79 -18.3465 591.039 -15.7962C599.248 -10.8776 608.433 -7.79727 617.957 -6.769C636.228 -4.5867 655.352 -6.35708 673.543 -8.52185C678.531 -9.10905 683.484 -9.80142 688.436 -10.5902H688.656C702.954 -12.9014 717.113 -16.0028 731.065 -19.8803C763.877 -28.9425 798.334 -41.081 832.509 -31.5367C845.704 -27.847 862.558 -19.8978 868.188 -6.45348C871.223 0.785769 869.886 8.13896 866.614 14.9488C866.077 16.0794 865.479 17.1924 864.854 18.2879C864.538 18.8313 864.212 19.3747 863.878 19.9093C861.659 23.3947 859.183 26.7109 856.471 29.8304C855.319 31.1713 854.166 32.4597 853.058 33.6691C847.34 39.9093 840.998 45.7112 835.121 51.89C832.4 54.71 829.822 57.6643 827.398 60.7419C825.338 63.3569 823.459 66.1095 821.777 68.9802C819.709 72.5385 817.695 76.4649 817.563 80.6717C817.428 82.3932 817.864 84.1112 818.803 85.5622C818.801 85.5796 818.801 85.5973 818.803 85.6147C820.36 87.7795 823.202 88.7085 826.589 88.9276C833.995 89.4009 841.411 88.691 848.783 89.7602C856.313 90.8558 862.567 94.2037 866.833 99.2694C867.027 99.4973 867.22 99.7339 867.405 99.9793C870.986 104.691 872.937 110.432 872.965 116.342C873 116.658 873 116.964 873 117.271Z" fill="#F9FCFE"/>
<path d="M525.081 -19.3983V209.225H457.69C456.916 207.665 458.191 193.914 407.777 105.807C403.574 98.2651 401.687 89.6589 402.35 81.0573C402.886 73.4762 405.745 66.237 409.748 59.8303C417.463 47.499 429.567 37.6393 443.536 33.2747C450.255 31.1338 457.369 30.517 464.358 31.4693C473.093 32.7226 480.869 36.9381 489.173 39.6551C496.475 42.0477 505.553 43.2922 512.3 38.691C519.24 33.9583 519.399 25.2291 518.765 17.7094C518.572 15.4307 518.308 13.1608 518.071 10.8821C518.071 9.84792 517.956 8.8225 517.868 7.81462C517.763 6.5701 517.639 5.33434 517.508 4.08982C517.346 1.28984 517.458 -1.51911 517.842 -4.29755C518.724 -9.92733 521.24 -15.1768 525.081 -19.3983V-19.3983Z" fill="#C4E4D0"/>
<path d="M688.436 -10.5464V209.225H603.689V7.18359L578.179 6.45616V-23.7191L578.398 -23.5964C582.674 -21.1424 586.755 -18.3378 591.004 -15.7875C599.213 -10.8689 608.398 -7.78858 617.922 -6.7603C636.193 -4.57801 655.317 -6.34838 673.508 -8.51315C678.531 -9.06529 683.484 -9.75767 688.436 -10.5464Z" fill="#CCE7D4"/>
<path d="M827.379 144.923H811.431C810.309 144.923 809.399 145.829 809.399 146.947V149.288C809.399 150.406 810.309 151.312 811.431 151.312H827.379C828.502 151.312 829.412 150.406 829.412 149.288V146.947C829.412 145.829 828.502 144.923 827.379 144.923Z" fill="#D8ECDA"/>
<path d="M682.639 26.4061H533.289V197.975H682.639V26.4061Z" fill="#E7F3E7"/>
<path d="M587.098 80.8577C587.096 81.733 586.851 82.5908 586.39 83.3359C585.929 84.081 585.269 84.6843 584.485 85.0791C583.701 85.4738 582.822 85.6445 581.947 85.5724C581.071 85.5002 580.233 85.1879 579.524 84.6701C578.151 85.6796 576.489 86.2233 574.783 86.2214C573.696 86.2248 572.621 86.004 571.625 85.5728C570.844 86.3723 569.877 86.9667 568.809 87.3032C567.742 87.6397 566.608 87.7077 565.508 87.5011C564.407 87.2946 563.376 86.8199 562.504 86.1195C561.633 85.4191 560.95 84.5146 560.514 83.4869V83.4869C560.513 83.4577 560.513 83.4285 560.514 83.3993V83.4782C560.01 84.6058 559.188 85.5635 558.148 86.2354C557.108 86.9074 555.895 87.2647 554.656 87.2643C553.708 87.2676 552.772 87.0547 551.92 86.6421C551.036 87.3676 549.998 87.8826 548.884 88.1476C547.77 88.4127 546.61 88.4208 545.493 88.1714C544.375 87.922 543.33 87.4217 542.436 86.7086C541.542 85.9955 540.823 85.0885 540.335 84.0566C540.099 84.0922 539.861 84.1098 539.622 84.1092C538.851 84.1081 538.091 83.9272 537.402 83.581C536.714 83.2349 536.116 82.733 535.657 82.1156C535.198 81.4983 534.89 80.7824 534.759 80.0254C534.627 79.2684 534.675 78.4911 534.898 77.7558C535.122 77.0204 535.515 76.3474 536.046 75.7905C536.577 75.2336 537.232 74.8082 537.958 74.5484C538.684 74.2886 539.46 74.2015 540.226 74.2942C540.991 74.3868 541.725 74.6566 542.367 75.082C543.363 74.2732 544.55 73.7303 545.815 73.5045C545.81 73.4637 545.81 73.4225 545.815 73.3818C545.815 72.2196 546.279 71.105 547.103 70.2832C547.928 69.4614 549.047 68.9997 550.214 68.9997C550.292 68.991 550.372 68.991 550.451 68.9997C551.031 66.1084 552.637 63.522 554.975 61.7139C557.312 59.9057 560.225 58.9966 563.181 59.153C566.136 59.3095 568.936 60.5209 571.068 62.5657C573.2 64.6104 574.522 67.3518 574.791 70.288H574.844C576.6 70.2876 578.307 70.8621 579.702 71.9232C581.098 72.9842 582.105 74.4729 582.568 76.16C583.784 76.214 584.932 76.7319 585.776 77.6064C586.619 78.4808 587.093 79.645 587.098 80.8577Z" fill="white"/>
<path d="M682.639 26.4046V45.3179C681.393 46.4826 679.747 47.1285 678.039 47.1233C676.705 47.1223 675.4 46.7304 674.288 45.9964C673.176 45.2625 672.305 44.2188 671.784 42.9953V42.9953C671.783 42.9661 671.783 42.9369 671.784 42.9077L671.74 42.9866C671.235 44.1142 670.413 45.0719 669.373 45.7438C668.334 46.4158 667.121 46.7731 665.882 46.7727C664.934 46.776 663.998 46.5631 663.146 46.1505C662.259 46.8746 661.218 47.3872 660.102 47.6492C658.986 47.9111 657.825 47.9154 656.707 47.6617C655.589 47.408 654.544 46.903 653.652 46.1854C652.76 45.4678 652.045 44.5565 651.56 43.5212C651.325 43.5568 651.086 43.5744 650.848 43.5738C650.077 43.5726 649.317 43.3917 648.628 43.0456C647.94 42.6994 647.342 42.1976 646.883 41.5802C646.424 40.9628 646.116 40.247 645.984 39.49C645.853 38.733 645.9 37.9557 646.124 37.2204C646.347 36.485 646.741 35.812 647.272 35.2551C647.803 34.6981 648.458 34.2728 649.184 34.0129C649.909 33.7531 650.686 33.6661 651.452 33.7587C652.217 33.8514 652.95 34.1212 653.593 34.5466C654.589 33.7378 655.776 33.1949 657.041 32.9691C657.036 32.9283 657.036 32.8871 657.041 32.8464C657.041 31.6841 657.504 30.5695 658.329 29.7477C659.154 28.9259 660.273 28.4642 661.439 28.4642C661.518 28.4556 661.598 28.4556 661.677 28.4642C661.818 27.7546 662.024 27.0593 662.292 26.3871L682.639 26.4046Z" fill="white"/>
<path d="M617.728 64.889C617.726 65.6918 617.404 66.4608 616.834 67.0276C616.263 67.5944 615.49 67.9127 614.685 67.9127C614.034 67.9128 613.399 67.7072 612.873 67.3255C611.994 67.9723 610.93 68.3196 609.838 68.3158C609.142 68.3199 608.453 68.1796 607.814 67.9039C607.314 68.4139 606.696 68.7929 606.013 69.0073C605.331 69.2218 604.606 69.265 603.903 69.1332C603.199 69.0014 602.54 68.6987 601.982 68.2518C601.425 67.805 600.987 67.2279 600.707 66.5718V66.5192V66.563C600.384 67.2869 599.858 67.9019 599.191 68.3329C598.524 68.7639 597.745 68.9925 596.951 68.9907C596.342 68.9937 595.74 68.8588 595.191 68.5963C594.624 69.0578 593.96 69.3849 593.247 69.5528C592.535 69.7206 591.793 69.725 591.079 69.5654C590.365 69.4058 589.696 69.0866 589.124 68.6317C588.551 68.1768 588.09 67.5983 587.776 66.9399C587.623 66.9489 587.47 66.9489 587.318 66.9399C586.824 66.9385 586.338 66.8221 585.897 66.6001C585.457 66.3781 585.075 66.0565 584.781 65.6611C584.487 65.2656 584.291 64.8073 584.207 64.3227C584.122 63.838 584.153 63.3405 584.296 62.8697C584.439 62.399 584.691 61.9682 585.031 61.6116C585.371 61.255 585.79 60.9826 586.255 60.816C586.719 60.6495 587.216 60.5934 587.706 60.6524C588.197 60.7113 588.666 60.8836 589.077 61.1555C589.714 60.6349 590.474 60.2876 591.285 60.1476C591.281 60.1215 591.281 60.0948 591.285 60.0687C591.285 59.3194 591.584 58.6007 592.115 58.0701C592.645 57.5394 593.366 57.2402 594.118 57.2379H594.276C594.692 55.4265 595.736 53.8196 597.225 52.7003C598.714 51.5811 600.551 51.0214 602.414 51.1198C604.276 51.2183 606.044 51.9687 607.405 53.2387C608.767 54.5086 609.634 56.2167 609.855 58.0617V58.0617C610.98 58.0618 612.074 58.4297 612.968 59.1089C613.863 59.7881 614.509 60.7411 614.808 61.8215C615.6 61.8534 616.348 62.1917 616.893 62.7646C617.439 63.3374 617.738 64.0995 617.728 64.889V64.889Z" fill="white"/>
<path d="M682.639 50.2267V199.149H670.209V199.429L561.658 199.149H533.289V99.2714H568.449V131.226H596.22V65.2136H629.313V116.747H656.451V50.2267H682.639Z" fill="#CCE7D4"/>
<path d="M531.995 25.0903V199.297H684.002V25.0903H531.995ZM534.634 27.7195H610.999V196.668H534.634V27.7195ZM681.328 196.668H614.341V27.7195H681.328V196.668Z" fill="#D8ECDA"/>
<path d="M672.119 208.525C671.966 208.514 671.822 208.449 671.713 208.341C671.605 208.233 671.539 208.09 671.529 207.937L644.242 26.6406C644.197 26.4596 644.223 26.2684 644.315 26.1057C644.406 25.9431 644.556 25.821 644.734 25.7642C644.82 25.7545 644.907 25.7625 644.99 25.7877C645.073 25.8128 645.15 25.8546 645.216 25.9104C645.282 25.9663 645.335 26.035 645.374 26.1124C645.412 26.1897 645.434 26.2741 645.438 26.3602L672.708 207.631C672.753 207.81 672.73 207.999 672.642 208.161C672.554 208.323 672.408 208.447 672.233 208.507H672.092L672.119 208.525Z" fill="#273339"/>
<path d="M645.165 208.937C645.01 208.927 644.864 208.86 644.754 208.751C644.644 208.641 644.577 208.496 644.567 208.341L617.966 26.6409C617.919 26.4597 617.944 26.2676 618.036 26.1043C618.128 25.9411 618.279 25.8194 618.458 25.7644C618.544 25.756 618.631 25.7652 618.714 25.7915C618.796 25.8177 618.872 25.8605 618.937 25.9172C619.002 25.9738 619.055 26.0432 619.092 26.1209C619.129 26.1986 619.15 26.2831 619.153 26.3692L645.755 208.06C645.802 208.24 645.778 208.432 645.688 208.595C645.598 208.758 645.449 208.88 645.271 208.937H645.165Z" fill="#273339"/>
<path d="M645.992 34.984H620.077C619.908 34.9517 619.756 34.8619 619.646 34.73C619.537 34.598 619.477 34.4321 619.477 34.2609C619.477 34.0897 619.537 33.9238 619.646 33.7919C619.756 33.6599 619.908 33.5701 620.077 33.5379H645.992C646.161 33.5701 646.313 33.6599 646.422 33.7919C646.532 33.9238 646.592 34.0897 646.592 34.2609C646.592 34.4321 646.532 34.598 646.422 34.73C646.313 34.8619 646.161 34.9517 645.992 34.984V34.984Z" fill="#273339"/>
<path d="M648.675 53.3015H622.742C622.656 53.2938 622.571 53.2691 622.494 53.2287C622.417 53.1884 622.349 53.1332 622.293 53.0664C622.237 52.9996 622.196 52.9224 622.17 52.8394C622.145 52.7565 622.136 52.6692 622.144 52.5829C622.127 52.4074 622.18 52.2324 622.293 52.096C622.405 51.9597 622.566 51.8731 622.742 51.8554H648.658C648.833 51.8753 648.993 51.9624 649.105 52.0982C649.216 52.2341 649.271 52.4079 649.256 52.5829C649.27 52.7569 649.216 52.9297 649.104 53.0641C648.992 53.1985 648.832 53.2838 648.658 53.3015H648.675Z" fill="#273339"/>
<path d="M651.358 71.6359H625.443C625.268 71.616 625.107 71.5289 624.996 71.3931C624.884 71.2573 624.83 71.0835 624.845 70.9085C624.83 70.7345 624.884 70.5617 624.996 70.4273C625.108 70.2929 625.269 70.2076 625.443 70.1898H651.358C651.532 70.2076 651.693 70.2929 651.805 70.4273C651.917 70.5617 651.971 70.7345 651.956 70.9085C651.971 71.0835 651.917 71.2573 651.805 71.3931C651.694 71.5289 651.533 71.616 651.358 71.6359Z" fill="#273339"/>
<path d="M654.041 89.9615H628.117C627.948 89.9293 627.796 89.8395 627.687 89.7075C627.577 89.5755 627.517 89.4097 627.517 89.2385C627.517 89.0672 627.577 88.9014 627.687 88.7694C627.796 88.6374 627.948 88.5476 628.117 88.5154H654.032C654.201 88.5476 654.353 88.6374 654.463 88.7694C654.572 88.9014 654.632 89.0672 654.632 89.2385C654.632 89.4097 654.572 89.5755 654.463 89.7075C654.353 89.8395 654.201 89.9293 654.032 89.9615H654.041Z" fill="#273339"/>
<path d="M656.724 108.288H630.809C630.64 108.256 630.488 108.166 630.378 108.034C630.269 107.902 630.209 107.737 630.209 107.565C630.209 107.394 630.269 107.228 630.378 107.096C630.488 106.964 630.64 106.874 630.809 106.842H656.724C656.893 106.874 657.045 106.964 657.154 107.096C657.264 107.228 657.324 107.394 657.324 107.565C657.324 107.737 657.264 107.902 657.154 108.034C657.045 108.166 656.893 108.256 656.724 108.288V108.288Z" fill="#273339"/>
<path d="M659.407 126.614H633.492C633.323 126.582 633.171 126.492 633.062 126.36C632.952 126.228 632.892 126.062 632.892 125.891C632.892 125.72 632.952 125.554 633.062 125.422C633.171 125.29 633.323 125.2 633.492 125.168H659.398C659.567 125.2 659.719 125.29 659.829 125.422C659.938 125.554 659.998 125.72 659.998 125.891C659.998 126.062 659.938 126.228 659.829 126.36C659.719 126.492 659.567 126.582 659.398 126.614H659.407Z" fill="#273339"/>
<path d="M662.09 144.958H636.175C636.006 144.925 635.854 144.836 635.745 144.704C635.635 144.572 635.575 144.406 635.575 144.235C635.575 144.063 635.635 143.897 635.745 143.765C635.854 143.634 636.006 143.544 636.175 143.511H662.09C662.259 143.544 662.411 143.634 662.521 143.765C662.63 143.897 662.69 144.063 662.69 144.235C662.69 144.406 662.63 144.572 662.521 144.704C662.411 144.836 662.259 144.925 662.09 144.958V144.958Z" fill="#273339"/>
<path d="M527.21 133.31V208.936H495.252V137.07H425.151C424.491 135.843 423.805 134.589 423.11 133.31H527.21Z" fill="#D8ECDA"/>
<path d="M530.227 142.88H498.269V152.302H530.227V142.88Z" stroke="#B7DFC5" stroke-miterlimit="10"/>
<path d="M514.252 149.138C515.112 149.138 515.809 148.443 515.809 147.587C515.809 146.73 515.112 146.035 514.252 146.035C513.392 146.035 512.695 146.73 512.695 147.587C512.695 148.443 513.392 149.138 514.252 149.138Z" fill="#B7DFC5"/>
<path d="M485.469 137.069H482.188V208.787H485.469V137.069Z" fill="#A1D6BB"/>
<path d="M872.771 116.036C872.771 116.781 872.771 117.526 872.771 118.262C872.771 118.823 872.7 119.384 872.648 119.936H709.53V18.0085H864.625C862.187 22.1005 859.381 25.9638 856.242 29.551C855.089 30.8919 853.937 32.1802 852.829 33.3897C847.111 39.6298 840.768 45.4317 834.892 51.6105C832.171 54.4305 829.593 57.3849 827.169 60.4624C825.108 63.0775 823.23 65.83 821.548 68.7008C819.48 72.2591 817.466 76.1854 817.334 80.3923C817.149 86.2292 821.081 88.2801 826.395 88.6482C833.801 89.1214 841.217 88.4115 848.589 89.4808C862.751 91.5404 872.428 101.593 872.771 116.036Z" fill="#E7F3E7"/>
<path d="M766.34 47.7183C766.338 48.5937 766.093 49.4514 765.631 50.1965C765.17 50.9416 764.511 51.545 763.727 51.9397C762.943 52.3345 762.064 52.5052 761.188 52.433C760.313 52.3608 759.474 52.0486 758.766 51.5308C757.393 52.5402 755.731 53.084 754.024 53.082C752.938 53.0855 751.863 52.8647 750.866 52.4335C750.086 53.2329 749.119 53.8274 748.051 54.1639C746.984 54.5003 745.849 54.5683 744.749 54.3618C743.649 54.1552 742.617 53.6806 741.746 52.9801C740.875 52.2797 740.191 51.3753 739.756 50.3476V50.3476C739.755 50.3184 739.755 50.2891 739.756 50.26L739.712 50.3388C739.207 51.4665 738.385 52.4242 737.345 53.0961C736.306 53.768 735.093 54.1254 733.854 54.125C732.906 54.1282 731.97 53.9154 731.118 53.5027C730.231 54.2269 729.19 54.7395 728.074 55.0014C726.958 55.2633 725.797 55.2676 724.679 55.0139C723.561 54.7602 722.516 54.2553 721.624 53.5377C720.732 52.82 720.017 51.9088 719.533 50.8735C719.297 50.909 719.058 50.9266 718.82 50.926C718.049 50.9249 717.289 50.744 716.6 50.3978C715.912 50.0517 715.314 49.5499 714.855 48.9325C714.396 48.3151 714.088 47.5993 713.956 46.8422C713.825 46.0852 713.872 45.308 714.096 44.5726C714.32 43.8373 714.713 43.1643 715.244 42.6073C715.775 42.0504 716.43 41.625 717.156 41.3652C717.881 41.1054 718.658 41.0183 719.424 41.111C720.189 41.2037 720.922 41.4735 721.565 41.8989C722.561 41.09 723.748 40.5471 725.013 40.3213C725.008 40.2806 725.008 40.2394 725.013 40.1986C725.013 39.0364 725.476 37.9218 726.301 37.1C727.126 36.2782 728.245 35.8165 729.411 35.8165C729.49 35.8078 729.57 35.8078 729.649 35.8165C730.246 32.9374 731.86 30.3675 734.198 28.5745C736.537 26.7815 739.444 25.8846 742.39 26.0471C745.336 26.2095 748.126 27.4204 750.252 29.4595C752.377 31.4986 753.697 34.2303 753.972 37.1574H754.024C755.78 37.157 757.487 37.7316 758.882 38.7926C760.278 39.8537 761.285 41.3423 761.748 43.0295C762.973 43.068 764.136 43.5778 764.992 44.4521C765.848 45.3263 766.331 46.4969 766.34 47.7183Z" fill="white"/>
<path d="M834.892 51.61V29.5505H856.242C855.09 30.8914 853.937 32.1797 852.829 33.3892C847.111 39.6293 840.76 45.4312 834.892 51.61Z" fill="#CCE7D4"/>
<path d="M872.771 116.036C872.771 116.781 872.771 117.526 872.771 118.262H799.6V118.175H784.751V120.103H759.241V117.666H731.575V118.175H709.53V47.2808H731.575V68.5954H759.258V27.719H784.769V39.4982H804.649V60.4622H827.186C825.126 63.0772 823.248 65.8298 821.565 68.7006C819.498 72.2588 817.484 76.1852 817.352 80.3921C817.167 86.229 821.099 88.2799 826.412 88.648C833.819 89.1212 841.235 88.4113 848.606 89.4806C862.751 91.5401 872.428 101.593 872.771 116.036Z" fill="#CCE7D4"/>
<path d="M799.6 117.272V19.9186H863.869C864.203 19.384 864.529 18.8406 864.845 18.2972C865.479 17.2017 866.077 16.0887 866.605 14.9581H708V120.585H872.815C872.815 120.479 872.815 120.365 872.815 120.252C872.868 119.699 872.912 119.138 872.938 118.578C872.965 118.017 872.938 117.701 872.938 117.272H799.6ZM796.891 117.272H712.486V19.9186H796.891V117.272Z" fill="#D8ECDA"/>
<path d="M800.031 133.898V135.16H782.869V134.827L772.876 121.339L773.896 120.585L783.757 133.898H800.031Z" fill="#231F20"/>
<path d="M736.228 91.3647H713.726V136.071H736.228V91.3647Z" fill="#B2DCBF"/>
<path d="M733.774 94.6597H716.902V96.2898H733.774V94.6597Z" fill="#D7EDDE"/>
<path d="M733.774 99.042H716.902V100.672H733.774V99.042Z" fill="#D7EDDE"/>
<path d="M733.774 103.423H716.902V105.053H733.774V103.423Z" fill="#D7EDDE"/>
<path d="M733.774 107.806H716.902V109.436H733.774V107.806Z" fill="#D7EDDE"/>
<path d="M733.774 112.188H716.902V113.818H733.774V112.188Z" fill="#D7EDDE"/>
<path d="M733.774 116.57H716.902V118.201H733.774V116.57Z" fill="#D7EDDE"/>
<path d="M733.774 120.952H716.902V122.582H733.774V120.952Z" fill="#D7EDDE"/>
<path d="M727.836 129.926H723.218V136.07H727.836V129.926Z" fill="#D7EDDE"/>
<path d="M756.874 82.1355H734.609V136.737H756.874V82.1355Z" fill="#B2DCBF"/>
<path d="M741.946 87.0171H737.284V94.6683H741.946V87.0171Z" fill="#D7EDDE"/>
<path d="M748.253 87.0171H743.591V94.6683H748.253V87.0171Z" fill="#D7EDDE"/>
<path d="M754.552 87.0171H749.889V94.6683H754.552V87.0171Z" fill="#D7EDDE"/>
<path d="M741.946 97.3317H737.284V104.983H741.946V97.3317Z" fill="#D7EDDE"/>
<path d="M748.253 97.3317H743.591V104.983H748.253V97.3317Z" fill="#D7EDDE"/>
<path d="M754.552 97.2273H749.889V104.878H754.552V97.2273Z" fill="#D7EDDE"/>
<path d="M741.946 107.543H737.284V115.194H741.946V107.543Z" fill="#D7EDDE"/>
<path d="M748.253 107.543H743.591V115.194H748.253V107.543Z" fill="#D7EDDE"/>
<path d="M754.552 107.543H749.889V115.194H754.552V107.543Z" fill="#D7EDDE"/>
<path d="M741.946 117.692H737.284V125.343H741.946V117.692Z" fill="#D7EDDE"/>
<path d="M748.253 117.692H743.591V125.343H748.253V117.692Z" fill="#D7EDDE"/>
<path d="M754.552 117.692H749.889V125.343H754.552V117.692Z" fill="#D7EDDE"/>
<path d="M715.847 87.3509H695.597V137.018H715.847V87.3509Z" fill="#B2DCBF"/>
<path d="M702.264 91.5398H698.024V98.4986H702.264V91.5398Z" fill="#D7EDDE"/>
<path d="M708 91.5398H703.76V98.4986H708V91.5398Z" fill="#D7EDDE"/>
<path d="M713.726 91.5398H709.486V98.4986H713.726V91.5398Z" fill="#D7EDDE"/>
<path d="M702.264 100.926H698.024V107.885H702.264V100.926Z" fill="#D7EDDE"/>
<path d="M708 100.926H703.76V107.885H708V100.926Z" fill="#D7EDDE"/>
<path d="M713.726 100.926H709.486V107.885H713.726V100.926Z" fill="#D7EDDE"/>
<path d="M702.264 110.313H698.024V117.272H702.264V110.313Z" fill="#D7EDDE"/>
<path d="M708 110.313H703.76V117.272H708V110.313Z" fill="#D7EDDE"/>
<path d="M713.726 110.313H709.486V117.272H713.726V110.313Z" fill="#D7EDDE"/>
<path d="M702.264 119.7H698.024V126.658H702.264V119.7Z" fill="#D7EDDE"/>
<path d="M708 119.7H703.76V126.658H708V119.7Z" fill="#D7EDDE"/>
<path d="M713.726 119.7H709.486V126.658H713.726V119.7Z" fill="#D7EDDE"/>
<path d="M702.264 129.086H698.024V136.045H702.264V129.086Z" fill="#D7EDDE"/>
<path d="M708 129.086H703.76V136.045H708V129.086Z" fill="#D7EDDE"/>
<path d="M713.726 129.086H709.486V136.045H713.726V129.086Z" fill="#D7EDDE"/>
<path d="M715.741 137.307H713.762V208.937H715.741V137.307Z" fill="#B2DCBF"/>
<path d="M776.878 137.307H774.899V208.937H776.878V137.307Z" fill="#B2DCBF"/>
<path d="M799.829 135.159H688.295V138.008H799.829V135.159Z" fill="#D8ECDA"/>
<path d="M475.072 160.918V194.915C475.072 196.393 474.483 197.811 473.433 198.856C472.384 199.902 470.961 200.489 469.477 200.489H455.218C454.945 199.691 454.646 198.806 454.338 197.86C454.03 196.913 453.52 195.598 453.019 194.31C449.5 185.16 442.92 170.506 430.57 147.132H461.252C462.931 147.124 464.598 147.421 466.17 148.009L466.372 148.087L466.654 148.201C469.155 149.263 471.287 151.036 472.785 153.297C474.282 155.559 475.077 158.209 475.072 160.918V160.918Z" fill="#B7DFC5"/>
<path d="M475.072 159.314V189.349C475.072 192.074 472.433 194.283 469.266 194.283H452.975C449.456 185.133 442.876 170.479 430.525 147.105H460.689C462.249 147.099 463.802 147.317 465.299 147.754C465.58 147.824 465.853 147.911 466.126 148.008L466.328 148.078L466.609 148.192C467.582 148.556 468.511 149.027 469.38 149.594C471.074 150.605 472.484 152.026 473.479 153.726C474.474 155.425 475.022 157.347 475.072 159.314V159.314Z" fill="#D8ECDA"/>
<path d="M478.793 44.3537V125.064H418.571C418.14 124.301 417.691 123.53 417.287 122.759C414.278 117.36 411.035 111.613 407.557 105.519C403.354 97.9769 401.467 89.3707 402.13 80.7691C402.419 76.9678 403.236 73.2248 404.558 69.6473C405.857 66.1156 407.522 62.7289 409.528 59.5421C412.529 54.7735 416.143 50.4159 420.277 46.5798H419.468C419.82 46.2643 420.163 45.9576 420.524 45.7034C421.025 45.2564 421.544 44.827 422.054 44.3976L478.793 44.3537Z" fill="#E7F3E7"/>
<path d="M459.598 72.8377C459.599 73.5776 459.393 74.3032 459.004 74.9335C458.615 75.5638 458.058 76.0742 457.395 76.4076C456.732 76.7411 455.989 76.8846 455.249 76.8222C454.509 76.7598 453.801 76.4939 453.203 76.0541C452.042 76.9087 450.636 77.3694 449.192 77.3688C448.283 77.3684 447.385 77.1804 446.553 76.8166C445.893 77.4909 445.077 77.9924 444.176 78.2765C443.275 78.5606 442.318 78.6185 441.389 78.445C440.46 78.2715 439.588 77.8721 438.852 77.2822C438.115 76.6923 437.537 75.9303 437.167 75.0638V74.9936C437.164 75.014 437.164 75.0347 437.167 75.055C436.74 76.0081 436.045 76.8175 435.166 77.3852C434.287 77.953 433.262 78.2547 432.214 78.2539C431.413 78.2559 430.622 78.076 429.901 77.7281C429.155 78.3406 428.278 78.7753 427.338 78.999C426.397 79.2228 425.418 79.2297 424.474 79.0192C423.531 78.8087 422.648 78.3864 421.893 77.7845C421.139 77.1825 420.532 76.4169 420.119 75.5458C419.918 75.5784 419.715 75.5931 419.512 75.5896C418.86 75.5894 418.216 75.4369 417.634 75.1445C417.051 74.8521 416.545 74.4279 416.157 73.9057C415.768 73.3836 415.508 72.7781 415.396 72.1376C415.285 71.4972 415.326 70.8397 415.515 70.2178C415.705 69.5958 416.038 69.0267 416.487 68.556C416.937 68.0853 417.491 67.726 418.106 67.507C418.72 67.288 419.377 67.2154 420.024 67.2948C420.672 67.3743 421.292 67.6037 421.834 67.9647C422.654 67.2866 423.631 66.8228 424.676 66.615C424.671 66.5801 424.671 66.5448 424.676 66.5099C424.674 66.02 424.77 65.5347 424.958 65.0818C425.145 64.6288 425.42 64.2172 425.767 63.8704C426.115 63.5236 426.527 63.2484 426.981 63.0607C427.436 62.8729 427.922 62.7763 428.414 62.7763C428.481 62.7677 428.549 62.7677 428.617 62.7763C429.101 60.3296 430.455 58.1391 432.43 56.6071C434.405 55.075 436.869 54.3043 439.369 54.4365C441.868 54.5686 444.236 55.5947 446.037 57.3264C447.839 59.058 448.953 61.379 449.174 63.8631H449.218C450.702 63.8625 452.144 64.3478 453.324 65.2441C454.503 66.1405 455.354 67.3982 455.746 68.8236C456.785 68.8645 457.767 69.306 458.486 70.0548C459.205 70.8037 459.604 71.8015 459.598 72.8377V72.8377Z" fill="white"/>
<path d="M476.779 82.0053V122.759H417.287C414.278 117.36 411.035 111.614 407.557 105.52C403.354 97.9774 401.467 89.3712 402.13 80.7696C402.419 76.9682 403.236 73.2253 404.558 69.6478H409.607V91.7687H429.954V111.515C429.954 112.514 432.734 111.515 432.734 111.515V69.6741H454.505V101.83H458.983V82.0053H476.779Z" fill="#CCE7D4"/>
<path d="M422.371 106.089V109.595L425.274 106.702V103.197L422.371 106.089ZM422.371 106.089V109.595L425.274 106.702V103.197L422.371 106.089ZM422.371 106.089V109.595L425.274 106.702V103.197L422.371 106.089ZM423.101 43.486L422.046 44.3625C421.535 44.7919 421.016 45.2389 420.515 45.6683C420.154 45.9663 419.811 46.2731 419.459 46.5447H422.371V122.723H417.287C417.718 123.495 418.166 124.266 418.571 125.028H479.77V43.486H423.101ZM476.761 122.758H425.274V46.5798H476.779L476.761 122.758ZM422.353 106.106V109.612L425.256 106.72V103.214L422.353 106.106ZM422.353 106.106V109.612L425.256 106.72V103.214L422.353 106.106Z" fill="#D8ECDA"/>
<path d="M459.836 117.421C460.866 117.421 461.701 116.589 461.701 115.563C461.701 114.537 460.866 113.705 459.836 113.705C458.806 113.705 457.971 114.537 457.971 115.563C457.971 116.589 458.806 117.421 459.836 117.421Z" fill="#F9FCFE"/>
<path d="M462.669 118.429L456.256 113.679C456.888 112.831 457.832 112.269 458.881 112.115C459.929 111.962 460.996 112.229 461.846 112.859C462.696 113.489 463.261 114.43 463.415 115.474C463.569 116.519 463.301 117.581 462.669 118.429V118.429Z" fill="#B7DFC5"/>
<path d="M465.616 132.092C465.545 131.926 464.956 130.199 467.138 122.6C469.319 115.002 468.149 113.547 466.258 112.162C464.631 110.953 461.701 113.801 461.666 113.827L461.05 113.205C461.191 113.065 464.569 109.77 466.795 111.452C469.196 113.249 470.041 115.501 467.938 122.846C465.836 130.19 466.364 131.707 466.39 131.777L465.616 132.092Z" fill="#B7DFC5"/>
<path d="M469.38 133.258H462C462 131.97 463.68 130.944 465.695 130.944C467.709 130.944 469.345 131.97 469.38 133.258Z" fill="#B7DFC5"/>
<path d="M743.908 187.386C743.908 187.386 736.809 167.167 746.547 157.666C756.285 148.166 757.147 176.948 752.616 180.813C749.845 183.172 746.937 185.367 743.908 187.386Z" fill="#CCE7D4"/>
<path d="M507.294 124.705C507.265 124.713 507.235 124.713 507.206 124.705C505.447 123.53 503.494 118.824 503.423 118.622C503.415 118.604 503.41 118.584 503.409 118.564C503.409 118.543 503.412 118.523 503.419 118.504C503.427 118.486 503.438 118.468 503.452 118.454C503.467 118.44 503.484 118.428 503.503 118.421C503.521 118.412 503.541 118.407 503.561 118.407C503.582 118.406 503.602 118.409 503.621 118.417C503.64 118.424 503.657 118.435 503.671 118.449C503.686 118.464 503.697 118.481 503.705 118.499C503.705 118.552 505.64 123.118 507.224 124.363C508.742 122.856 510.673 121.829 512.774 121.409C512.795 121.404 512.816 121.403 512.836 121.407C512.857 121.41 512.877 121.418 512.894 121.43C512.911 121.441 512.926 121.456 512.937 121.474C512.949 121.492 512.956 121.511 512.959 121.532C512.967 121.571 512.96 121.612 512.939 121.647C512.917 121.681 512.884 121.706 512.845 121.716V121.716C510.758 122.12 508.846 123.15 507.364 124.67C507.344 124.686 507.32 124.698 507.294 124.705V124.705Z" fill="#B7DFC5"/>
<path d="M507.98 120.76C507.98 120.76 507.532 117.517 505.455 117.167C503.379 116.816 503.995 115.239 503.45 114.634C502.904 114.029 501.488 115.817 502.711 117.552C503.934 119.288 502.931 118.744 503.45 120.357C503.969 121.97 508.165 123.451 507.98 120.76Z" fill="#B7DFC5"/>
<path d="M507.98 120.76C507.98 120.76 507.532 117.517 505.455 117.167C503.379 116.816 503.995 115.239 503.45 114.634C502.904 114.029 501.488 115.817 502.711 117.552C503.934 119.288 502.931 118.744 503.45 120.357C503.969 121.97 508.165 123.451 507.98 120.76Z" fill="#B7DFC5"/>
<path d="M507.54 123.047C507.512 123.048 507.486 123.038 507.465 123.02C507.444 123.003 507.43 122.978 507.426 122.951C507.197 121.996 506.924 121.04 506.608 120.111C505.939 118.052 505.244 115.922 505.728 113.643C506.213 111.789 506.972 110.017 507.98 108.385L508.437 107.552L508.807 106.868C509.702 105.316 510.478 103.699 511.129 102.031C511.884 100.301 512.002 98.3612 511.463 96.553C511.458 96.538 511.456 96.5221 511.457 96.5063C511.458 96.4905 511.462 96.4751 511.47 96.461C511.477 96.447 511.488 96.4347 511.5 96.4249C511.513 96.415 511.527 96.4079 511.542 96.404C511.571 96.3955 511.601 96.398 511.627 96.4111C511.653 96.4241 511.673 96.4467 511.683 96.4741C512.234 98.3363 512.119 100.331 511.358 102.118C510.696 103.792 509.911 105.415 509.009 106.974L508.64 107.657L508.182 108.534C507.184 110.143 506.434 111.892 505.957 113.722C505.499 115.939 506.141 117.946 506.836 120.067C507.157 121.008 507.43 121.965 507.654 122.933C507.658 122.948 507.659 122.964 507.657 122.979C507.654 122.994 507.649 123.009 507.641 123.022C507.632 123.035 507.622 123.047 507.609 123.055C507.596 123.064 507.582 123.07 507.566 123.074L507.54 123.047Z" fill="#B7DFC5"/>
<path d="M512.088 98.2273C512.088 98.2273 513.504 94.2921 510.531 94.1256C507.558 93.9591 510.733 97.7715 512.088 98.2273Z" fill="#B7DFC5"/>
<path d="M509.414 101.207C509.414 101.207 508.622 97.5784 506.485 98.2796C504.347 98.9807 507.303 101.224 509.414 101.207Z" fill="#B7DFC5"/>
<path d="M512.994 101.619C512.994 101.619 512.757 98.7272 515.009 98.7359C517.261 98.7447 516.161 101.243 512.994 101.619Z" fill="#B7DFC5"/>
<path d="M511.349 107.465C511.349 107.465 514.437 104.836 515.466 106.887C516.495 108.937 513.126 109.235 511.349 107.465Z" fill="#B7DFC5"/>
<path d="M506.018 106.843C506.018 106.843 505.578 102.382 503.107 103.696C500.635 105.011 503.889 107.272 506.018 106.843Z" fill="#B7DFC5"/>
<path d="M503.705 113.153C503.705 113.153 505.623 108.709 502.271 109.121C498.919 109.533 501.374 111.996 503.705 113.153Z" fill="#B7DFC5"/>
<path d="M508.79 114.897C508.79 114.897 511.701 111.654 513.83 112.767C515.959 113.88 514.103 117.123 508.79 114.897Z" fill="#B7DFC5"/>
<path d="M511.349 107.465C511.349 107.465 514.437 104.836 515.466 106.887C516.495 108.937 513.126 109.235 511.349 107.465Z" fill="#B7DFC5"/>
<path d="M506.018 106.843C506.018 106.843 505.578 102.382 503.107 103.696C500.635 105.011 503.889 107.272 506.018 106.843Z" fill="#B7DFC5"/>
<path d="M510.654 103.608C510.638 103.604 510.623 103.597 510.611 103.586C510.599 103.576 510.589 103.562 510.584 103.547C510.584 103.547 509.484 101.312 508.631 100.768C508.62 100.758 508.61 100.745 508.604 100.73C508.598 100.716 508.595 100.701 508.595 100.685C508.595 100.669 508.598 100.654 508.604 100.64C508.61 100.625 508.62 100.612 508.631 100.602C508.652 100.585 508.679 100.577 508.706 100.577C508.733 100.577 508.759 100.585 508.781 100.602C509.61 101.392 510.282 102.332 510.76 103.371C511.914 102.671 512.921 101.755 513.724 100.672C513.735 100.661 513.748 100.651 513.762 100.645C513.777 100.639 513.792 100.636 513.808 100.636C513.824 100.636 513.839 100.639 513.853 100.645C513.868 100.651 513.881 100.661 513.891 100.672C513.902 100.689 513.908 100.709 513.908 100.729C513.908 100.749 513.902 100.769 513.891 100.786C513.047 101.937 511.975 102.903 510.742 103.625L510.654 103.608Z" fill="#B7DFC5"/>
<path d="M504.611 105.23C505.915 106.156 507.005 107.352 507.804 108.736C509.556 107.63 511.597 107.063 513.671 107.106C513.702 107.108 513.731 107.122 513.753 107.144C513.774 107.167 513.786 107.197 513.786 107.228C513.784 107.244 513.78 107.26 513.773 107.275C513.766 107.289 513.756 107.302 513.743 107.313C513.731 107.323 513.717 107.331 513.701 107.336C513.686 107.341 513.67 107.343 513.654 107.342C511.591 107.298 509.563 107.878 507.839 109.007H507.769C507.736 108.997 507.707 108.975 507.689 108.946C506.897 107.546 505.815 106.33 504.514 105.379C504.493 105.356 504.481 105.327 504.481 105.296C504.481 105.265 504.493 105.235 504.514 105.212" fill="#B7DFC5"/>
<path d="M505.833 116.299C505.808 116.309 505.78 116.309 505.754 116.299C503.995 114.827 502.719 111.216 502.667 111.041C502.658 111.012 502.66 110.98 502.673 110.953C502.686 110.925 502.709 110.903 502.737 110.892V110.892C502.751 110.886 502.767 110.884 502.782 110.884C502.798 110.885 502.813 110.888 502.827 110.895C502.841 110.901 502.853 110.911 502.864 110.922C502.874 110.934 502.882 110.947 502.887 110.962V110.962C502.887 111.006 504.171 114.581 505.842 116.054C506.388 115.765 509.739 114.056 512.273 114.056C512.305 114.056 512.337 114.068 512.36 114.091C512.383 114.114 512.396 114.146 512.396 114.178C512.392 114.209 512.377 114.236 512.355 114.257C512.332 114.278 512.303 114.29 512.273 114.292V114.292C509.634 114.292 505.921 116.273 505.877 116.299H505.833Z" fill="#B7DFC5"/>
<path d="M506.819 121.347C506.819 121.347 505.728 119.183 507.787 118.376C509.845 117.57 510.127 118.455 511.411 117.859C512.695 117.263 513.821 115.572 513.883 116.746C513.944 117.921 512.484 118.411 512.906 118.999C513.329 119.586 509.185 122.548 506.819 121.347Z" fill="#B7DFC5"/>
<path d="M506.845 120.269C506.845 120.269 505.315 118.726 503.986 118.753C502.658 118.779 501.778 117.447 501.506 118.428C501.233 119.41 503.186 122.039 506.845 120.269Z" fill="#B7DFC5"/>
<path d="M499.685 120.007L500.195 124.415L500.265 124.993L500.477 126.843L500.626 128.149L500.732 128.999L501.224 133.284H514.032L514.534 128.999L514.63 128.149L514.78 126.843L515 124.993L515.061 124.415L515.58 120.007H499.685Z" fill="#D8ECDA"/>
<path opacity="0.4" d="M500.476 126.843L500.626 128.148H514.63L514.78 126.843H500.476Z" fill="#96D2B2"/>
<path opacity="0.4" d="M500.732 128.999L501.225 133.284H514.033L514.534 128.999H500.732Z" fill="#96D2B2"/>
<path opacity="0.4" d="M500.195 124.415L500.266 124.993H515L515.062 124.415H500.195Z" fill="#96D2B2"/>
<path d="M699.66 73.8273C698.174 76.4566 699.22 75.5101 698.71 76.5355C698.578 76.826 698.384 77.0849 698.143 77.295C697.902 77.5051 697.618 77.6615 697.312 77.7537L694.33 80.2866C693.576 80.0131 692.867 79.6291 692.227 79.1472V81.2243C693.21 82.5315 694.006 83.9678 694.593 85.4925L690.195 84.2042C689.579 84.0377 688.233 81.8992 688.233 81.8992L688.726 81.461H688.506V75.1157C687.517 74.161 686.819 72.9459 686.496 71.6119C686.172 70.2779 686.235 68.8798 686.678 67.5801C687.12 66.2804 687.924 65.1326 688.996 64.2703C690.067 63.4079 691.363 62.8664 692.731 62.7087C694.099 62.551 695.485 62.7836 696.725 63.3796C697.966 63.9755 699.012 64.9101 699.741 66.0748C700.469 67.2396 700.851 68.5865 700.841 69.9589C700.832 71.3313 700.431 72.6728 699.687 73.8273H699.66Z" fill="#F9C750"/>
<path d="M724.769 79.1387C724.908 79.2767 724.986 79.464 724.986 79.6592C724.986 79.8545 724.908 80.0417 724.769 80.1798L710.388 94.5078C710.284 94.6114 710.143 94.6695 709.996 94.6695C709.849 94.6695 709.708 94.6114 709.604 94.5078L709.337 94.2414C709.233 94.1378 709.175 93.9974 709.175 93.8509C709.175 93.7045 709.233 93.564 709.337 93.4605L723.718 79.1325C723.857 78.9944 724.045 78.9168 724.241 78.9168C724.437 78.9168 724.624 78.9944 724.763 79.1325L724.769 79.1387Z" fill="#444545"/>
<path d="M685.489 70.7774C685.489 70.7774 684.82 66.2551 687.415 63.9063C691.092 60.5671 698.789 58.0605 702.554 68.9808C702.554 68.9808 701.859 75.4838 695.288 66.3515L692.843 69.9624C692.843 69.9624 692.755 66.7985 690.652 68.3673C688.55 69.9361 691.532 71.4172 691.532 71.4172L688.488 75.1508C688.488 75.1508 685.656 73.2139 685.489 70.7774Z" fill="#1A4533"/>
<path d="M708.615 94.1251C708.663 94.0736 708.701 94.0128 708.725 93.9466C708.749 93.8803 708.76 93.8099 708.756 93.7395C708.756 93.0121 708.756 90.2864 710.841 89.4275C710.624 89.974 710.477 90.5451 710.401 91.1278C710.357 91.5222 710.788 91.5134 711.157 91.3556C712.556 90.7684 715.67 89.3223 717.236 87.6834C717.309 87.6131 717.401 87.5657 717.501 87.547C717.601 87.5284 717.704 87.5393 717.798 87.5785C717.891 87.6177 717.971 87.6834 718.028 87.7675C718.084 87.8516 718.115 87.9503 718.116 88.0515C718.001 90.0498 716.981 93.4766 711.817 95.6414L711.712 95.7027L708.237 98.332C708.178 98.377 708.11 98.4091 708.037 98.4261C707.965 98.4431 707.889 98.4445 707.816 98.4305C707.743 98.4164 707.674 98.3871 707.613 98.3444C707.552 98.3018 707.501 98.2468 707.463 98.183L706.627 96.7895C706.57 96.6919 706.546 96.5788 706.559 96.4668C706.572 96.3547 706.62 96.2497 706.697 96.1672L708.615 94.1251Z" fill="#F9C750"/>
<path d="M686.377 138.437C686.377 138.437 684.073 163.073 680.721 170.496C677.959 176.631 663.946 191.601 663.946 191.601L670.103 197.972L688.365 174.309L689.245 170.374L692.297 139.576L686.377 138.437Z" fill="#0F2D20"/>
<path d="M684.178 125.755C684.178 125.755 682.718 134.178 684.917 136.588C687.116 138.998 688.717 171.014 688.717 171.014L687.917 203.441H696.933V125.755H684.178Z" fill="#1A4533"/>
<path d="M697.003 126.947H684.019C684.019 126.947 686.025 114.283 685.937 112.188C685.427 102.741 684.055 98.5426 683.738 91.54C683.58 88.1044 685.603 83.1526 688.374 81.0229L693.212 82.3901C695.755 85.2145 697.227 88.8355 697.373 92.6267L697.003 126.947Z" fill="white"/>
<path d="M711.65 97.6312L703.197 104.643L699.898 107.386C699.668 107.578 699.4 107.718 699.11 107.796C698.82 107.873 698.517 107.887 698.222 107.835C697.927 107.783 697.647 107.667 697.401 107.496C697.156 107.324 696.951 107.101 696.801 106.842L695.253 104.169L686.36 88.867C685.92 88.1069 685.801 87.2039 686.03 86.3566C686.258 85.5093 686.815 84.7872 687.578 84.349C688.341 83.9109 689.247 83.7926 690.098 84.0202C690.948 84.2479 691.673 84.8028 692.113 85.5628L700.478 100.006L708.395 93.8713L711.65 97.6312Z" fill="#DFE2E8"/>
<path d="M808.449 98.6464C807.823 99.2227 807.114 99.704 806.347 100.075L802.934 97.7174C802.599 97.6547 802.281 97.5204 802.003 97.3237C801.725 97.127 801.494 96.8726 801.324 96.578C800.673 95.5438 801.878 96.4729 800.022 93.8261C799.279 92.8897 798.765 91.794 798.52 90.6255C798.276 89.457 798.307 88.2479 798.612 87.0937C798.918 85.9395 799.488 84.8718 800.279 83.9751C801.07 83.0784 802.059 82.3773 803.168 81.9272C804.278 81.4771 805.478 81.2903 806.672 81.3816C807.867 81.473 809.023 81.8399 810.051 82.4534C811.079 83.0669 811.949 83.9102 812.593 84.9166C813.237 85.923 813.638 87.0649 813.763 88.252C814.094 89.7584 813.812 91.3341 812.98 92.6341L815.17 95.4299C815.919 95.656 816.626 96.0023 817.264 96.4553C817.264 96.4553 816.701 98.8129 814.748 99.4176C814.748 99.4176 813.956 107.858 811.906 109.251C811.906 109.251 812.698 100.671 812.285 99.6104L809.866 97.5246L808.449 98.6464Z" fill="#F9C750"/>
<path d="M789.739 146.026C789.739 146.026 787.839 148.436 790.698 152.02C793.557 155.605 809.716 177.279 809.461 179.987C809.138 182.11 808.196 184.09 806.752 185.684C806.752 185.684 811.37 183.931 812.47 181.6C812.47 181.6 814.739 181.083 814.959 180.066C815.179 179.049 813.349 177.945 813.349 177.945C813.349 177.945 806.162 152.967 801.474 150.627C801.474 150.627 802.134 145.228 799.495 145.368C796.856 145.509 793.654 143.914 789.739 146.026Z" fill="#F9C750"/>
<path d="M815.425 131.477L815.135 131.635C812.364 133.116 791.137 144.527 789.695 146.026C789.695 146.026 797.981 147.56 801.43 150.627C801.43 150.627 823.562 148.296 827.96 142.958C832.359 137.621 827.16 127.84 827.16 127.84C827.16 127.84 817.404 128.173 815.425 131.477Z" fill="#1A4533"/>
<path d="M817.467 96.526C817.467 96.526 814.713 96.9116 814.106 101.408C813.499 105.904 808.063 115.045 814.106 117.017C814.106 117.017 816.587 126.71 815.426 131.478C815.426 131.478 826.202 130.268 828.841 128.41L826.923 123.476C826.923 123.476 830.82 100.146 817.467 96.526Z" fill="white"/>
<path d="M790.548 133.283C790.417 133.572 790.029 131.013 792.721 129.146C794.911 127.623 797.404 126.586 800.031 126.105V128.901L799.046 128.734C799.046 128.734 797.779 132.354 795.255 132.354C795.626 132.098 795.927 131.754 796.131 131.353C796.335 130.952 796.436 130.507 796.425 130.057C796.266 128.629 791.569 131.013 790.548 133.283Z" fill="#F9C750"/>
<path d="M817.607 102.012C816.525 107.411 814.089 119.444 813.508 121.293C813.508 121.293 809.03 122.669 806.946 123.546C804.477 124.563 801.925 125.369 799.319 125.956L798.879 129.514C798.879 129.514 812.127 129.128 817.132 126.937C817.132 126.937 828.084 105.246 822.296 100.347C821.909 100.03 821.446 99.818 820.952 99.7323C820.458 99.6465 819.951 99.6895 819.479 99.8572C819.006 100.025 818.586 100.311 818.258 100.689C817.93 101.067 817.706 101.522 817.607 102.012V102.012Z" fill="#DFE2E8"/>
<path d="M809.972 79.9264C809.972 79.9264 807.649 76.8063 811.326 74.5626C815.003 72.319 819.243 72.5995 821.187 78.1647C823.132 83.73 817.889 83.9141 819.235 88.7344C820.58 93.5547 821.627 92.6608 821.627 92.6608C821.627 92.6608 820.396 93.879 818.109 89.4268C815.821 84.9746 818.944 84.326 817.229 82.6608C815.514 80.9956 816.252 83.2129 812.945 82.0999C812.963 82.0999 811.986 82.1525 809.972 79.9264Z" fill="#1A4533"/>
<path d="M809.83 80.6008C809.83 80.5219 809.98 79.7243 810.385 79.663C810.789 79.6016 811.827 79.8295 811.924 80.6972C811.635 80.9707 811.364 81.2635 811.115 81.5736L809.83 80.6008Z" fill="#DFE2E8"/>
<path d="M814.625 89.9788C814.519 90.8552 813.499 92.722 812.971 92.6606C812.091 92.573 810.939 91.2934 809.672 89.97C810.358 90.0314 810.552 89.6896 810.358 89.0936C810.103 88.4012 809.822 87.2882 809.03 86.85C808.467 86.5257 808.071 87.5423 807.886 88.1558C806.523 86.9464 805.177 86.2628 804.165 87.4459C800.286 91.977 796.996 92.906 796.996 88.3224C796.996 83.7387 801.57 79.6633 806.215 79.6633C810.86 79.6633 815.337 83.7299 814.625 89.9788Z" fill="#1A4533"/>
<path d="M800.846 80.593L801.272 80.1027C801.444 79.9041 801.689 79.7819 801.952 79.763C802.215 79.7441 802.475 79.8301 802.674 80.002L809.026 85.4799L807.299 87.4678L800.947 81.99C800.748 81.8181 800.625 81.5743 800.606 81.3123C800.587 81.0504 800.673 80.7916 800.846 80.593Z" fill="#D8ECDA"/>
<path d="M808.652 89.6725C808.652 89.6725 809.479 94.4928 806.497 97.1922L806.822 97.5165C806.822 97.5165 809.989 95.0713 809.215 89.6287L808.652 89.6725Z" fill="#D8ECDA"/>
<path d="M809.215 90.6886C810.711 90.6886 811.924 89.48 811.924 87.9892C811.924 86.4984 810.711 85.2898 809.215 85.2898C807.719 85.2898 806.506 86.4984 806.506 87.9892C806.506 89.48 807.719 90.6886 809.215 90.6886Z" fill="#B2DCBF"/>
<path d="M806.638 97.8053C806.9 97.8053 807.113 97.5934 807.113 97.332C807.113 97.0707 806.9 96.8588 806.638 96.8588C806.375 96.8588 806.163 97.0707 806.163 97.332C806.163 97.5934 806.375 97.8053 806.638 97.8053Z" fill="#D8ECDA"/>
<path d="M809.215 90.2064C810.444 90.2064 811.44 89.2136 811.44 87.989C811.44 86.7644 810.444 85.7717 809.215 85.7717C807.985 85.7717 806.989 86.7644 806.989 87.989C806.989 89.2136 807.985 90.2064 809.215 90.2064Z" fill="#D8ECDA"/>
<path d="M667.465 121.671C667.465 121.671 670.561 119.918 673.095 119.918L675.03 138.823C675.072 139.234 674.985 139.649 674.78 140.009C674.575 140.368 674.262 140.656 673.886 140.83C673.509 141.005 673.088 141.058 672.679 140.982C672.271 140.907 671.897 140.707 671.608 140.409C669.998 138.744 668.318 135.528 667.57 129.323L666.814 121.934L667.465 121.671Z" fill="#1A4533"/>
<path d="M589.948 29.6297L590.15 21.032L578.072 14.5027L578.196 9.03379" stroke="#231F20" stroke-miterlimit="10"/>
<path d="M603.979 7.25891L579.9 6.7103C578.992 6.68961 578.238 7.40641 578.218 8.31132L578.139 11.7197C578.119 12.6246 578.838 13.375 579.746 13.3957L603.825 13.9443C604.734 13.965 605.487 13.2482 605.508 12.3433L605.586 8.93486C605.607 8.02995 604.887 7.2796 603.979 7.25891Z" fill="#A3D7BC"/>
<path d="M629.885 38.034C632.436 37.1576 632.744 36.9911 634.468 34.9578C635.987 33.0298 636.695 30.5897 636.444 28.1516C636.192 25.7135 635 23.4679 633.119 21.8883C631.238 20.3086 628.815 19.5183 626.361 19.6838C623.907 19.8493 621.613 20.9577 619.962 22.7755C618.782 24.1528 618.03 25.8432 617.798 27.6397C617.033 31.5397 616.822 29.6817 616.461 31.1453C616.347 31.5472 616.321 31.9689 616.384 32.3818C616.448 32.7946 616.6 33.189 616.831 33.538L617.649 38.5599C618.635 38.9231 619.669 39.1388 620.719 39.1997L622.883 39.4889L624.642 43.0998L629.129 44.1076L631.319 40.97L629.885 38.034Z" fill="#F9C750"/>
<path d="M609.802 45.3694L611.702 53.7568L602.589 55.124C601.716 55.2542 600.825 55.2064 599.971 54.9834C599.117 54.7604 598.318 54.367 597.621 53.8269C596.924 53.2868 596.345 52.6114 595.918 51.8416C595.491 51.0717 595.226 50.2235 595.138 49.3484L593.801 35.9041C593.739 35.2986 593.48 34.7302 593.061 34.2866C592.643 33.8431 592.09 33.5491 591.487 33.4501L589.561 33.1258C588.628 32.9768 587.696 29.5325 587.634 27.4554C587.59 25.9654 588.646 23.5991 589.077 23.6166C589.807 23.6166 591.311 23.0207 591.804 23.5553L597.469 29.6902C597.81 30.0512 598.042 30.5008 598.138 30.9873L601.041 44.6771C601.117 45.0449 601.269 45.3932 601.486 45.7007C601.702 46.0082 601.98 46.2683 602.301 46.4652C602.622 46.6622 602.98 46.7917 603.354 46.8459C603.727 46.9001 604.107 46.8778 604.471 46.7805L609.802 45.3694Z" fill="#F9C750"/>
<path d="M643.925 53.1874L650.083 48.3145L657.261 57.4644C657.58 57.928 657.8 58.4516 657.909 59.003C658.018 59.5545 658.014 60.1223 657.895 60.6718C657.776 61.2213 657.547 61.741 657.22 62.1991C656.893 62.6573 656.476 63.0442 655.994 63.3364L646.45 69.1559L644.998 63.0209L649.397 59.6204L643.925 53.1874Z" fill="#F9C750"/>
<path d="M609.802 45.3696L636.676 37.6483C636.676 37.6483 641.954 34.5984 650.065 48.3144L643.907 53.1873L642.939 52.3109L643.326 54.572L620.297 62.5212L618.599 52.7929L611.685 53.7657L609.802 45.3696Z" fill="white"/>
<path d="M667.517 128.192L667.35 120.628L659.24 120.225C659.24 120.225 655.492 90.1724 651.076 81.2416C650.654 80.3652 646.414 69.2784 646.414 69.2784C646.414 69.2784 643.775 56.7105 643.309 54.6948C642.843 52.679 641.409 50.2338 640.529 47.771C639.649 45.3083 635.33 38.7526 634.591 38.367C633.852 37.9814 632.946 38.8403 632.946 38.8403C634.706 39.3836 639.21 48.1917 639.21 48.1917C634.521 48.5423 627.642 51.8376 627.642 51.8376C627.484 50.1724 624.906 41.154 624.906 41.154C624.591 41.0148 624.237 40.9903 623.906 41.0848C623.575 41.1793 623.287 41.3869 623.094 41.6711C624.792 45.2995 624.484 56.7543 623.648 58.8578C622.813 60.9612 620.006 62.5037 620.006 62.5037L628.319 90.7683C628.398 91.5396 631.794 119.296 633.386 125.589C634.978 131.881 640.248 130.786 640.248 130.786L650.381 129.278L658.668 156.053C660.534 155.917 662.342 155.347 663.946 154.388L659.829 128.498L667.517 128.192ZM643.872 117.569L643.714 104.642L647.188 118.455L643.872 117.569Z" fill="#1A4533"/>
<path d="M629.885 38.0337C628.617 38.1643 627.336 37.9712 626.164 37.4727C622.892 35.9828 627.044 34.5017 624.405 32.2756C621.766 30.0494 621.062 27.3851 617.517 27.3939C617.517 27.3939 615.678 26.2983 618.396 25.2203C621.115 24.1423 625.671 28.4544 625.671 28.4544L629.885 38.0337Z" fill="#231F20"/>
<path d="M629.885 38.0337C629.885 38.0337 615.212 26.7279 616.611 21.7498C616.611 21.7498 617.816 19.997 619.857 22.2406C619.857 22.2406 626.894 14.458 634.891 23.117C634.917 23.1346 642.245 33.9233 629.885 38.0337Z" fill="#1A4533"/>
<path d="M650.557 129.226C650.689 129.226 657.744 128.253 659.671 128.349" stroke="#E7F3E7" stroke-miterlimit="10"/>
<path d="M647.303 118.358L658.993 120.102" stroke="#E7F3E7" stroke-miterlimit="10"/>
<path d="M560.681 75.3347H550.618C549.597 75.3347 548.77 76.1587 548.77 77.1751V91.382C548.77 92.3984 549.597 93.2224 550.618 93.2224H560.681C561.701 93.2224 562.528 92.3984 562.528 91.382V77.1751C562.528 76.1587 561.701 75.3347 560.681 75.3347Z" fill="#3A3A3A"/>
<path d="M560.241 76.097H551.048C550.115 76.097 549.359 76.8504 549.359 77.7798V90.7596C549.359 91.689 550.115 92.4423 551.048 92.4423H560.241C561.174 92.4423 561.93 91.689 561.93 90.7596V77.7798C561.93 76.8504 561.174 76.097 560.241 76.097Z" fill="#E7F3E7"/>
<path d="M560.021 77.482H552.526V78.1568H560.021V77.482Z" fill="#A6D6AD"/>
<path d="M560.021 78.6117H552.526V79.2865H560.021V78.6117Z" fill="#A6D6AD"/>
<path d="M560.021 79.743H552.526V80.4179H560.021V79.743Z" fill="#A6D6AD"/>
<path d="M560.021 80.8736H552.526V81.5484H560.021V80.8736Z" fill="#A6D6AD"/>
<path d="M560.021 82.0037H552.526V82.6785H560.021V82.0037Z" fill="#A6D6AD"/>
<path d="M560.021 83.2483H552.526V83.9232H560.021V83.2483Z" fill="#A6D6AD"/>
<path d="M560.021 84.493H552.526V85.1679H560.021V84.493Z" fill="#A6D6AD"/>
<path d="M560.021 85.7368H552.526V86.4117H560.021V85.7368Z" fill="#A6D6AD"/>
<path d="M560.021 86.7018H552.526V87.3767H560.021V86.7018Z" fill="#A6D6AD"/>
<path d="M551.796 77.482H550.714V78.1568H551.796V77.482Z" fill="#A6D6AD"/>
<path d="M551.796 78.6117H550.714V79.2164H551.796V78.6117Z" fill="#A6D6AD"/>
<path d="M551.726 79.743H550.714V80.4179H551.726V79.743Z" fill="#A6D6AD"/>
<path d="M551.726 80.9346H550.714V81.5569H551.726V80.9346Z" fill="#A6D6AD"/>
<path d="M551.726 82.0037H550.714V82.6785H551.726V82.0037Z" fill="#A6D6AD"/>
<path d="M551.849 88.9104L553.679 97.3065L559.036 90.9436C559.036 90.9436 558.086 86.36 559.546 85.431C559.546 85.431 559.915 86.3074 560.355 87.7447C560.355 87.7447 562.335 85.4748 562.405 83.2837C562.405 83.2837 566.434 88.4721 562.405 91.6886C562.405 91.6886 557.057 103.222 553.019 104.537C548.981 105.852 547.521 103.003 545.542 91.9077L551.849 88.9104Z" fill="#F9C750"/>
<path d="M523.99 91.0394L524.368 99.7423L530.737 94.2646C530.737 94.2646 530.579 89.5232 532.18 88.8396C532.18 88.8396 532.382 89.8211 532.584 91.2848C532.584 91.2848 534.924 89.3479 535.364 87.1656C535.364 87.1656 538.469 93.0289 533.939 95.5705C533.939 95.5705 526.699 106.228 522.503 106.868C518.307 107.507 517.331 104.422 517.225 92.985L523.99 91.0394Z" fill="#F9C750"/>
<path d="M529.171 80.1017C526.761 80.1894 526.435 80.1017 524.351 78.9185C523.199 78.2633 522.216 77.35 521.48 76.2507C520.745 75.1515 520.276 73.8967 520.111 72.5857C519.946 71.2746 520.09 69.9434 520.531 68.6974C520.973 67.4513 521.699 66.3248 522.653 65.4069C523.607 64.4891 524.762 63.8052 526.027 63.4093C527.293 63.0135 528.633 62.9166 529.942 63.1264C531.252 63.3362 532.494 63.8469 533.571 64.6179C534.648 65.389 535.53 66.3993 536.147 67.5689C538.003 70.6276 537.607 68.9974 538.355 70.1105C538.578 70.4148 538.732 70.7632 538.808 71.1321C538.884 71.5011 538.879 71.8819 538.795 72.249L539.674 76.745C538.954 77.3555 538.148 77.8574 537.282 78.2349L535.522 79.1114L535.171 82.6959L531.652 84.9308L528.828 82.9501L529.171 80.1017Z" fill="#F9C750"/>
<path d="M554.418 96.9473C554.418 96.9473 552.333 99.5065 547.292 98.2181L547.741 100.847L522.16 101.04L521.747 98.6651L517.507 98.8491C516.038 84.8264 521.386 82.0481 521.386 82.0481L544.521 80.9088C544.521 80.9088 550.019 80.0849 551.339 85.5626C552.658 91.0402 554.418 96.9473 554.418 96.9473Z" fill="white"/>
<path d="M548.04 100.715C548.04 100.715 544.715 100.172 543.149 98.3842C541.583 96.5963 537.273 85.3605 537.642 81.1975C537.353 80.9835 536.997 80.8776 536.636 80.8985C536.276 80.9193 535.935 81.0655 535.672 81.3115C535.672 81.3115 536.296 91.1362 536.727 92.8364C536.727 92.8364 528.81 91.96 524.007 93.2746C524.007 93.2746 525.327 83.003 526.902 81.8373C526.902 81.8373 525.714 81.3115 525.142 81.9425C524.57 82.5735 522.6 90.5665 522.582 93.336C522.565 96.1055 522.028 98.9977 522.266 101.154C522.503 103.31 524.333 116.666 524.333 116.666C524.333 116.666 524.095 129.129 523.937 130.128C522.442 139.401 525.855 167.648 525.855 167.648L524.676 203.441H534.212L537.115 167.946L537.475 143.555L541.39 167.069V203.441H552.025V167.201L548.04 100.715Z" fill="#1A4533"/>
<path d="M529.109 80.3562C529.109 80.3562 536.56 64.0986 533.121 60.4614C533.121 60.4614 531.317 59.5324 530.57 62.337C530.57 62.337 521.043 58.8313 518.113 69.8304C518.113 69.8304 516.671 82.3282 529.109 80.3562Z" fill="#1A4533"/>
<path d="M475.811 71.6357C475.811 71.6357 475.142 71.9424 474.869 75.7023C474.597 79.4621 472.67 78.4367 472.23 81.2588C471.791 84.0809 468.633 84.3175 469.978 86.6576C471.324 88.9976 472.266 88.5156 473.277 88.5682C474.289 88.6207 478.414 88.612 479.558 87.1308C480.702 85.6497 483.376 88.1562 484.414 86.6576C485.452 85.1589 489.472 88.9363 489.877 88.3228C490.281 87.7093 493.14 88.0686 494.829 88.9275C496.518 89.7864 497.468 85.1676 496.536 83.8881C495.603 82.6085 495.207 82.6961 495.55 80.6804C495.894 78.6646 496.254 79.5059 495.146 77.0169C494.037 74.5279 494.09 76.4472 493.738 73.9582C493.386 71.4692 493.571 70.8732 491.75 69.5761C489.929 68.279 491.029 68.2614 489.991 66.9468C489.111 65.8513 489.314 64.931 487.625 65.1326C486.223 65.3267 484.794 65.1514 483.481 64.6243C482.487 64.1861 481.608 64.0634 480.341 65.7373C479.074 67.4113 478.837 65.7812 477.306 67.4902C476.198 68.8048 476.031 68.3754 475.811 71.6357Z" fill="#1A4533"/>
<path d="M478.116 69.7777C478.116 69.7777 473.419 78.2615 478.116 82.5472C478.906 82.839 479.756 82.9324 480.59 82.8193C481.425 82.7062 482.219 82.39 482.901 81.8987L481.388 87.4114C481.388 87.4114 486.086 86.9118 486.253 86.4911C486.42 86.0704 487.309 79.5674 487.309 79.5674C487.309 79.5674 490.194 77.052 490.871 74.379C491.549 71.7059 490.616 67.1046 486.174 65.9302C481.731 64.7558 478.116 69.7777 478.116 69.7777Z" fill="#F9C750"/>
<path d="M474.473 117.034V171.872C474.473 171.872 483.165 176.21 498.049 170.864C498.049 170.864 499.263 132.442 491.161 115.702C491.161 115.702 478.546 114.878 476.488 115.702C474.429 116.526 474.473 117.034 474.473 117.034Z" fill="#1A4533"/>
<path d="M477.702 86.6926C477.702 86.6926 473.752 85.8162 471.228 93.0116C470.181 96.04 468.677 98.8918 466.768 101.469C466.299 102.102 465.607 102.536 464.831 102.684C464.055 102.832 463.251 102.683 462.581 102.267C460.056 100.689 456.106 98.2351 454.32 97.2535C451.593 95.7373 451.998 92.9152 446.122 92.7136C446.122 92.7136 444.503 93.9056 448.048 95.1764C445.821 95.7233 443.494 95.7233 441.266 95.1764C437.923 94.2299 443.289 97.1483 449.975 98.761C449.975 98.761 457.267 105.702 464.111 109.094C464.914 109.496 465.828 109.623 466.711 109.455C467.593 109.287 468.396 108.834 468.993 108.165C474.238 102.187 477.306 94.6223 477.702 86.6926Z" fill="#F9C750"/>
<path d="M477.702 86.6929C477.702 86.6929 467.199 102.092 474.474 103.608C474.474 103.608 474.184 114.537 474.474 117.035C474.474 117.035 487.317 119.235 491.188 115.703C490.58 114.768 490.04 113.793 489.569 112.784C487.317 106.649 497.266 89.1206 492.208 86.6929C487.15 84.2653 477.702 86.6929 477.702 86.6929Z" fill="white"/>
<path d="M481.142 67.9017C480.67 68.0919 480.259 68.4043 479.949 68.8065C479.64 69.2087 479.444 69.6861 479.382 70.1891C479.251 71.8719 477.087 72.0822 477.087 72.0822V70.2592L478.705 67.9017L480.174 66.3416L482.083 65.3513L484.511 65.7544L486.807 65.3513L488.962 66.4906L490.801 68.8307L491.795 72.0822L491.056 76.1751L489.296 77.4284L486.657 77.7877C486.657 77.7877 484.344 78.7868 485.435 75.3775C486.209 72.9586 485.848 72.4415 485.171 71.5739C484.493 70.7062 483.086 70.9779 482.672 69.9875C482.259 68.9972 481.415 69.1199 481.142 67.9017Z" fill="#1A4533"/>
<path d="M489.806 75.7762L486.945 72.9255L481.602 78.2489L484.463 81.0996L489.806 75.7762Z" fill="#3F4165"/>
<path d="M483.543 78.9972C483.223 77.8969 483.329 76.7172 483.838 75.6904C484.348 74.6637 485.225 73.8642 486.297 73.4494C486.297 73.4494 490.255 78.3925 490.756 80.0051C491.258 81.6177 487.722 92.0033 487.722 92.0033C487.722 92.0033 489.481 85.4039 492.173 86.6922C494.865 87.9805 495.014 93.4144 485.399 103.002C485.399 103.002 479.831 106.228 480.939 98.7605C482.048 91.2934 487.22 81.6177 487.22 81.6177L483.543 78.9972Z" fill="#F9C750"/>
</g>
<defs>
<filter id="filter0_d_1160_25529" x="0" y="0" width="852" height="160" filterUnits="userSpaceOnUse" color-interpolation-filters="sRGB">
<feFlood flood-opacity="0" result="BackgroundImageFix"/>
<feColorMatrix in="SourceAlpha" type="matrix" values="0 0 0 0 0 0 0 0 0 0 0 0 0 0 0 0 0 0 127 0" result="hardAlpha"/>
<feOffset dy="4"/>
<feGaussianBlur stdDeviation="3"/>
<feComposite in2="hardAlpha" operator="out"/>
<feColorMatrix type="matrix" values="0 0 0 0 0 0 0 0 0 0 0 0 0 0 0 0 0 0 0.15 0"/>
<feBlend mode="normal" in2="BackgroundImageFix" result="effect1_dropShadow_1160_25529"/>
<feBlend mode="normal" in="SourceGraphic" in2="effect1_dropShadow_1160_25529" result="shape"/>
</filter>
<clipPath id="clip0_1160_25529">
<rect x="6" y="2" width="840" height="148" rx="10" fill="white"/>
</clipPath>
</defs>
</svg>
