<svg width="1206" height="160" viewBox="0 0 1206 160" fill="none" xmlns="http://www.w3.org/2000/svg">
<g filter="url(#filter0_d_3931_21449)">
<rect x="6" y="2" width="1200" height="148" fill="#52B788"/>
</g>
<g clip-path="url(#clip0_3931_21449)">
<path d="M1216 128.994C1216 129.584 1216 130.174 1216 130.752C1216 131.33 1215.91 132.262 1215.83 133.005C1215.83 133.158 1215.83 133.312 1215.83 133.453C1213.93 151.928 1200.89 167.064 1187.63 179.392C1159.33 205.688 1126.81 226.923 1093.08 245.716C1088.79 248.076 1084.49 250.435 1080.17 252.795H656.963C655.921 250.695 657.638 232.185 589.777 113.587C584.119 103.434 581.579 91.8496 582.471 80.2711C583.193 70.0665 587.042 60.3219 592.429 51.6981C602.814 35.0993 619.107 21.8274 637.911 15.9523C646.954 13.0706 656.531 12.2402 665.938 13.5221C677.696 15.2091 688.164 20.8836 699.342 24.5408C709.17 27.7614 721.39 29.4366 730.472 23.2431C739.814 16.8725 740.027 5.12243 739.175 -4.99964C738.914 -8.06694 738.559 -11.1224 738.239 -14.1897C737.92 -17.257 737.612 -20.2771 737.481 -23.3326C737.265 -27.1016 737.415 -30.8827 737.931 -34.6226C739.112 -42.2132 742.5 -49.2925 747.677 -54.9847C747.89 -55.2325 748.115 -55.4802 748.34 -55.7162C749.062 -56.5066 749.832 -57.2734 750.637 -58.0049C765.758 -71.9374 787.699 -73.5655 806.503 -66.8056C810.901 -65.1764 815.149 -63.1671 819.196 -60.8008L819.492 -60.6356C825.247 -57.3324 830.741 -53.5573 836.46 -50.1243C847.511 -43.5035 859.874 -39.3572 872.694 -37.9731C897.288 -35.0355 923.03 -37.4186 947.517 -40.3325C954.231 -41.1229 960.897 -42.0549 967.564 -43.1167H967.86C987.106 -46.2277 1006.16 -50.4025 1024.95 -55.6218C1069.11 -67.8202 1115.49 -84.1594 1161.5 -71.3122C1179.26 -66.3455 1201.94 -55.6454 1209.52 -37.5484C1213.61 -27.8038 1211.81 -17.9059 1207.4 -8.73938C1206.68 -7.21753 1205.88 -5.71928 1205.04 -4.24462C1204.61 -3.51318 1204.17 -2.78175 1203.72 -2.06212C1200.73 2.62944 1197.4 7.09325 1193.75 11.2924C1192.2 13.0974 1190.65 14.8316 1189.16 16.4596C1181.46 24.8593 1172.92 32.6691 1165.01 40.9862C1161.35 44.7821 1157.88 48.7589 1154.62 52.9014C1151.84 56.4215 1149.31 60.1266 1147.05 63.9909C1144.27 68.7806 1141.56 74.0658 1141.38 79.7285C1141.2 82.0457 1141.78 84.3583 1143.05 86.3114C1143.04 86.3348 1143.04 86.3587 1143.05 86.3821C1145.14 89.2961 1148.97 90.5466 1153.53 90.8415C1163.5 91.4786 1173.48 90.523 1183.4 91.9623C1193.54 93.4369 1201.96 97.9435 1207.7 104.762C1207.96 105.069 1208.22 105.388 1208.47 105.718C1213.29 112.06 1215.92 119.788 1215.95 127.743C1216 128.168 1216 128.581 1216 128.994Z" fill="#F9FCFE"/>
<path d="M747.677 -54.973V252.771H656.963C655.921 250.671 657.638 232.161 589.777 113.563C584.119 103.41 581.579 91.8259 582.471 80.2475C583.193 70.0428 587.042 60.2983 592.429 51.6744C602.814 35.0757 619.107 21.8037 637.911 15.9287C646.954 13.0469 656.531 12.2166 665.938 13.4984C677.696 15.1854 688.164 20.8599 699.342 24.5171C709.17 27.7377 721.39 29.413 730.472 23.2194C739.814 16.8489 740.027 5.09875 739.175 -5.02332C738.914 -8.09061 738.559 -11.1461 738.239 -14.2134C738.239 -15.6055 738.085 -16.9858 737.967 -18.3424C737.825 -20.0177 737.659 -21.6811 737.481 -23.3563C737.265 -27.1253 737.415 -30.9063 737.931 -34.6463C739.119 -42.2244 742.506 -49.2905 747.677 -54.973V-54.973Z" fill="#C4E4D0"/>
<path d="M967.564 -43.0578V252.771H853.488V-19.1919L819.149 -20.1711V-60.7891L819.445 -60.624C825.2 -57.3207 830.694 -53.5456 836.413 -50.1126C847.463 -43.4918 859.827 -39.3455 872.647 -37.9614C897.24 -35.0239 922.983 -37.4069 947.47 -40.3208C954.231 -41.0641 960.898 -41.996 967.564 -43.0578Z" fill="#CCE7D4"/>
<path d="M959.76 6.68298H758.724V237.627H959.76V6.68298Z" fill="#E7F3E7"/>
<path d="M831.155 79.9788C831.153 81.1571 830.823 82.3117 830.202 83.3146C829.581 84.3176 828.694 85.1297 827.638 85.6611C826.583 86.1924 825.4 86.4223 824.221 86.3251C823.043 86.2279 821.914 85.8076 820.96 85.1106C819.112 86.4694 816.875 87.2014 814.578 87.1987C813.116 87.2034 811.668 86.9061 810.327 86.3257C809.276 87.4018 807.974 88.202 806.538 88.6549C805.101 89.1078 803.574 89.1994 802.093 88.9214C800.612 88.6433 799.223 88.0044 798.051 87.0616C796.878 86.1187 795.958 84.9013 795.372 83.518V83.518C795.37 83.4787 795.37 83.4393 795.372 83.4V83.5062C794.692 85.024 793.586 86.3132 792.186 87.2176C790.787 88.1221 789.154 88.6031 787.486 88.6026C786.21 88.607 784.951 88.3205 783.803 87.765C782.614 88.7417 781.216 89.4348 779.717 89.7916C778.217 90.1484 776.656 90.1593 775.152 89.8236C773.648 89.4879 772.24 88.8145 771.037 87.8546C769.834 86.8947 768.866 85.6737 768.209 84.2848C767.891 84.3327 767.571 84.3564 767.25 84.3556C766.211 84.354 765.188 84.1105 764.261 83.6446C763.335 83.1786 762.53 82.5031 761.912 81.6721C761.294 80.8411 760.88 79.8775 760.703 78.8585C760.525 77.8395 760.59 76.7932 760.891 75.8034C761.192 74.8136 761.721 73.9077 762.436 73.158C763.151 72.4083 764.032 71.8357 765.009 71.486C765.986 71.1363 767.032 71.0191 768.062 71.1438C769.093 71.2686 770.079 71.6318 770.944 72.2044C772.285 71.1156 773.883 70.3848 775.586 70.0809C775.579 70.026 775.579 69.9706 775.586 69.9157C775.586 68.3513 776.209 66.8509 777.32 65.7447C778.43 64.6385 779.936 64.0171 781.506 64.0171C781.612 64.0054 781.72 64.0054 781.826 64.0171C782.607 60.1252 784.769 56.6438 787.915 54.2098C791.062 51.7759 794.983 50.5522 798.961 50.7628C802.939 50.9733 806.708 52.604 809.578 55.3564C812.448 58.1088 814.227 61.7989 814.59 65.7513H814.661C817.024 65.7507 819.322 66.5241 821.2 67.9523C823.079 69.3806 824.434 71.3845 825.057 73.6554C826.694 73.7281 828.24 74.4252 829.375 75.6023C830.511 76.7794 831.148 78.3464 831.155 79.9788Z" fill="white"/>
<path d="M959.761 6.68107V32.1396C958.083 33.7074 955.868 34.5769 953.568 34.5699C951.772 34.5685 950.017 34.0411 948.52 33.053C947.023 32.065 945.85 30.6602 945.149 29.0133V29.0133C945.147 28.974 945.147 28.9347 945.149 28.8954L945.09 29.0015C944.41 30.5194 943.304 31.8085 941.904 32.713C940.504 33.6175 938.872 34.0985 937.204 34.098C935.928 34.1023 934.668 33.8158 933.521 33.2604C932.328 34.2351 930.926 34.9252 929.424 35.2777C927.922 35.6303 926.359 35.636 924.854 35.2946C923.349 34.9531 921.943 34.2734 920.742 33.3074C919.542 32.3414 918.578 31.1148 917.926 29.7212C917.609 29.7691 917.288 29.7927 916.967 29.792C915.929 29.7904 914.906 29.5469 913.979 29.081C913.052 28.615 912.248 27.9395 911.63 27.1085C911.012 26.2774 910.598 25.3139 910.421 24.2949C910.243 23.2759 910.308 22.2296 910.608 21.2398C910.909 20.25 911.439 19.344 912.154 18.5944C912.869 17.8447 913.75 17.2721 914.727 16.9224C915.704 16.5727 916.749 16.4555 917.78 16.5802C918.81 16.7049 919.797 17.0681 920.662 17.6407C922.003 16.552 923.6 15.8212 925.303 15.5172C925.297 15.4624 925.297 15.4069 925.303 15.3521C925.303 13.7877 925.927 12.2873 927.038 11.1811C928.148 10.0749 929.654 9.45343 931.224 9.45343C931.33 9.44174 931.437 9.44174 931.544 9.45343C931.733 8.49814 932.011 7.56223 932.372 6.65747L959.761 6.68107Z" fill="white"/>
<path d="M872.386 58.4838C872.383 59.5643 871.95 60.5996 871.182 61.3625C870.414 62.1254 869.373 62.5539 868.289 62.5539C867.412 62.554 866.558 62.2773 865.85 61.7635C864.667 62.6342 863.235 63.1017 861.765 63.0966C860.828 63.102 859.9 62.9132 859.041 62.5421C858.368 63.2285 857.535 63.7387 856.617 64.0273C855.698 64.316 854.722 64.3742 853.776 64.1968C852.829 64.0194 851.941 63.6119 851.191 63.0104C850.44 62.4089 849.85 61.6321 849.474 60.7489V60.6781V60.7371C849.04 61.7116 848.331 62.5393 847.433 63.1195C846.535 63.6997 845.488 64.0074 844.417 64.005C843.598 64.009 842.788 63.8274 842.049 63.4741C841.286 64.0953 840.391 64.5355 839.432 64.7615C838.473 64.9875 837.475 64.9933 836.514 64.7786C835.552 64.5638 834.652 64.134 833.882 63.5217C833.112 62.9095 832.491 62.1307 832.067 61.2444C831.862 61.2565 831.657 61.2565 831.452 61.2444C830.787 61.2425 830.132 61.0859 829.539 60.7871C828.946 60.4882 828.432 60.0553 828.036 59.5231C827.641 58.9908 827.376 58.3738 827.263 57.7214C827.15 57.0691 827.191 56.3993 827.384 55.7657C827.577 55.1321 827.915 54.5521 828.373 54.0721C828.831 53.5922 829.395 53.2254 830.02 53.0012C830.645 52.7771 831.315 52.7016 831.974 52.781C832.634 52.8603 833.266 53.0922 833.82 53.4582C834.676 52.7575 835.7 52.29 836.792 52.1015C836.786 52.0663 836.786 52.0305 836.792 51.9953C836.792 50.9867 837.193 50.0193 837.908 49.305C838.623 48.5907 839.592 48.1879 840.605 48.1848H840.818C841.378 45.7466 842.783 43.5835 844.787 42.077C846.791 40.5704 849.264 39.8169 851.771 39.9495C854.278 40.0821 856.658 41.0921 858.49 42.8016C860.323 44.5111 861.491 46.8102 861.788 49.2937V49.2937C863.302 49.2939 864.774 49.7891 865.979 50.7033C867.183 51.6176 868.053 52.9004 868.455 54.3548C869.521 54.3977 870.528 54.8531 871.262 55.6241C871.996 56.3952 872.399 57.4211 872.386 58.4838V58.4838Z" fill="white"/>
<path d="M959.76 38.7473V239.207H943.029V239.584L796.911 239.207H758.724V104.765H806.052V147.778H843.434V58.9207H887.98V128.289H924.51V38.7473H959.76Z" fill="#CCE7D4"/>
<path d="M756.983 4.9118V239.406H961.596V4.9118H756.983ZM760.536 8.45099H863.327V235.867H760.536V8.45099ZM957.996 235.867H867.827V8.45099H957.996V235.867Z" fill="#D8ECDA"/>
<path d="M945.599 251.828C945.393 251.814 945.199 251.726 945.054 251.581C944.908 251.436 944.82 251.242 944.806 251.037L908.075 6.9987C908.015 6.75496 908.05 6.49762 908.173 6.27866C908.296 6.0597 908.498 5.89542 908.738 5.81897C908.854 5.80594 908.971 5.81668 909.082 5.85053C909.194 5.88438 909.297 5.94063 909.386 6.01581C909.475 6.09098 909.547 6.18349 909.599 6.28761C909.65 6.39173 909.68 6.50526 909.685 6.62119L946.392 250.625C946.454 250.865 946.422 251.12 946.303 251.338C946.185 251.557 945.989 251.723 945.753 251.804H945.564L945.599 251.828Z" fill="#273339"/>
<path d="M909.318 252.382C909.109 252.369 908.912 252.28 908.764 252.132C908.616 251.984 908.527 251.788 908.513 251.58L872.706 6.99887C872.643 6.75501 872.676 6.49636 872.8 6.27667C872.923 6.05698 873.127 5.89313 873.369 5.81914C873.484 5.8078 873.601 5.82018 873.712 5.85553C873.823 5.89089 873.925 5.94847 874.013 6.02473C874.101 6.10098 874.172 6.1943 874.222 6.29894C874.272 6.40358 874.3 6.51732 874.304 6.63316L910.111 251.203C910.175 251.445 910.143 251.702 910.021 251.922C909.9 252.141 909.699 252.306 909.46 252.382H909.318Z" fill="#273339"/>
<path d="M910.431 18.2294H875.547C875.32 18.186 875.115 18.0651 874.968 17.8875C874.82 17.7098 874.74 17.4866 874.74 17.2561C874.74 17.0256 874.82 16.8024 874.968 16.6247C875.115 16.4471 875.32 16.3262 875.547 16.2828H910.431C910.658 16.3262 910.863 16.4471 911.01 16.6247C911.157 16.8024 911.238 17.0256 911.238 17.2561C911.238 17.4866 911.157 17.7098 911.01 17.8875C910.863 18.0651 910.658 18.186 910.431 18.2294V18.2294Z" fill="#273339"/>
<path d="M914.043 42.8862H879.135C879.019 42.8758 878.905 42.8425 878.801 42.7882C878.697 42.7339 878.605 42.6596 878.53 42.5697C878.456 42.4797 878.399 42.3759 878.365 42.2642C878.331 42.1525 878.319 42.0351 878.33 41.9188C878.307 41.6827 878.379 41.447 878.53 41.2635C878.681 41.0799 878.898 40.9635 879.135 40.9396H914.019C914.255 40.9664 914.471 41.0837 914.621 41.2665C914.771 41.4493 914.844 41.6833 914.824 41.9188C914.844 42.153 914.771 42.3856 914.62 42.5666C914.47 42.7475 914.254 42.8623 914.019 42.8862H914.043Z" fill="#273339"/>
<path d="M917.654 67.5656H882.77C882.535 67.5388 882.319 67.4216 882.168 67.2388C882.018 67.056 881.945 66.8219 881.965 66.5864C881.945 66.3522 882.019 66.1196 882.169 65.9387C882.32 65.7578 882.536 65.643 882.77 65.6191H917.654C917.889 65.643 918.105 65.7578 918.255 65.9387C918.406 66.1196 918.479 66.3522 918.459 66.5864C918.479 66.8219 918.406 67.056 918.256 67.2388C918.106 67.4216 917.89 67.5388 917.654 67.5656Z" fill="#273339"/>
<path d="M921.265 92.2332H886.37C886.143 92.1898 885.938 92.0689 885.791 91.8913C885.643 91.7136 885.563 91.4904 885.563 91.2599C885.563 91.0294 885.643 90.8062 885.791 90.6285C885.938 90.4509 886.143 90.33 886.37 90.2866H921.254C921.481 90.33 921.686 90.4509 921.833 90.6285C921.981 90.8062 922.061 91.0294 922.061 91.2599C922.061 91.4904 921.981 91.7136 921.833 91.8913C921.686 92.0689 921.481 92.1898 921.254 92.2332H921.265Z" fill="#273339"/>
<path d="M924.877 116.902H889.993C889.766 116.859 889.561 116.738 889.414 116.561C889.266 116.383 889.186 116.16 889.186 115.929C889.186 115.699 889.266 115.475 889.414 115.298C889.561 115.12 889.766 114.999 889.993 114.956H924.877C925.104 114.999 925.309 115.12 925.456 115.298C925.604 115.475 925.684 115.699 925.684 115.929C925.684 116.16 925.604 116.383 925.456 116.561C925.309 116.738 925.104 116.859 924.877 116.902V116.902Z" fill="#273339"/>
<path d="M928.489 141.57H893.605C893.378 141.527 893.173 141.406 893.026 141.228C892.878 141.05 892.797 140.827 892.797 140.597C892.797 140.366 892.878 140.143 893.026 139.965C893.173 139.788 893.378 139.667 893.605 139.623H928.477C928.704 139.667 928.909 139.788 929.056 139.965C929.204 140.143 929.284 140.366 929.284 140.597C929.284 140.827 929.204 141.05 929.056 141.228C928.909 141.406 928.704 141.527 928.477 141.57H928.489Z" fill="#273339"/>
<path d="M1215.69 127.332C1215.69 128.335 1215.69 129.337 1215.69 130.328C1215.69 131.083 1215.6 131.838 1215.53 132.582H995.958V-4.62079H1204.73C1201.44 0.887336 1197.67 6.08763 1193.44 10.9162C1191.89 12.7212 1190.34 14.4554 1188.85 16.0834C1181.15 24.4831 1172.61 32.2929 1164.7 40.61C1161.04 44.4059 1157.57 48.3827 1154.31 52.5253C1151.53 56.0453 1149.01 59.7505 1146.74 63.6147C1143.96 68.4044 1141.25 73.6896 1141.07 79.3523C1140.82 87.2093 1146.11 89.9699 1153.27 90.4653C1163.24 91.1024 1173.22 90.1468 1183.14 91.5861C1202.2 94.3584 1215.23 107.89 1215.69 127.332Z" fill="#E7F3E7"/>
<path d="M1072.43 35.3708C1072.42 36.5491 1072.09 37.7037 1071.47 38.7066C1070.85 39.7096 1069.97 40.5217 1068.91 41.0531C1067.85 41.5844 1066.67 41.8142 1065.49 41.7171C1064.31 41.6199 1063.19 41.1996 1062.23 40.5026C1060.38 41.8614 1058.15 42.5934 1055.85 42.5907C1054.39 42.5954 1052.94 42.2981 1051.6 41.7177C1050.55 42.7938 1049.25 43.594 1047.81 44.0469C1046.37 44.4999 1044.85 44.5914 1043.37 44.3133C1041.88 44.0353 1040.5 43.3964 1039.32 42.4536C1038.15 41.5107 1037.23 40.2933 1036.64 38.91V38.91C1036.64 38.8707 1036.64 38.8313 1036.64 38.792L1036.58 38.8982C1035.91 40.416 1034.8 41.7052 1033.4 42.6096C1032 43.5141 1030.37 43.9951 1028.7 43.9946C1027.42 43.999 1026.16 43.7124 1025.02 43.157C1023.82 44.1318 1022.42 44.8218 1020.92 45.1744C1019.42 45.5269 1017.85 45.5327 1016.35 45.1912C1014.84 44.8497 1013.44 44.17 1012.24 43.204C1011.04 42.2381 1010.07 41.0114 1009.42 39.6178C1009.1 39.6657 1008.78 39.6894 1008.46 39.6886C1007.42 39.687 1006.4 39.4436 1005.47 38.9776C1004.55 38.5117 1003.74 37.8362 1003.13 37.0051C1002.51 36.1741 1002.09 35.2105 1001.92 34.1915C1001.74 33.1725 1001.8 32.1263 1002.1 31.1364C1002.4 30.1466 1002.93 29.2407 1003.65 28.491C1004.36 27.7413 1005.25 27.1687 1006.22 26.819C1007.2 26.4693 1008.24 26.3521 1009.28 26.4768C1010.31 26.6016 1011.29 26.9648 1012.16 27.5374C1013.5 26.4486 1015.1 25.7178 1016.8 25.4139C1016.79 25.359 1016.79 25.3036 1016.8 25.2487C1016.8 23.6843 1017.42 22.1839 1018.53 21.0777C1019.64 19.9715 1021.15 19.3501 1022.72 19.3501C1022.83 19.3384 1022.93 19.3384 1023.04 19.3501C1023.84 15.4746 1026.02 12.0153 1029.16 9.60183C1032.31 7.18833 1036.22 5.98104 1040.19 6.19968C1044.16 6.41832 1047.91 8.04836 1050.77 10.7931C1053.63 13.5379 1055.41 17.2149 1055.78 21.155H1055.85C1058.21 21.1545 1060.51 21.9279 1062.39 23.3561C1064.27 24.7844 1065.62 26.7882 1066.25 29.0592C1067.9 29.111 1069.46 29.7974 1070.61 30.9741C1071.77 32.1509 1072.42 33.7267 1072.43 35.3708Z" fill="white"/>
<path d="M1164.7 40.6093V10.9155H1193.44C1191.89 12.7205 1190.34 14.4547 1188.85 16.0827C1181.15 24.4824 1172.6 32.2922 1164.7 40.6093Z" fill="#CCE7D4"/>
<path d="M1215.69 127.332C1215.69 128.334 1215.69 129.337 1215.69 130.328H1117.2V130.21H1097.21V132.806H1062.87V129.526H1025.63V130.21H995.958V34.7819H1025.63V63.4729H1062.9V8.45032H1097.23V24.3059H1123.99V52.525H1154.33C1151.56 56.045 1149.03 59.7502 1146.77 63.6144C1143.98 68.4041 1141.27 73.6893 1141.09 79.352C1140.84 87.209 1146.14 89.9696 1153.29 90.465C1163.26 91.1021 1173.24 90.1465 1183.16 91.5858C1202.2 94.3581 1215.23 107.89 1215.69 127.332Z" fill="#CCE7D4"/>
<path d="M1117.2 128.995V-2.0496H1203.71C1204.16 -2.76923 1204.6 -3.50066 1205.02 -4.2321C1205.88 -5.70676 1206.68 -7.20502 1207.39 -8.72687H993.898V133.454H1215.75C1215.75 133.312 1215.75 133.159 1215.75 133.006C1215.82 132.263 1215.88 131.507 1215.92 130.752C1215.95 129.997 1215.92 129.573 1215.92 128.995H1117.2ZM1113.55 128.995H999.937V-2.0496H1113.55V128.995Z" fill="#D8ECDA"/>
<path d="M1117.78 151.374V153.073H1094.68V152.625L1081.23 134.469L1082.6 133.454L1095.87 151.374H1117.78Z" fill="#231F20"/>
<path d="M1031.9 94.1219H1001.61V154.3H1031.9V94.1219Z" fill="#B2DCBF"/>
<path d="M1028.59 98.5573H1005.88V100.752H1028.59V98.5573Z" fill="#D7EDDE"/>
<path d="M1028.59 104.456H1005.88V106.65H1028.59V104.456Z" fill="#D7EDDE"/>
<path d="M1028.59 110.353H1005.88V112.548H1028.59V110.353Z" fill="#D7EDDE"/>
<path d="M1028.59 116.253H1005.88V118.447H1028.59V116.253Z" fill="#D7EDDE"/>
<path d="M1028.59 122.152H1005.88V124.346H1028.59V122.152Z" fill="#D7EDDE"/>
<path d="M1028.59 128.051H1005.88V130.245H1028.59V128.051Z" fill="#D7EDDE"/>
<path d="M1028.59 133.948H1005.88V136.143H1028.59V133.948Z" fill="#D7EDDE"/>
<path d="M1020.6 146.029H1014.38V154.299H1020.6V146.029Z" fill="#D7EDDE"/>
<path d="M1059.69 81.6989H1029.72V155.196H1059.69V81.6989Z" fill="#B2DCBF"/>
<path d="M1039.59 88.2698H1033.32V98.5689H1039.59V88.2698Z" fill="#D7EDDE"/>
<path d="M1048.08 88.2698H1041.81V98.5689H1048.08V88.2698Z" fill="#D7EDDE"/>
<path d="M1056.56 88.2698H1050.28V98.5689H1056.56V88.2698Z" fill="#D7EDDE"/>
<path d="M1039.59 102.154H1033.32V112.453H1039.59V102.154Z" fill="#D7EDDE"/>
<path d="M1048.08 102.154H1041.81V112.453H1048.08V102.154Z" fill="#D7EDDE"/>
<path d="M1056.56 102.013H1050.28V112.312H1056.56V102.013Z" fill="#D7EDDE"/>
<path d="M1039.59 115.899H1033.32V126.198H1039.59V115.899Z" fill="#D7EDDE"/>
<path d="M1048.08 115.899H1041.81V126.198H1048.08V115.899Z" fill="#D7EDDE"/>
<path d="M1056.56 115.899H1050.28V126.198H1056.56V115.899Z" fill="#D7EDDE"/>
<path d="M1039.59 129.56H1033.32V139.859H1039.59V129.56Z" fill="#D7EDDE"/>
<path d="M1048.08 129.56H1041.81V139.859H1048.08V129.56Z" fill="#D7EDDE"/>
<path d="M1056.56 129.56H1050.28V139.859H1056.56V129.56Z" fill="#D7EDDE"/>
<path d="M1004.46 88.7192H977.202V155.574H1004.46V88.7192Z" fill="#B2DCBF"/>
<path d="M986.178 94.3576H980.47V103.725H986.178V94.3576Z" fill="#D7EDDE"/>
<path d="M993.898 94.3576H988.19V103.725H993.898V94.3576Z" fill="#D7EDDE"/>
<path d="M1001.61 94.3576H995.899V103.725H1001.61V94.3576Z" fill="#D7EDDE"/>
<path d="M986.178 106.993H980.47V116.36H986.178V106.993Z" fill="#D7EDDE"/>
<path d="M993.898 106.993H988.19V116.36H993.898V106.993Z" fill="#D7EDDE"/>
<path d="M1001.61 106.993H995.899V116.36H1001.61V106.993Z" fill="#D7EDDE"/>
<path d="M986.178 119.628H980.47V128.995H986.178V119.628Z" fill="#D7EDDE"/>
<path d="M993.898 119.628H988.19V128.995H993.898V119.628Z" fill="#D7EDDE"/>
<path d="M1001.61 119.628H995.899V128.995H1001.61V119.628Z" fill="#D7EDDE"/>
<path d="M986.178 132.263H980.47V141.63H986.178V132.263Z" fill="#D7EDDE"/>
<path d="M993.898 132.263H988.19V141.63H993.898V132.263Z" fill="#D7EDDE"/>
<path d="M1001.61 132.263H995.899V141.63H1001.61V132.263Z" fill="#D7EDDE"/>
<path d="M986.178 144.897H980.47V154.264H986.178V144.897Z" fill="#D7EDDE"/>
<path d="M993.898 144.897H988.19V154.264H993.898V144.897Z" fill="#D7EDDE"/>
<path d="M1001.61 144.897H995.899V154.264H1001.61V144.897Z" fill="#D7EDDE"/>
<path d="M685.369 30.8418V139.483H604.306C603.725 138.457 603.121 137.418 602.577 136.38C598.527 129.113 594.162 121.378 589.481 113.175C583.823 103.023 581.282 91.4379 582.175 79.8595C582.563 74.7426 583.663 69.7043 585.443 64.8888C587.191 60.1349 589.433 55.5761 592.133 51.2865C596.173 44.8675 601.037 39.0019 606.603 33.8383H605.513C605.987 33.4136 606.449 33.0007 606.934 32.6586C607.609 32.0569 608.308 31.4789 608.995 30.9008L685.369 30.8418Z" fill="#E7F3E7"/>
<path d="M659.532 69.1832C659.532 70.1793 659.255 71.1559 658.732 72.0044C658.208 72.8529 657.458 73.5398 656.566 73.9887C655.673 74.4376 654.673 74.6307 653.677 74.5467C652.681 74.4627 651.727 74.1048 650.923 73.5128C649.36 74.6631 647.467 75.2833 645.524 75.2824C644.301 75.282 643.091 75.0289 641.972 74.5392C641.084 75.4468 639.985 76.1219 638.772 76.5043C637.559 76.8867 636.27 76.9646 635.02 76.7311C633.77 76.4976 632.597 75.96 631.605 75.1659C630.614 74.3719 629.835 73.3461 629.337 72.1797V72.0853C629.333 72.1127 629.333 72.1405 629.337 72.1679C628.763 73.4509 627.827 74.5404 626.644 75.3046C625.461 76.0688 624.081 76.475 622.671 76.4739C621.592 76.4766 620.527 76.2345 619.557 75.7661C618.552 76.5906 617.372 77.1757 616.106 77.4769C614.84 77.7781 613.522 77.7874 612.252 77.5041C610.982 77.2207 609.794 76.6523 608.778 75.842C607.762 75.0318 606.945 74.0011 606.389 72.8286C606.119 72.8725 605.846 72.8922 605.572 72.8876C604.694 72.8872 603.828 72.682 603.044 72.2884C602.26 71.8948 601.579 71.3238 601.056 70.6209C600.533 69.9181 600.183 69.103 600.033 68.241C599.883 67.3789 599.937 66.4939 600.192 65.6567C600.447 64.8195 600.896 64.0534 601.501 63.4198C602.107 62.7862 602.853 62.3026 603.679 62.0078C604.506 61.713 605.391 61.6152 606.262 61.7222C607.134 61.8292 607.968 62.138 608.698 62.6239C609.802 61.7112 611.116 61.0868 612.523 60.8071C612.517 60.7602 612.517 60.7125 612.523 60.6656C612.521 60.0062 612.65 59.3529 612.903 58.7432C613.155 58.1336 613.525 57.5795 613.993 57.1126C614.46 56.6458 615.015 56.2754 615.627 56.0227C616.238 55.77 616.894 55.6399 617.555 55.6399C617.646 55.6283 617.737 55.6283 617.828 55.6399C618.48 52.3464 620.303 49.3979 622.961 47.3357C625.62 45.2734 628.936 44.236 632.301 44.4139C635.665 44.5918 638.853 45.973 641.277 48.3039C643.702 50.6349 645.202 53.759 645.5 57.1028H645.559C647.556 57.1021 649.498 57.7553 651.085 58.9618C652.673 60.1683 653.818 61.8613 654.345 63.7801C655.744 63.8351 657.067 64.4293 658.035 65.4373C659.002 66.4454 659.539 67.7884 659.532 69.1832V69.1832Z" fill="white"/>
<path d="M682.657 81.5236V136.381H602.577C598.527 129.114 594.162 121.379 589.481 113.176C583.823 103.023 581.282 91.4386 582.175 79.8602C582.563 74.7433 583.663 69.705 585.443 64.8895H592.24V94.6658H619.628V121.245C619.628 122.59 623.37 121.245 623.37 121.245V64.9249H652.676V108.209H658.703V81.5236H682.657Z" fill="#CCE7D4"/>
<path d="M609.421 113.942V118.661L613.328 114.768V110.049L609.421 113.942ZM609.421 113.942V118.661L613.328 114.768V110.049L609.421 113.942ZM609.421 113.942V118.661L613.328 114.768V110.049L609.421 113.942ZM610.404 29.6738L608.983 30.8536C608.296 31.4316 607.597 32.0333 606.922 32.6113C606.437 33.0125 605.975 33.4254 605.502 33.7911H609.421V136.333H602.577C603.157 137.371 603.761 138.409 604.306 139.436H686.683V29.6738H610.404ZM682.634 136.38H613.328V33.8383H682.657L682.634 136.38ZM609.397 113.965V118.684L613.305 114.791V110.072L609.397 113.965ZM609.397 113.965V118.684L613.305 114.791V110.072L609.397 113.965Z" fill="#D8ECDA"/>
<path d="M659.851 129.196C661.238 129.196 662.362 128.076 662.362 126.695C662.362 125.313 661.238 124.194 659.851 124.194C658.465 124.194 657.341 125.313 657.341 126.695C657.341 128.076 658.465 129.196 659.851 129.196Z" fill="#F9FCFE"/>
<path d="M663.664 130.552L655.032 124.158C655.883 123.018 657.154 122.261 658.565 122.054C659.977 121.847 661.412 122.207 662.557 123.055C663.702 123.903 664.462 125.169 664.669 126.575C664.877 127.981 664.515 129.412 663.664 130.552V130.552Z" fill="#B7DFC5"/>
<path d="M667.632 148.944C667.537 148.72 666.743 146.396 669.68 136.168C672.617 125.939 671.042 123.981 668.496 122.117C666.305 120.489 662.362 124.323 662.315 124.358L661.486 123.521C661.676 123.332 666.222 118.896 669.218 121.161C672.451 123.58 673.588 126.612 670.758 136.498C667.928 146.384 668.638 148.425 668.674 148.519L667.632 148.944Z" fill="#B7DFC5"/>
<path d="M672.699 150.513H662.764C662.764 148.779 665.026 147.399 667.738 147.399C670.449 147.399 672.652 148.779 672.699 150.513Z" fill="#B7DFC5"/>
<path d="M723.733 139C723.695 139.012 723.653 139.012 723.615 139C721.247 137.419 718.618 131.084 718.523 130.813C718.512 130.788 718.505 130.761 718.504 130.734C718.503 130.707 718.508 130.679 718.518 130.654C718.528 130.629 718.543 130.606 718.562 130.586C718.581 130.567 718.604 130.551 718.63 130.541C718.655 130.53 718.682 130.523 718.709 130.522C718.736 130.521 718.763 130.526 718.789 130.536C718.814 130.546 718.838 130.561 718.857 130.58C718.877 130.599 718.892 130.622 718.902 130.647C718.902 130.718 721.507 136.865 723.639 138.54C725.683 136.511 728.282 135.129 731.11 134.564C731.138 134.557 731.166 134.556 731.194 134.561C731.222 134.566 731.248 134.576 731.271 134.592C731.295 134.607 731.315 134.627 731.33 134.651C731.345 134.675 731.355 134.701 731.359 134.729C731.37 134.782 731.36 134.838 731.331 134.884C731.303 134.93 731.258 134.963 731.205 134.977V134.977C728.396 135.52 725.822 136.908 723.828 138.953C723.8 138.975 723.768 138.991 723.733 139V139Z" fill="#B7DFC5"/>
<path d="M724.657 133.69C724.657 133.69 724.053 129.325 721.259 128.853C718.464 128.382 719.293 126.258 718.559 125.444C717.825 124.63 715.918 127.037 717.564 129.373C719.21 131.708 717.86 130.977 718.559 133.148C719.257 135.318 724.906 137.312 724.657 133.69Z" fill="#B7DFC5"/>
<path d="M724.657 133.69C724.657 133.69 724.053 129.325 721.259 128.853C718.464 128.382 719.293 126.258 718.559 125.444C717.825 124.63 715.918 127.037 717.564 129.373C719.21 131.708 717.86 130.977 718.559 133.148C719.257 135.318 724.906 137.312 724.657 133.69Z" fill="#B7DFC5"/>
<path d="M724.064 136.769C724.027 136.769 723.991 136.757 723.963 136.733C723.935 136.709 723.916 136.676 723.911 136.639C723.603 135.353 723.236 134.067 722.809 132.817C721.909 130.045 720.974 127.178 721.625 124.111C722.278 121.615 723.3 119.229 724.657 117.032L725.272 115.911L725.77 114.991C726.975 112.902 728.02 110.725 728.896 108.479C729.911 106.151 730.071 103.54 729.346 101.106C729.338 101.086 729.335 101.064 729.337 101.043C729.338 101.022 729.344 101.001 729.354 100.982C729.364 100.963 729.378 100.947 729.395 100.933C729.412 100.92 729.431 100.911 729.452 100.905C729.49 100.894 729.53 100.897 729.566 100.915C729.601 100.932 729.628 100.963 729.642 101C730.382 103.506 730.228 106.191 729.203 108.597C728.313 110.85 727.256 113.035 726.042 115.133L725.545 116.053L724.929 117.233C723.586 119.398 722.576 121.753 721.933 124.217C721.317 127.201 722.182 129.903 723.117 132.758C723.549 134.025 723.916 135.312 724.218 136.616C724.224 136.636 724.225 136.657 724.222 136.677C724.218 136.698 724.211 136.718 724.2 136.735C724.189 136.753 724.174 136.768 724.157 136.78C724.14 136.792 724.12 136.8 724.1 136.804L724.064 136.769Z" fill="#B7DFC5"/>
<path d="M730.186 103.359C730.186 103.359 732.093 98.0625 728.091 97.8384C724.088 97.6142 728.363 102.746 730.186 103.359Z" fill="#B7DFC5"/>
<path d="M726.587 107.37C726.587 107.37 725.521 102.486 722.644 103.43C719.766 104.374 723.745 107.394 726.587 107.37Z" fill="#B7DFC5"/>
<path d="M731.406 107.926C731.406 107.926 731.087 104.032 734.118 104.044C737.149 104.056 735.669 107.418 731.406 107.926Z" fill="#B7DFC5"/>
<path d="M729.192 115.794C729.192 115.794 733.348 112.255 734.734 115.016C736.119 117.776 731.584 118.177 729.192 115.794Z" fill="#B7DFC5"/>
<path d="M722.016 114.956C722.016 114.956 721.424 108.952 718.097 110.721C714.769 112.491 719.151 115.534 722.016 114.956Z" fill="#B7DFC5"/>
<path d="M718.902 123.45C718.902 123.45 721.483 117.469 716.972 118.024C712.461 118.578 715.764 121.893 718.902 123.45Z" fill="#B7DFC5"/>
<path d="M725.746 125.798C725.746 125.798 729.666 121.433 732.531 122.931C735.397 124.429 732.898 128.794 725.746 125.798Z" fill="#B7DFC5"/>
<path d="M729.192 115.794C729.192 115.794 733.348 112.255 734.734 115.016C736.119 117.776 731.584 118.177 729.192 115.794Z" fill="#B7DFC5"/>
<path d="M722.016 114.956C722.016 114.956 721.424 108.952 718.097 110.721C714.769 112.491 719.151 115.534 722.016 114.956Z" fill="#B7DFC5"/>
<path d="M728.256 110.602C728.235 110.598 728.215 110.588 728.198 110.573C728.182 110.559 728.169 110.54 728.162 110.52C728.162 110.52 726.682 107.511 725.533 106.78C725.518 106.766 725.505 106.748 725.497 106.729C725.489 106.71 725.484 106.689 725.484 106.668C725.484 106.647 725.489 106.626 725.497 106.607C725.505 106.588 725.518 106.57 725.533 106.556C725.562 106.534 725.597 106.522 725.634 106.522C725.67 106.522 725.705 106.534 725.734 106.556C726.851 107.62 727.755 108.885 728.399 110.284C729.952 109.342 731.308 108.107 732.389 106.65C732.403 106.635 732.421 106.623 732.44 106.614C732.459 106.606 732.48 106.602 732.501 106.602C732.523 106.602 732.543 106.606 732.563 106.614C732.582 106.623 732.6 106.635 732.614 106.65C732.629 106.673 732.637 106.7 732.637 106.727C732.637 106.754 732.629 106.781 732.614 106.804C731.477 108.352 730.035 109.653 728.375 110.626L728.256 110.602Z" fill="#B7DFC5"/>
<path d="M720.121 112.786C721.878 114.033 723.344 115.642 724.42 117.505C726.779 116.016 729.526 115.253 732.318 115.31C732.359 115.313 732.399 115.332 732.427 115.363C732.456 115.393 732.472 115.434 732.471 115.475C732.47 115.497 732.464 115.518 732.454 115.538C732.445 115.557 732.431 115.575 732.415 115.589C732.398 115.603 732.379 115.614 732.358 115.621C732.338 115.628 732.316 115.63 732.294 115.629C729.517 115.569 726.788 116.351 724.467 117.87H724.372C724.328 117.857 724.29 117.827 724.266 117.788C723.199 115.903 721.742 114.266 719.991 112.986C719.963 112.956 719.947 112.916 719.947 112.874C719.947 112.833 719.963 112.793 719.991 112.762" fill="#B7DFC5"/>
<path d="M721.767 127.686C721.733 127.699 721.695 127.699 721.661 127.686C719.293 125.704 717.576 120.843 717.505 120.607C717.493 120.568 717.496 120.526 717.513 120.489C717.531 120.452 717.561 120.422 717.599 120.407V120.407C717.619 120.399 717.639 120.396 717.66 120.397C717.681 120.397 717.701 120.402 717.72 120.411C717.739 120.42 717.756 120.432 717.77 120.448C717.784 120.463 717.794 120.481 717.801 120.501V120.501C717.801 120.56 719.529 125.373 721.779 127.355C722.513 126.966 727.025 124.665 730.435 124.665C730.479 124.665 730.521 124.683 730.552 124.714C730.583 124.745 730.601 124.787 730.601 124.831C730.595 124.871 730.576 124.909 730.546 124.937C730.515 124.965 730.476 124.982 730.435 124.984V124.984C726.883 124.984 721.886 127.65 721.827 127.686H721.767Z" fill="#B7DFC5"/>
<path d="M723.094 134.481C723.094 134.481 721.626 131.567 724.397 130.482C727.167 129.396 727.546 130.588 729.275 129.786C731.004 128.983 732.52 126.706 732.602 128.287C732.685 129.868 730.72 130.529 731.288 131.319C731.856 132.11 726.279 136.097 723.094 134.481Z" fill="#B7DFC5"/>
<path d="M723.129 133.029C723.129 133.029 721.069 130.953 719.281 130.988C717.493 131.023 716.309 129.23 715.942 130.552C715.575 131.873 718.203 135.412 723.129 133.029Z" fill="#B7DFC5"/>
<path d="M713.491 132.676L714.178 138.61L714.272 139.389L714.557 141.878L714.758 143.636L714.9 144.78L715.563 150.549H732.804L733.478 144.78L733.609 143.636L733.81 141.878L734.106 139.389L734.189 138.61L734.888 132.676H713.491Z" fill="#D8ECDA"/>
<path opacity="0.4" d="M714.556 141.878L714.758 143.636H733.608L733.81 141.878H714.556Z" fill="#96D2B2"/>
<path opacity="0.4" d="M714.9 144.78L715.563 150.549H732.804L733.479 144.78H714.9Z" fill="#96D2B2"/>
<path opacity="0.4" d="M714.178 138.609L714.272 139.388H734.106L734.189 138.609H714.178Z" fill="#96D2B2"/>
<path d="M982.672 70.5154C980.671 74.0546 982.08 72.7804 981.393 74.1607C981.215 74.5518 980.954 74.9003 980.63 75.1831C980.305 75.4659 979.924 75.6764 979.511 75.8006L975.497 79.21C974.482 78.8418 973.528 78.3249 972.667 77.6763V80.4723C973.989 82.2318 975.061 84.1652 975.852 86.2176L969.931 84.4833C969.103 84.2592 967.291 81.3807 967.291 81.3807L967.954 80.7908H967.658V72.2496C966.326 70.9645 965.387 69.329 964.952 67.5333C964.516 65.7376 964.601 63.8556 965.197 62.1061C965.792 60.3567 966.874 58.8117 968.317 57.6509C969.759 56.49 971.503 55.7611 973.345 55.5489C975.187 55.3366 977.051 55.6498 978.722 56.4519C980.392 57.254 981.8 58.5122 982.78 60.08C983.761 61.6478 984.275 63.4608 984.262 65.3081C984.249 67.1555 983.71 68.9612 982.708 70.5154H982.672Z" fill="#F9C750"/>
<path d="M1016.47 77.6648C1016.66 77.8507 1016.76 78.1027 1016.76 78.3655C1016.76 78.6284 1016.66 78.8804 1016.47 79.0663L997.113 98.3528C996.973 98.4922 996.783 98.5705 996.585 98.5705C996.387 98.5705 996.198 98.4922 996.058 98.3528L995.698 97.9941C995.558 97.8547 995.479 97.6657 995.479 97.4686C995.479 97.2715 995.558 97.0824 995.698 96.943L1015.06 77.6565C1015.24 77.4706 1015.5 77.3662 1015.76 77.3662C1016.02 77.3662 1016.28 77.4706 1016.46 77.6565L1016.47 77.6648Z" fill="#444545"/>
<path d="M963.596 66.41C963.596 66.41 962.696 60.3226 966.189 57.1609C971.139 52.6662 981.5 49.2921 986.568 63.9916C986.568 63.9916 985.632 72.7451 976.787 60.4524L973.495 65.3129C973.495 65.3129 973.377 61.054 970.547 63.1658C967.717 65.2775 971.731 67.2712 971.731 67.2712L967.634 72.2969C967.634 72.2969 963.821 69.6897 963.596 66.41Z" fill="#1A4533"/>
<path d="M994.726 97.8377C994.791 97.7683 994.841 97.6865 994.874 97.5974C994.906 97.5082 994.921 97.4134 994.916 97.3187C994.916 96.3395 994.916 92.6705 997.722 91.5144C997.431 92.2501 997.232 93.0188 997.13 93.8031C997.071 94.3339 997.651 94.3221 998.148 94.1098C1000.03 93.3194 1004.22 91.3728 1006.33 89.1667C1006.43 89.0721 1006.55 89.0082 1006.69 88.9831C1006.82 88.958 1006.96 88.9727 1007.09 89.0255C1007.21 89.0782 1007.32 89.1667 1007.4 89.2799C1007.47 89.3931 1007.51 89.526 1007.51 89.6622C1007.36 92.352 1005.99 96.9647 999.036 99.8787L998.894 99.9613L994.217 103.5C994.137 103.561 994.046 103.604 993.948 103.627C993.851 103.65 993.749 103.652 993.651 103.633C993.552 103.614 993.459 103.575 993.377 103.517C993.295 103.46 993.226 103.386 993.175 103.3L992.05 101.424C991.974 101.293 991.942 101.141 991.959 100.99C991.976 100.839 992.041 100.698 992.145 100.587L994.726 97.8377Z" fill="#F9C750"/>
<path d="M961.832 140.414C961.832 140.414 959.866 151.751 962.827 154.995C965.787 158.24 967.942 201.335 967.942 201.335L966.865 244.985H979.002V140.414H961.832Z" fill="#1A4533"/>
<path d="M979.096 142.019H961.619C961.619 142.019 964.318 124.972 964.2 122.152C963.513 109.435 961.666 103.784 961.24 94.3579C961.026 89.7334 963.75 83.0679 967.48 80.2012L973.992 82.0415C977.415 85.8433 979.396 90.7175 979.593 95.8208L979.096 142.019Z" fill="white"/>
<path d="M998.812 102.557L987.432 111.995L982.992 115.687C982.683 115.946 982.321 116.135 981.932 116.239C981.542 116.344 981.134 116.362 980.736 116.292C980.339 116.222 979.962 116.066 979.631 115.836C979.301 115.605 979.025 115.305 978.824 114.956L976.74 111.358L964.769 90.7598C964.177 89.7367 964.017 88.5212 964.324 87.3807C964.632 86.2402 965.382 85.2681 966.409 84.6783C967.436 84.0885 968.656 83.9293 969.8 84.2358C970.945 84.5422 971.921 85.2891 972.513 86.3122L983.773 105.754L994.43 97.4961L998.812 102.557Z" fill="#DFE2E8"/>
<path d="M1129.11 103.924C1128.27 104.699 1127.31 105.347 1126.28 105.847L1121.69 102.673C1121.23 102.589 1120.81 102.408 1120.43 102.143C1120.06 101.878 1119.75 101.536 1119.52 101.139C1118.64 99.7474 1120.26 100.998 1117.77 97.4351C1116.77 96.1747 1116.07 94.6998 1115.75 93.127C1115.42 91.5541 1115.46 89.9266 1115.87 88.3729C1116.28 86.8192 1117.05 85.3821 1118.11 84.1751C1119.18 82.9681 1120.51 82.0243 1122 81.4184C1123.5 80.8125 1125.11 80.5611 1126.72 80.6841C1128.33 80.807 1129.88 81.3009 1131.27 82.1267C1132.65 82.9526 1133.82 84.0877 1134.69 85.4424C1135.56 86.7971 1136.09 88.3341 1136.26 89.9321C1136.71 91.9598 1136.33 94.0808 1135.21 95.8307L1138.16 99.594C1139.17 99.8983 1140.12 100.365 1140.97 100.974C1140.97 100.974 1140.22 104.148 1137.59 104.962C1137.59 104.962 1136.52 116.323 1133.76 118.198C1133.76 118.198 1134.83 106.649 1134.27 105.221L1131.02 102.414L1129.11 103.924Z" fill="#F9C750"/>
<path d="M1138.5 148.117L1138.11 148.329C1134.38 150.323 1105.81 165.683 1103.87 167.7C1103.87 167.7 1115.02 169.765 1119.66 173.894C1119.66 173.894 1149.45 170.756 1155.37 163.571C1161.29 156.386 1154.3 143.221 1154.3 143.221C1154.3 143.221 1141.16 143.669 1138.5 148.117Z" fill="#1A4533"/>
<path d="M1141.25 101.069C1141.25 101.069 1137.54 101.589 1136.72 107.641C1135.91 113.693 1128.59 125.997 1136.72 128.652C1136.72 128.652 1140.06 141.699 1138.5 148.117C1138.5 148.117 1153.01 146.489 1156.56 143.988L1153.98 137.346C1153.98 137.346 1159.22 105.942 1141.25 101.069Z" fill="white"/>
<path d="M1105.01 150.547C1104.84 150.936 1104.32 147.491 1107.94 144.978C1110.89 142.928 1114.24 141.532 1117.78 140.885V144.648L1116.45 144.424C1116.45 144.424 1114.75 149.296 1111.35 149.296C1111.85 148.952 1112.25 148.489 1112.53 147.949C1112.8 147.409 1112.94 146.81 1112.92 146.205C1112.71 144.282 1106.39 147.491 1105.01 150.547Z" fill="#F9C750"/>
<path d="M1141.44 108.454C1139.98 115.721 1136.7 131.919 1135.92 134.408C1135.92 134.408 1129.89 136.26 1127.09 137.44C1123.76 138.809 1120.33 139.895 1116.82 140.684L1116.23 145.474C1116.23 145.474 1134.06 144.955 1140.8 142.005C1140.8 142.005 1155.54 112.807 1147.75 106.212C1147.23 105.786 1146.6 105.501 1145.94 105.385C1145.27 105.27 1144.59 105.328 1143.96 105.553C1143.32 105.779 1142.75 106.165 1142.31 106.673C1141.87 107.181 1141.57 107.795 1141.44 108.454V108.454Z" fill="#DFE2E8"/>
<path d="M1131.16 78.7251C1131.16 78.7251 1128.03 74.5253 1132.98 71.5052C1137.93 68.4851 1143.64 68.8626 1146.26 76.3539C1148.87 83.8452 1141.82 84.0929 1143.63 90.5814C1145.44 97.0699 1146.85 95.8666 1146.85 95.8666C1146.85 95.8666 1145.19 97.5064 1142.11 91.5134C1139.03 85.5204 1143.24 84.6474 1140.93 82.4059C1138.62 80.1644 1139.61 83.1491 1135.16 81.6509C1135.19 81.6509 1133.87 81.7217 1131.16 78.7251Z" fill="#1A4533"/>
<path d="M1130.97 79.6329C1130.97 79.5267 1131.17 78.4532 1131.72 78.3706C1132.26 78.288 1133.66 78.5947 1133.79 79.7627C1133.4 80.1308 1133.03 80.525 1132.7 80.9424L1130.97 79.6329Z" fill="#DFE2E8"/>
<path d="M1137.42 92.2564C1137.28 93.4362 1135.91 95.949 1135.2 95.8664C1134.01 95.7484 1132.46 94.026 1130.76 92.2446C1131.68 92.3272 1131.94 91.8671 1131.68 91.0649C1131.34 90.1329 1130.96 88.6347 1129.89 88.0448C1129.13 87.6083 1128.6 88.9768 1128.35 89.8026C1126.52 88.1746 1124.71 87.2544 1123.34 88.847C1118.12 94.9462 1113.69 96.1967 1113.69 90.0268C1113.69 83.8568 1119.85 78.371 1126.1 78.371C1132.35 78.371 1138.38 83.845 1137.42 92.2564Z" fill="#1A4533"/>
<path d="M1118.88 79.6225L1119.45 78.9624C1119.68 78.6951 1120.01 78.5307 1120.36 78.5053C1120.72 78.4799 1121.07 78.5956 1121.34 78.827L1129.89 86.2006L1127.56 88.8765L1119.01 81.5029C1118.74 81.2715 1118.58 80.9434 1118.55 80.5908C1118.53 80.2381 1118.64 79.8898 1118.88 79.6225Z" fill="#D8ECDA"/>
<path d="M1129.38 91.8441C1129.38 91.8441 1130.5 98.3327 1126.48 101.966L1126.92 102.403C1126.92 102.403 1131.18 99.1113 1130.14 91.7852L1129.38 91.8441Z" fill="#D8ECDA"/>
<path d="M1130.14 93.2118C1132.16 93.2118 1133.79 91.585 1133.79 89.5783C1133.79 87.5715 1132.16 85.9447 1130.14 85.9447C1128.13 85.9447 1126.49 87.5715 1126.49 89.5783C1126.49 91.585 1128.13 93.2118 1130.14 93.2118Z" fill="#B2DCBF"/>
<path d="M1126.67 102.791C1127.02 102.791 1127.31 102.506 1127.31 102.154C1127.31 101.803 1127.02 101.517 1126.67 101.517C1126.32 101.517 1126.03 101.803 1126.03 102.154C1126.03 102.506 1126.32 102.791 1126.67 102.791Z" fill="#D8ECDA"/>
<path d="M1130.14 92.5628C1131.79 92.5628 1133.14 91.2265 1133.14 89.5781C1133.14 87.9297 1131.79 86.5934 1130.14 86.5934C1128.49 86.5934 1127.14 87.9297 1127.14 89.5781C1127.14 91.2265 1128.49 92.5628 1130.14 92.5628Z" fill="#D8ECDA"/>
<path d="M939.335 134.917C939.335 134.917 943.503 132.557 946.913 132.557L949.518 158.004C949.575 158.558 949.457 159.116 949.181 159.6C948.905 160.085 948.485 160.471 947.978 160.706C947.471 160.941 946.904 161.013 946.354 160.911C945.804 160.81 945.3 160.54 944.912 160.139C942.745 157.898 940.483 153.568 939.477 145.216L938.458 135.271L939.335 134.917Z" fill="#1A4533"/>
<path d="M834.992 11.0223L835.264 -0.55087L819.006 -9.33985L819.172 -16.7014" stroke="#231F20" stroke-miterlimit="10"/>
<path d="M888.75 22.335C892.184 21.1553 892.598 20.9311 894.919 18.1942C896.964 15.599 897.917 12.3144 897.578 9.0325C897.24 5.75065 895.635 2.728 893.103 0.601674C890.572 -1.52465 887.31 -2.58855 884.006 -2.36576C880.702 -2.14297 877.614 -0.650908 875.393 1.79594C873.804 3.64993 872.792 5.92523 872.48 8.34344C871.45 13.5932 871.166 11.0922 870.68 13.0623C870.526 13.6033 870.491 14.1709 870.577 14.7267C870.663 15.2824 870.868 15.8132 871.178 16.283L872.279 23.0429C873.606 23.5318 874.999 23.8221 876.412 23.9041L879.324 24.2934L881.693 29.1538L887.732 30.5105L890.68 26.2871L888.75 22.335Z" fill="#F9C750"/>
<path d="M861.717 32.209L864.274 43.499L852.007 45.3394C850.832 45.5147 849.633 45.4503 848.484 45.1501C847.334 44.85 846.258 44.3204 845.32 43.5934C844.382 42.8664 843.603 41.9572 843.028 40.921C842.453 39.8847 842.096 38.743 841.978 37.565L840.178 19.468C840.095 18.653 839.745 17.8878 839.182 17.2907C838.62 16.6937 837.875 16.2979 837.064 16.1647L834.47 15.7282C833.215 15.5277 831.96 10.8913 831.877 8.09537C831.818 6.08983 833.239 2.90457 833.819 2.92817C834.802 2.92817 836.827 2.12595 837.49 2.84558L845.116 11.1037C845.575 11.5895 845.887 12.1948 846.015 12.8497L849.923 31.277C850.027 31.7722 850.23 32.241 850.522 32.6549C850.814 33.0688 851.187 33.419 851.62 33.6841C852.052 33.9491 852.534 34.1235 853.036 34.1964C853.539 34.2694 854.051 34.2394 854.541 34.1084L861.717 32.209Z" fill="#F9C750"/>
<path d="M907.649 42.7326L915.937 36.1733L925.6 48.4897C926.029 49.1138 926.326 49.8185 926.473 50.5609C926.619 51.3032 926.613 52.0675 926.453 52.8072C926.294 53.5468 925.984 54.2464 925.545 54.863C925.105 55.4797 924.543 56.0006 923.894 56.3939L911.047 64.2273L909.093 55.9692L915.014 51.3918L907.649 42.7326Z" fill="#F9C750"/>
<path d="M861.717 32.2093L897.891 21.8158C897.891 21.8158 904.996 17.7104 915.913 36.1731L907.624 42.7324L906.322 41.5527L906.843 44.5964L875.843 55.2965L873.558 42.2016L864.251 43.5111L861.717 32.2093Z" fill="white"/>
<path d="M939.406 143.694L939.181 133.513L928.263 132.97C928.263 132.97 923.219 92.517 917.275 80.4956C916.706 79.3159 910.999 64.3923 910.999 64.3923C910.999 64.3923 907.447 47.475 906.819 44.7616C906.192 42.0482 904.262 38.7568 903.077 35.4417C901.893 32.1267 896.079 23.3023 895.085 22.7833C894.09 22.2642 892.871 23.4203 892.871 23.4203C895.239 24.1517 901.301 36.008 901.301 36.008C894.99 36.4799 885.73 40.9157 885.73 40.9157C885.517 38.6742 882.048 26.5348 882.048 26.5348C881.624 26.3474 881.147 26.3144 880.701 26.4416C880.256 26.5689 879.869 26.8482 879.609 27.2308C881.894 32.1149 881.479 47.534 880.355 50.3653C879.23 53.1967 875.452 55.273 875.452 55.273L886.642 93.3192C886.749 94.3574 891.319 131.719 893.463 140.19C895.606 148.66 902.699 147.186 902.699 147.186L916.339 145.157L927.494 181.197C930.005 181.015 932.439 180.247 934.598 178.956L929.057 144.107L939.406 143.694ZM907.577 129.395L907.364 111.994L912.041 130.587L907.577 129.395Z" fill="#1A4533"/>
<path d="M888.75 22.3345C887.043 22.5103 885.319 22.2505 883.741 21.5795C879.336 19.574 884.925 17.5802 881.373 14.5837C877.82 11.5872 876.873 8.00082 872.101 8.01262C872.101 8.01262 869.626 6.53796 873.285 5.08689C876.944 3.63582 883.078 9.44009 883.078 9.44009L888.75 22.3345Z" fill="#231F20"/>
<path d="M888.75 22.3346C888.75 22.3346 868.999 7.11612 870.882 0.415266C870.882 0.415266 872.504 -1.94419 875.251 1.07592C875.251 1.07592 884.724 -9.40007 895.488 2.25565C895.523 2.27924 905.387 16.8017 888.75 22.3346Z" fill="#1A4533"/>
<path d="M916.576 145.086C916.754 145.086 926.25 143.776 928.843 143.906" stroke="#E7F3E7" stroke-miterlimit="10"/>
<path d="M912.195 130.457L927.932 132.804" stroke="#E7F3E7" stroke-miterlimit="10"/>
<path d="M795.596 72.5443H782.05C780.677 72.5443 779.564 73.6535 779.564 75.0217V94.1451C779.564 95.5134 780.677 96.6226 782.05 96.6226H795.596C796.97 96.6226 798.083 95.5134 798.083 94.1451V75.0217C798.083 73.6535 796.97 72.5443 795.596 72.5443Z" fill="#3A3A3A"/>
<path d="M795.004 73.5706H782.63C781.374 73.5706 780.356 74.5847 780.356 75.8357V93.3074C780.356 94.5584 781.374 95.5725 782.63 95.5725H795.004C796.259 95.5725 797.277 94.5584 797.277 93.3074V75.8357C797.277 74.5847 796.259 73.5706 795.004 73.5706Z" fill="#E7F3E7"/>
<path d="M794.708 75.4348H784.619V76.3432H794.708V75.4348Z" fill="#A6D6AD"/>
<path d="M794.708 76.9554H784.619V77.8638H794.708V76.9554Z" fill="#A6D6AD"/>
<path d="M794.708 78.4783H784.619V79.3867H794.708V78.4783Z" fill="#A6D6AD"/>
<path d="M794.708 80.0001H784.619V80.9085H794.708V80.0001Z" fill="#A6D6AD"/>
<path d="M794.708 81.5213H784.619V82.4297H794.708V81.5213Z" fill="#A6D6AD"/>
<path d="M794.708 83.1967H784.619V84.1051H794.708V83.1967Z" fill="#A6D6AD"/>
<path d="M794.708 84.8721H784.619V85.7805H794.708V84.8721Z" fill="#A6D6AD"/>
<path d="M794.708 86.5464H784.619V87.4548H794.708V86.5464Z" fill="#A6D6AD"/>
<path d="M794.708 87.8454H784.619V88.7538H794.708V87.8454Z" fill="#A6D6AD"/>
<path d="M783.636 75.4348H782.18V76.3432H783.636V75.4348Z" fill="#A6D6AD"/>
<path d="M783.636 76.9554H782.18V77.7695H783.636V76.9554Z" fill="#A6D6AD"/>
<path d="M783.542 78.4783H782.18V79.3867H783.542V78.4783Z" fill="#A6D6AD"/>
<path d="M783.542 80.0823H782.18V80.92H783.542V80.0823Z" fill="#A6D6AD"/>
<path d="M783.542 81.5213H782.18V82.4297H783.542V81.5213Z" fill="#A6D6AD"/>
<path d="M783.707 90.8182L786.17 102.12L793.382 93.5552C793.382 93.5552 792.103 87.3852 794.068 86.1347C794.068 86.1347 794.566 87.3144 795.158 89.2492C795.158 89.2492 797.822 86.1937 797.917 83.2444C797.917 83.2444 803.34 90.2284 797.917 94.558C797.917 94.558 790.717 110.083 785.282 111.853C779.847 113.622 777.882 109.788 775.217 94.8529L783.707 90.8182Z" fill="#F9C750"/>
<path d="M746.207 93.684L746.716 105.399L755.289 98.0254C755.289 98.0254 755.076 91.6431 757.231 90.7229C757.231 90.7229 757.503 92.0442 757.776 94.0143C757.776 94.0143 760.925 91.4071 761.518 88.4696C761.518 88.4696 765.697 96.362 759.599 99.7832C759.599 99.7832 749.854 114.129 744.206 114.99C738.558 115.851 737.244 111.698 737.101 96.303L746.207 93.684Z" fill="#F9C750"/>
<path d="M753.182 78.9612C749.937 79.0791 749.499 78.9611 746.693 77.3685C745.143 76.4865 743.82 75.2571 742.829 73.7775C741.839 72.2979 741.208 70.6088 740.986 68.844C740.764 67.0792 740.958 65.2873 741.552 63.6101C742.146 61.9328 743.123 60.4164 744.407 59.1809C745.692 57.9454 747.247 57.0248 748.95 56.492C750.653 55.9592 752.457 55.8288 754.22 56.1112C755.982 56.3935 757.655 57.0809 759.104 58.1189C760.554 59.1568 761.741 60.5167 762.572 62.091C765.07 66.2083 764.537 64.014 765.544 65.5123C765.843 65.9218 766.052 66.3908 766.154 66.8874C766.256 67.384 766.25 67.8967 766.136 68.3908L767.32 74.4428C766.35 75.2645 765.265 75.9402 764.099 76.4483L761.731 77.6281L761.257 82.4532L756.521 85.4615L752.72 82.7953L753.182 78.9612Z" fill="#F9C750"/>
<path d="M787.165 101.637C787.165 101.637 784.359 105.081 777.574 103.347L778.178 106.886L743.744 107.146L743.188 103.949L737.48 104.197C735.503 85.3209 742.702 81.5812 742.702 81.5812L773.844 80.0475C773.844 80.0475 781.245 78.9386 783.021 86.3119C784.797 93.6852 787.165 101.637 787.165 101.637Z" fill="white"/>
<path d="M778.58 106.709C778.58 106.709 774.105 105.977 771.997 103.571C769.889 101.164 764.087 86.0399 764.584 80.4362C764.194 80.1481 763.715 80.0056 763.23 80.0336C762.746 80.0617 762.286 80.2584 761.932 80.5896C761.932 80.5896 762.773 93.8143 763.353 96.103C763.353 96.103 752.696 94.9232 746.231 96.6928C746.231 96.6928 748.007 82.8664 750.127 81.2974C750.127 81.2974 748.528 80.5896 747.758 81.439C746.989 82.2884 744.336 93.0475 744.313 96.7754C744.289 100.503 743.567 104.396 743.886 107.299C744.206 110.201 746.669 128.18 746.669 128.18C746.669 128.18 746.349 144.956 746.136 146.3C744.123 158.782 748.717 196.805 748.717 196.805L747.131 244.985H759.966L763.874 197.206L764.359 164.374L769.629 196.026V244.985H783.944V196.203L778.58 106.709Z" fill="#1A4533"/>
<path d="M753.098 79.3037C753.098 79.3037 763.128 57.4198 758.498 52.5239C758.498 52.5239 756.07 51.2734 755.064 55.0485C755.064 55.0485 742.24 50.3296 738.297 65.1352C738.297 65.1352 736.355 81.9581 753.098 79.3037Z" fill="#1A4533"/>
<path d="M681.354 67.5653C681.354 67.5653 680.455 67.9782 680.087 73.0392C679.72 78.1003 677.127 76.72 676.535 80.5187C675.943 84.3174 671.692 84.6359 673.504 87.7858C675.316 90.9357 676.583 90.2869 677.944 90.3576C679.306 90.4284 684.859 90.4166 686.399 88.4229C687.938 86.4291 691.538 89.8032 692.935 87.7858C694.332 85.7685 699.744 90.8531 700.288 90.0273C700.833 89.2015 704.681 89.6852 706.955 90.8413C709.228 91.9975 710.507 85.7803 709.252 84.0579C707.997 82.3355 707.464 82.4535 707.926 79.7401C708.387 77.0267 708.873 78.1592 707.381 74.8088C705.889 71.4584 705.96 74.042 705.486 70.6916C705.013 67.3411 705.261 66.5389 702.81 64.7929C700.359 63.0469 701.839 63.0233 700.442 61.2537C699.258 59.7791 699.53 58.5404 697.257 58.8117C695.37 59.0729 693.447 58.837 691.68 58.1274C690.342 57.5376 689.158 57.3724 687.453 59.6257C685.747 61.879 685.428 59.6847 683.367 61.9852C681.875 63.7548 681.651 63.1767 681.354 67.5653Z" fill="#1A4533"/>
<path d="M684.458 65.0644C684.458 65.0644 678.135 76.4842 684.458 82.253C685.521 82.6457 686.665 82.7715 687.788 82.6193C688.911 82.467 689.98 82.0414 690.899 81.38L688.862 88.8005C688.862 88.8005 695.186 88.1281 695.411 87.5618C695.636 86.9955 696.831 78.242 696.831 78.242C696.831 78.242 700.715 74.8561 701.627 71.258C702.539 67.6598 701.284 61.4662 695.304 59.8854C689.324 58.3046 684.458 65.0644 684.458 65.0644Z" fill="#F9C750"/>
<path d="M679.554 128.675V202.491C679.554 202.491 691.253 208.33 711.288 201.134C711.288 201.134 712.922 149.415 702.017 126.882C702.017 126.882 685.037 125.773 682.266 126.882C679.495 127.991 679.554 128.675 679.554 128.675Z" fill="#1A4533"/>
<path d="M683.901 87.833C683.901 87.833 678.584 86.6533 675.186 96.3389C673.776 100.415 671.752 104.254 669.182 107.723C668.551 108.576 667.62 109.16 666.575 109.359C665.53 109.558 664.449 109.357 663.546 108.797C660.147 106.673 654.831 103.37 652.427 102.049C648.756 100.008 649.301 96.2091 641.391 95.9378C641.391 95.9378 639.213 97.5422 643.985 99.2528C640.986 99.989 637.853 99.989 634.855 99.2528C630.356 97.9787 637.579 101.907 646.578 104.078C646.578 104.078 656.394 113.421 665.606 117.987C666.687 118.528 667.917 118.699 669.105 118.473C670.293 118.247 671.374 117.637 672.178 116.736C679.237 108.69 683.367 98.5069 683.901 87.833Z" fill="#F9C750"/>
<path d="M683.901 87.8335C683.901 87.8335 669.763 108.561 679.555 110.602C679.555 110.602 679.164 125.313 679.555 128.676C679.555 128.676 696.843 131.637 702.053 126.882C701.236 125.625 700.508 124.312 699.874 122.954C696.843 114.696 710.235 91.1013 703.427 87.8335C696.618 84.5656 683.901 87.8335 683.901 87.8335Z" fill="white"/>
<path d="M688.531 62.539C687.896 62.795 687.342 63.2156 686.925 63.757C686.509 64.2984 686.245 64.941 686.162 65.6181C685.985 67.8832 683.072 68.1663 683.072 68.1663V65.7125L685.251 62.539L687.228 60.4391L689.798 59.106L693.066 59.6487L696.156 59.106L699.057 60.6397L701.532 63.7895L702.87 68.1663L701.875 73.6757L699.507 75.3627L695.955 75.8464C695.955 75.8464 692.841 77.1913 694.309 72.6021C695.351 69.3461 694.866 68.65 693.954 67.4821C693.042 66.3142 691.147 66.6799 690.591 65.3468C690.034 64.0137 688.898 64.1789 688.531 62.539Z" fill="#1A4533"/>
<path d="M700.194 73.1387L696.342 69.3015L689.15 76.4672L693.002 80.3045L700.194 73.1387Z" fill="#3F4165"/>
<path d="M691.763 77.4745C691.333 75.9934 691.474 74.4055 692.16 73.0233C692.846 71.6412 694.027 70.565 695.469 70.0068C695.469 70.0068 700.798 76.6604 701.473 78.8311C702.148 81.0018 697.387 94.9816 697.387 94.9816C697.387 94.9816 699.756 86.0983 703.379 87.8325C707.002 89.5667 707.204 96.881 694.261 109.787C694.261 109.787 686.766 114.129 688.258 104.077C689.75 94.026 696.713 81.0018 696.713 81.0018L691.763 77.4745Z" fill="#F9C750"/>
</g>
<defs>
<filter id="filter0_d_3931_21449" x="0" y="0" width="1212" height="160" filterUnits="userSpaceOnUse" color-interpolation-filters="sRGB">
<feFlood flood-opacity="0" result="BackgroundImageFix"/>
<feColorMatrix in="SourceAlpha" type="matrix" values="0 0 0 0 0 0 0 0 0 0 0 0 0 0 0 0 0 0 127 0" result="hardAlpha"/>
<feOffset dy="4"/>
<feGaussianBlur stdDeviation="3"/>
<feComposite in2="hardAlpha" operator="out"/>
<feColorMatrix type="matrix" values="0 0 0 0 0 0 0 0 0 0 0 0 0 0 0 0 0 0 0.15 0"/>
<feBlend mode="normal" in2="BackgroundImageFix" result="effect1_dropShadow_3931_21449"/>
<feBlend mode="normal" in="SourceGraphic" in2="effect1_dropShadow_3931_21449" result="shape"/>
</filter>
<clipPath id="clip0_3931_21449">
<rect width="1200" height="148" fill="white" transform="translate(6 2)"/>
</clipPath>
</defs>
</svg>
