<?xml version="1.0" encoding="utf-8"?>
<!-- Generator: Adobe Illustrator 22.0.0, SVG Export Plug-In . SVG Version: 6.00 Build 0)  -->
<svg version="1.1" xmlns="http://www.w3.org/2000/svg" xmlns:xlink="http://www.w3.org/1999/xlink" x="0px" y="0px"
	 viewBox="0 0 720 720" style="enable-background:new 0 0 720 720;" xml:space="preserve">
<style type="text/css">
	.st0{fill:#E1E9E3;}
	.st1{fill:#F7FBF9;}
</style>
<g id="Layer_2">
	<path class="st0" d="M616.6,720H103.4C46.3,720,0,673.7,0,616.6V103.4C0,46.3,46.3,0,103.4,0h513.2C673.7,0,720,46.3,720,103.4
		v513.2C720,673.7,673.7,720,616.6,720z"/>
</g>
<g id="Layer_1">
	<g>
		<g>
			<path class="st1" d="M624.2,317.5c-0.7-7.1-1.6-14.1-2.8-20.9c-6.4-36.8-20.8-70.7-43.5-101.4c-26.8-36.1-60-64.8-101.1-83.8
				c-22.4-10.4-46-16.9-70.5-20.2c-12.3-1.7-24.7-2.3-37.1-2.1c-7.4,0.1-14.7,0.5-22,1.1c-25.2,2-49.2,7.5-71.7,16.5
				c-19.6,7.8-38.2,18.4-55.7,31.6c-16.8,12.7-31.9,26.8-45.2,42.3c-8.6,10.1-16.5,20.9-23.4,32.4c-6.1,10.1-11.6,20.7-16.3,31.8
				c-2.4,5.7-4.6,11.4-6.5,17.2c-3.4,10.1-6,20.4-8,30.8c-0.8,4.2-1.4,8.5-2,12.8c-1,7.5-1.4,15-2.1,22.5c-0.1,0.9-0.3,1.8-0.4,2.8
				v23.9c0.3,3.5,0.7,7,1,10.5c1.8,24,6.9,46.8,15,68.2c3.8,10,8.3,19.7,13.5,29.1c7.8,14.1,17,27.6,27.8,40.5
				c20,23.8,42.8,43.9,69.1,59.4c7.9,4.7,16.2,9,24.7,12.8c20,8.9,40.8,14.8,62.5,18.2c13.2,2.1,26.5,3.1,39.8,3.2
				c6.1,0.1,12.1-0.1,18.2-0.4c9.4-0.5,18.7-1.5,27.9-3c19.9-3.3,39.2-9.1,57.9-17.4c36.7-16.2,67.3-40.5,93.2-70.9
				c22.8-26.8,39.5-56.9,49.1-90.7c4.6-16.1,7.4-32.5,8.8-49.2c0.6-7.6,1-15.2,1-22.8C625.4,334.1,625,325.8,624.2,317.5z
				 M569.7,244.4c-2,1.2-8.6,2.9-16.8,4.7c-10.4,2.3-23.6,4.7-33.9,6.1c-5.7,0.8-10.6,1.3-13.5,1.3c-2.5-12.6-5.4-25.1-9-37.3
				c-7.5-25.7-17.7-50.4-32.5-73.4c-1.4-2.2-2.9-4.4-4.3-6.5C509.2,160.9,545.9,195.8,569.7,244.4z M476.8,408.6
				c-5.1-0.2-10.3-0.4-15.4-0.7c-10.6-0.5-21.2-0.9-31.8-1.4c-14.7-0.6-29.3-1.3-44.1-1.9v-2.4c0-31.6,0-63.2-0.1-94.8
				c0-3,0-6,0-8.9c0-2.5,0.6-3.4,3.2-3.4c18.1-0.5,36.2-1,54.3-1.7c10.8-0.4,21.6-1.3,32.4-1.9c1-0.1,2.1,0,3.3,0
				c0.3,2.4,0.5,4.7,0.7,7.1C483,335.6,482.2,372.3,476.8,408.6z M263.6,407.8c-4.3-24.2-6.5-62.6-3.6-100.1
				c0.4-5.4,1-10.9,1.6-16.2c4.1,0.2,8.3,0.5,12.5,0.7c12.5,0.6,25,1.4,37.6,1.9c13.5,0.5,27,0.8,40.5,1.2c1.6,0,2.5,0.2,2.5,2.3
				c0,3.7,0,7.3,0,11c0,31.8,0,63.5,0,95.3c0,0.4-0.1,0.8-0.1,1.1c-6.1,0.2-12.3,0.4-18.4,0.6l-30.8,1
				C291.6,406.8,277.6,407.3,263.6,407.8z M304.2,166.4c0.4-0.5,0.7-1.1,1.1-1.6c9.4-13.6,20.2-25.8,34.7-34.3
				c4.5-2.6,9.4-4.6,14.5-7.1v140.6c-6-0.3-12-0.5-18.1-0.8c-10.4-0.5-20.8-0.9-31.2-1.4c-13-0.6-26-1.2-39-1.7
				c2-7.5,3.6-14.4,5.6-21.3C279.2,213.1,289.2,188.6,304.2,166.4z M437,166.6c14.1,21.6,23.5,45.4,30.3,70.3
				c2,7.4,3.7,14.9,5.7,23.1c-6.3,0.3-12.5,0.6-18.8,0.8c-11.1,0.5-22.2,1-33.2,1.5c-11.8,0.5-23.5,1.1-35.3,1.6V122.7
				c3.9,1.7,7.6,3,11.2,4.8c15.4,7.8,26.8,20,36.6,33.9C434.7,163.1,435.9,164.9,437,166.6z M293.5,134.3
				c-4.6,5.5-8.9,11.2-12.8,16.9c-22,31.8-35.7,67.5-44.8,105.3c-3.2-0.1-8.2-0.6-14-1.2c-9.2-1.1-20.4-2.7-30.1-4.4
				c-10-1.7-18.4-3.4-21.2-4.5c14.1-29.2,32.5-53.7,55.4-73.3C245.3,156.7,267.7,143.7,293.5,134.3z M155.3,286.8
				c0.8-2.9,1.7-5.8,2.7-8.7c0.1-0.4,0.3-0.8,0.6-1.5c23.7,6.1,47.8,9.1,72.2,11.9c-0.8,5.9-1.5,11.7-2.1,17.6
				c-3.4,35.1-1.9,70.2,4.1,105.3c-5.6,0.8-11.2,1.3-16.7,2.3c-1,0.2-1.9,0.3-2.9,0.5c-3.5,0.6-7.1,1.3-10.6,1.9
				c-6.6,1.2-13.2,2.4-19.9,3.6c-5.5,1-11,2-16.5,3.1c-2.1,0.4-3,0.2-3.8-1.9c-7.3-18.8-12-38.3-13.9-58.5
				c-2-21.6-0.7-42.9,3.9-63.7C153.2,294.6,154.2,290.7,155.3,286.8z M198.9,483.6c-6.5-8-12.5-16.6-18.1-25.7c-1.2-2-2.4-4-3.5-6
				c4.7-0.9,8.9-1.8,13.2-2.4c12.5-1.7,25-3.4,37.6-5.1c2.8-0.4,5.6-0.8,8.4-1.2c2.5-0.3,3.5,0.4,4.2,2.9c0.6,2.1,1.2,4.1,1.8,6.2
				c0.6,2,1.2,4,1.8,6.1c8.4,26.8,19.8,52.1,36,75.4c4.2,6,8.8,11.7,13.4,17.9c-14.1-5.4-27.3-11.8-39.6-19.4
				C233,519.4,214.6,503.1,198.9,483.6z M328.1,547c-8.8-7.6-16.3-16.2-22.7-25.5c-6-8.7-11.2-18-15.9-27.6
				c-1.6-3.2-3.1-6.5-4.5-9.8c-4.6-10.7-8.3-21.7-11.5-32.9c-0.9-3.2-1.8-6.4-2.6-9.6c-0.1-0.3-0.1-0.7-0.2-1.5
				c27.9-2.2,55.8-2.9,83.9-3v124.8c-6.6-2-12.6-4.9-18.2-8.5C333.5,551.4,330.7,549.3,328.1,547z M385.7,563V437
				c28,0.2,55.9,0.8,84.2,3.1c-1.8,6.2-3.4,12.2-5.1,18c-0.2,0.6-0.4,1.2-0.6,1.9c-4.4,14.1-9.7,27.8-16.3,40.8
				c-5,9.7-10.7,19.1-17.4,28c-1.5,2-3,3.9-4.5,5.7c-8.9,10.7-19.2,19.7-32.3,25.4C391.2,561,388.6,561.9,385.7,563z M541,486.1
				c-22,26-49.1,46.1-81.4,60.3c7.3-10.4,13.6-21.2,19-32.3c4.6-9.5,8.6-19.2,12-29.1c2.5-7,4.7-14.2,6.7-21.5
				c1.9-6.7,3.6-13.6,5.1-20.5c14,1.5,27.8,3.4,41.6,6.2c4.7,0.9,9.3,2,14,3.2c2,0.5,3.9,1,5.9,1.5C557,465.5,549.3,476.2,541,486.1
				z M585.9,400.2c-2.2,8-4.8,16-7.9,24c-2.7-0.7-5.3-1.3-8-1.9c-0.6-0.1-1.2-0.3-1.8-0.4c-10.6-2.4-21.3-4.3-32-5.9
				c-9.2-1.4-18.4-2.5-27.7-3.6c3-20.9,4.6-41.6,4.8-62.4c0.2-18.8-0.5-37.5-2.3-56.4c-0.2-2-0.4-4-0.6-6.1
				c18.2-2.4,36.3-4.7,54.2-8.6c5.7-1.2,11.4-2.7,17.1-4.3c-0.3-1.3-0.6-2.3-1-3.5C596.1,314.2,597.6,357.2,585.9,400.2z"/>
		</g>
	</g>
	<g>
		<g>
			<path class="st0" d="M584,401c0,7.6-0.3,15.2-0.9,22.8c-1.4,16.7-4.2,33.1-8.8,49.2c-9.7,33.9-26.4,64-49.1,90.7
				c-25.9,30.4-56.5,54.7-93.2,70.9c-18.7,8.3-38,14.1-57.9,17.4c-9.2,1.5-18.5,2.5-27.9,3c-6.1,0.3-12.1,0.5-18.2,0.4
				c-13.3-0.1-26.6-1.2-39.8-3.2c-21.6-3.4-42.5-9.2-62.5-18.2c-8.6-3.8-16.8-8.1-24.7-12.8c-26.3-15.5-49.2-35.6-69.1-59.4
				c-10.8-12.9-20.1-26.4-27.8-40.5c-5.2-9.4-9.6-19.1-13.4-29.1c-8.2-21.4-13.2-44.2-15.1-68.2c-0.3-3.5-0.6-7-1-10.5v-23.9
				c0.1-0.9,0.4-1.8,0.4-2.8c0.7-7.5,1.2-15,2.2-22.5c0.5-4.3,1.2-8.6,2-12.8c1.9-10.5,4.6-20.8,8-30.8c1.9-5.8,4.1-11.5,6.5-17.2
				c4.7-11.2,10.2-21.8,16.3-31.9c7-11.5,14.8-22.2,23.4-32.4c13.3-15.6,28.4-29.6,45.2-42.3c17.5-13.3,36.1-23.8,55.7-31.6
				c22.6-9,46.5-14.5,71.7-16.5c7.3-0.6,14.7-0.9,22-1.1c12.3-0.2,24.7,0.4,37.1,2.1c24.5,3.3,48,9.8,70.4,20.2
				c41.1,19,74.2,47.6,101.1,83.8c22.7,30.6,37.1,64.5,43.5,101.4c1.2,6.9,2.1,13.9,2.8,20.9C583.6,384.3,584,392.7,584,401z"/>
		</g>
	</g>
	<g>
		<g>
			<path class="st1" d="M555.5,393.3c-0.6-6.7-1.5-13.2-2.6-19.7c-6.1-34.7-19.6-66.6-41-95.4c-25.3-34-56.5-60.9-95.1-78.8
				c-21.1-9.8-43.3-15.9-66.3-19c-11.6-1.6-23.2-2.1-34.9-2c-6.9,0.1-13.8,0.5-20.7,1c-23.7,1.9-46.3,7-67.5,15.5
				c-18.5,7.4-36,17.3-52.4,29.8c-15.8,12-30,25.2-42.5,39.8c-8.1,9.5-15.5,19.7-22,30.5c-5.8,9.5-10.9,19.5-15.3,30
				c-2.3,5.3-4.3,10.7-6.1,16.2c-3.2,9.5-5.7,19.2-7.5,29c-0.7,4-1.4,8-1.9,12c-0.9,7-1.4,14.1-2,21.2c-0.1,0.9-0.3,1.7-0.4,2.6
				v22.5c0.3,3.3,0.7,6.6,0.9,9.9c1.7,22.6,6.5,44,14.2,64.2c3.6,9.4,7.8,18.5,12.7,27.4c7.3,13.3,16,26,26.2,38.1
				c18.8,22.4,40.3,41.3,65.1,55.9c7.4,4.4,15.2,8.4,23.3,12c18.8,8.4,38.4,13.9,58.8,17.1c12.4,1.9,24.9,2.9,37.4,3
				c5.7,0.1,11.4-0.1,17.1-0.4c8.8-0.5,17.6-1.4,26.2-2.9c18.7-3.1,36.9-8.6,54.5-16.3c34.5-15.2,63.4-38.1,87.7-66.7
				c21.4-25.2,37.1-53.5,46.2-85.4c4.3-15.1,7-30.5,8.3-46.3c0.6-7.1,0.9-14.3,0.9-21.4C556.6,409,556.2,401.1,555.5,393.3z
				 M504.1,324.6c-1.9,1.1-8.1,2.7-15.8,4.4c-9.8,2.1-22.2,4.4-31.9,5.7c-5.4,0.8-9.9,1.2-12.7,1.2c-2.3-11.9-5.1-23.6-8.4-35.1
				c-7.1-24.2-16.7-47.5-30.6-69.1c-1.3-2.1-2.7-4.1-4.1-6.1C447.3,245.9,481.8,278.9,504.1,324.6z M416.7,479
				c-4.8-0.2-9.7-0.4-14.5-0.6c-10-0.4-20-0.9-29.9-1.3c-13.8-0.6-27.6-1.2-41.5-1.8v-2.3c0-29.7,0-59.4-0.1-89.2c0-2.8,0-5.6,0-8.4
				c0-2.4,0.5-3.2,3.1-3.2c17-0.4,34-0.9,51.1-1.6c10.2-0.4,20.3-1.2,30.5-1.8c1-0.1,1.9,0,3.1,0c0.3,2.2,0.5,4.5,0.7,6.7
				C422.6,410.3,421.8,444.9,416.7,479z M216.1,478.3c-4-22.8-6.1-58.9-3.4-94.2c0.4-5.1,0.9-10.2,1.5-15.3
				c3.9,0.2,7.8,0.4,11.8,0.6c11.8,0.6,23.6,1.3,35.4,1.8c12.7,0.5,25.4,0.8,38.1,1.1c1.5,0,2.4,0.2,2.4,2.1c0,3.5,0,6.9,0,10.4
				c0,29.9,0,59.8,0,89.6c0,0.4-0.1,0.8-0.1,1c-5.8,0.2-11.5,0.4-17.3,0.6l-29,0.9C242.5,477.4,229.3,477.9,216.1,478.3z
				 M254.4,251.2c0.3-0.5,0.7-1,1-1.5c8.8-12.8,19-24.3,32.7-32.3c4.2-2.5,8.8-4.3,13.7-6.7v132.3c-5.7-0.3-11.3-0.5-17-0.8
				c-9.8-0.4-19.5-0.9-29.3-1.3c-12.2-0.5-24.4-1.1-36.7-1.6c1.8-7,3.4-13.6,5.2-20C230.8,295.1,240.3,272.1,254.4,251.2z
				 M379.3,251.4c13.2,20.4,22.1,42.7,28.5,66.2c1.9,7,3.5,14,5.4,21.7c-5.9,0.3-11.8,0.5-17.7,0.8c-10.5,0.5-20.9,0.9-31.2,1.4
				c-11.1,0.5-22.1,1-33.2,1.5V210c3.6,1.6,7.2,2.8,10.5,4.6c14.5,7.4,25.3,18.8,34.4,31.9C377.1,248.1,378.2,249.7,379.3,251.4z
				 M244.3,220.9c-4.3,5.2-8.3,10.5-12.1,15.9c-20.7,29.9-33.6,63.5-42.2,99.1c-3-0.1-7.7-0.5-13.2-1.2c-8.6-1-19.2-2.6-28.3-4.1
				c-9.4-1.6-17.3-3.2-20-4.2c13.3-27.5,30.6-50.5,52.2-68.9C198.9,242,220,229.8,244.3,220.9z M114.2,364.5
				c0.8-2.8,1.6-5.5,2.5-8.2c0.1-0.4,0.3-0.7,0.6-1.4c22.3,5.7,45,8.5,68,11.2c-0.8,5.5-1.4,11-2,16.6c-3.2,33.1-1.8,66,3.8,99
				c-5.3,0.7-10.6,1.2-15.7,2.2c-0.9,0.2-1.8,0.3-2.7,0.5c-3.3,0.6-6.7,1.2-10,1.8c-6.2,1.1-12.5,2.2-18.7,3.4
				c-5.2,0.9-10.4,1.9-15.6,2.9c-2,0.4-2.8,0.2-3.6-1.8c-6.9-17.7-11.3-36-13.1-55c-1.8-20.4-0.7-40.4,3.6-60
				C112.3,371.8,113.2,368.1,114.2,364.5z M155.3,549.7c-6.1-7.6-11.8-15.6-17-24.2c-1.1-1.8-2.2-3.7-3.3-5.6
				c4.4-0.8,8.4-1.7,12.5-2.2c11.8-1.6,23.6-3.2,35.3-4.8c2.6-0.4,5.3-0.7,7.9-1.1c2.4-0.3,3.3,0.4,3.9,2.8c0.5,2,1.1,3.9,1.7,5.8
				c0.6,1.9,1.1,3.8,1.7,5.7c7.9,25.2,18.6,49.1,33.8,70.9c3.9,5.6,8.2,11,12.6,16.9c-13.3-5.1-25.7-11.1-37.2-18.2
				C187.3,583.3,170,568,155.3,549.7z M276.8,609.3c-8.3-7.1-15.3-15.2-21.4-24c-5.7-8.2-10.6-16.9-15-26c-1.5-3-2.9-6.1-4.2-9.2
				c-4.3-10.1-7.8-20.5-10.8-31c-0.9-3-1.7-6-2.4-9.1c-0.1-0.3-0.1-0.7-0.2-1.4c26.2-2.1,52.5-2.7,78.9-2.9v117.5
				c-6.2-1.9-11.9-4.6-17.1-8C281.9,613.4,279.3,611.5,276.8,609.3z M331,624.4V505.8c26.4,0.2,52.6,0.8,79.2,2.9
				c-1.7,5.8-3.2,11.4-4.8,17c-0.2,0.6-0.4,1.2-0.5,1.8c-4.1,13.3-9.1,26.1-15.3,38.4c-4.7,9.2-10,18-16.3,26.4
				c-1.4,1.8-2.8,3.6-4.2,5.4c-8.4,10.1-18.1,18.5-30.4,23.9C336.2,622.5,333.8,623.3,331,624.4z M477.1,552
				c-20.7,24.5-46.2,43.3-76.6,56.8c6.9-9.8,12.8-19.9,17.8-30.4c4.3-8.9,8.1-18.1,11.3-27.4c2.3-6.6,4.4-13.4,6.3-20.2
				c1.8-6.3,3.4-12.8,4.8-19.3c13.2,1.4,26.2,3.2,39.1,5.8c4.4,0.9,8.8,1.9,13.1,3c1.8,0.5,3.7,0.9,5.5,1.4
				C492.2,532.6,485,542.7,477.1,552z M519.4,471.1c-2,7.5-4.6,15-7.5,22.6c-2.5-0.6-5-1.2-7.5-1.8c-0.6-0.1-1.1-0.3-1.7-0.4
				c-10-2.3-20-4-30.1-5.5c-8.6-1.3-17.3-2.4-26.1-3.4c2.8-19.7,4.3-39.1,4.6-58.7c0.2-17.7-0.4-35.3-2.1-53.1
				c-0.2-1.9-0.4-3.8-0.6-5.7c17.1-2.3,34.2-4.4,51-8.1c5.4-1.2,10.7-2.5,16.1-4.1c-0.3-1.2-0.6-2.2-0.9-3.3
				C529,390.3,530.5,430.7,519.4,471.1z"/>
		</g>
	</g>
</g>
</svg>
