<?xml version="1.0" encoding="utf-8"?>
<!-- Generator: Adobe Illustrator 22.0.0, SVG Export Plug-In . SVG Version: 6.00 Build 0)  -->
<svg version="1.1" id="Layer_1" xmlns="http://www.w3.org/2000/svg" xmlns:xlink="http://www.w3.org/1999/xlink" x="0px" y="0px"
	 viewBox="0 0 1280 720" style="enable-background:new 0 0 1280 720;" xml:space="preserve">
<style type="text/css">
	.st0{fill:#F7FBF2;}
	.st1{fill:#F1F8ED;}
	.st2{fill:#B7DFC5;}
	.st3{fill:#CCE7D4;}
	.st4{opacity:0.4;fill:#96D2B2;enable-background:new    ;}
	.st5{fill:#B2DCBF;}
	.st6{fill:#E7F3E7;}
	.st7{fill:#33B57D;}
	.st8{fill:#246E4A;}
	.st9{fill:none;stroke:#246F4B;stroke-width:10;stroke-miterlimit:10;stroke-dasharray:12;}
</style>
<path class="st0" d="M1226.7,607.1c-21,32.6-52.7,57.7-88,73.1c-43.9,19.2-91.8,24.8-139,30.1c-1.6,0.2-2.5-0.9-2.6-2.2H127.7
	c-5.2-8.8-10.3-17.7-15.3-26.6c-21.1-37.5-40.8-76-56.8-116C40.4,527.7,28,487.8,25.2,446.9c-2.5-37.4,4.2-75.7,18.8-110.2
	c12.9-30.7,32.7-60,60.9-78.8c12.8-8.5,27.3-14.5,42.6-16.8c19.2-2.8,38.4,0.4,56.8,6c40.2,12.3,78.8,36.3,122.3,32.1
	c41.5-4,77-30.9,106.9-58c32.8-29.7,62.4-62.5,96-91.3C594.2,74.2,670.7,26.7,756.1,12.6c36.8-6.1,74.4-5.7,110.6,3.4
	c34.1,8.6,66.5,24,95,44.7c59.5,43.2,100.9,108.9,110.2,182.3c5.1,39.9-0.3,89.2,27.5,122c24.9,29.3,67,30.5,98.9,48.3
	c31.4,17.5,48,51.2,52.7,85.8C1256.2,536.9,1247.4,575.1,1226.7,607.1z"/>
<g id="Plant_2">
	<path class="st2" d="M244.5,599c0.4,0,0.8-0.1,1.1-0.3c21.7-14.8,46.7-74.4,47.7-76.9c0.4-1,0-2.1-1-2.5c0,0,0,0,0,0
		c-1-0.4-2.1,0-2.5,1c0,0,0,0,0,0c-0.2,0.6-24.4,58.4-44.9,74.2c-5.4-5.8-28.5-28.4-70-37.4c-1.1-0.2-2.1,0.4-2.3,1.5
		c-0.2,1.1,0.4,2.1,1.5,2.3l0,0c45.4,9.7,68.8,37.1,69,37.4C243.4,598.7,243.9,599,244.5,599z"/>
	<path class="st2" d="M235.9,549.1c0,0,5.6-41.1,31.8-45.5s18.3-24.3,25.2-32c6.8-7.7,24.7,15,9.3,36.9c-15.4,22-2.8,15.1-9.3,35.5
		C286.3,564.4,233.4,583.2,235.9,549.1z"/>
	<path class="st2" d="M235.9,549.1c0,0,5.6-41.1,31.8-45.5s18.3-24.3,25.2-32c6.8-7.7,24.7,15,9.3,36.9c-15.4,22-2.8,15.1-9.3,35.5
		C286.3,564.4,233.4,583.2,235.9,549.1z"/>
	<path class="st2" d="M241.4,578.1c0.7,0,1.3-0.5,1.4-1.2c2.8-12.2,6.2-24.2,10.3-36c8.4-26,17.2-52.9,11.2-81.8
		c-4.9-23.7-16.8-45.5-28.4-66.6c-1.9-3.5-3.8-7.1-5.7-10.6c-1.5-2.9-3.1-5.7-4.7-8.6c-10.6-19.6-21.6-39.9-29.3-61.1
		c-9.7-26.5-11-49.1-4.1-69.4c0.2-0.8-0.3-1.6-1.1-1.8c-0.7-0.2-1.5,0.2-1.8,0.9c-7,20.9-5.7,44.3,4.2,71.4
		c7.8,21.4,18.9,41.8,29.5,61.5l4.7,8.6c1.9,3.5,3.8,7,5.8,10.6c11.4,20.9,23.4,42.5,28,65.7c5.8,28-2.3,53.4-11.1,80.2
		c-4.1,11.9-7.5,24-10.4,36.3c-0.2,0.8,0.3,1.6,1.1,1.8L241.4,578.1z"/>
	<path class="st2" d="M184.1,264.1c0,0-17.9-49.8,19.7-51.9C241.3,210.1,201.1,258.2,184.1,264.1z"/>
	<path class="st2" d="M217.7,301.8c0,0,10-46,36.9-37.1C281.6,273.6,244.4,301.9,217.7,301.8z"/>
	<path class="st2" d="M172.6,307c0,0,3-36.6-25.3-36.5C118.9,270.5,132.4,302.2,172.6,307z"/>
	<path class="st2" d="M193.4,380.9c0,0-38.9-32.9-51.9-7.3C128.5,399.2,171,403.3,193.4,380.9z"/>
	<path class="st2" d="M260.5,373c0,0,5.6-56.5,36.8-39.7C328.5,350,287.4,377.9,260.5,373z"/>
	<path class="st2" d="M289.7,452.9c0,0-24.2-56.2,18.1-51C350.1,407.1,319.1,438.3,289.7,452.9z"/>
	<path class="st2" d="M225.6,474.9c0,0-36.7-40.9-63.5-26.9C135.3,462,158.7,503.1,225.6,474.9z"/>
	<g>
		<path class="st2" d="M193.4,380.9c0,0-38.9-32.9-51.9-7.3C128.5,399.2,171,403.3,193.4,380.9z"/>
		<path class="st2" d="M260.5,373c0,0,5.6-56.5,36.8-39.7C328.5,350,287.4,377.9,260.5,373z"/>
	</g>
	<path class="st2" d="M202.1,332.1c0.2,0,0.3,0,0.5,0c0.4-0.1,0.7-0.4,0.9-0.7c0.1-0.3,13.8-28.3,24.6-35.2c0.7-0.5,0.8-1.4,0.3-2.1
		c-0.4-0.6-1.2-0.8-1.9-0.4c-10.1,6.5-22,29.1-25,35.1c-21.2-11.7-37.3-34-37.4-34.2c-0.6-0.5-1.6-0.4-2.1,0.2
		c-0.4,0.4-0.4,1-0.2,1.5c0.7,1,17.3,24,39.7,35.8C201.7,332.1,201.9,332.2,202.1,332.1z"/>
	<path class="st2" d="M278.3,352.6C278.3,352.6,278.3,352.6,278.3,352.6c-20.9,13-36.6,38.5-40.3,44.9c-33-22.8-73.5-20.6-73.9-20.6
		c-0.8,0.1-1.4,0.7-1.4,1.6c0.1,0.8,0.8,1.4,1.6,1.4c0.4,0,41-2.1,73.4,21c0.3,0.2,0.6,0.2,0.9,0.2h0.3c0.4-0.1,0.8-0.4,1-0.7
		c0.2-0.3,17.3-31,40.1-45.2c0.7-0.4,0.9-1.3,0.5-2"/>
	<path class="st2" d="M262.9,492.7c0.4,0,0.7-0.1,1-0.4c22.1-18.7,38.2-64.4,38.9-66.3c0.3-0.8-0.1-1.6-0.9-1.9c0,0,0,0,0,0
		c-0.8-0.3-1.6,0.1-1.9,0.9c0,0,0,0,0,0c-0.2,0.5-16.1,45.7-37.2,64.4c-6.9-3.7-49.1-25.3-81.1-25.3h-0.5c-0.8,0-1.5,0.7-1.5,1.5
		c0,0.8,0.7,1.5,1.5,1.5h0.6c33.5,0,80.1,25.1,80.6,25.4C262.5,492.6,262.7,492.7,262.9,492.7z"/>
	<path class="st2" d="M250.4,556.6c0,0,13.8-27.4-12.1-37.6c-25.9-10.1-29.5,1-45.7-6.6s-30.4-29-31.1-14
		c-0.7,14.9,17.6,21,12.2,28.5C168.3,534.3,220.6,571.7,250.4,556.6z"/>
	<path class="st2" d="M250.2,542.9c0,0,19.3-19.4,36-19.1c16.8,0.4,27.8-16.6,31.2-4.2C320.8,532,296.2,565.3,250.2,542.9z"/>
	<polygon class="st3" points="340.4,539.6 333.9,595.3 333.1,602.7 330.4,626.1 328.5,642.6 327.2,653.3 321,707.6 159.5,707.6 
		153.3,653.3 152,642.6 150.1,626.1 147.4,602.7 146.5,595.3 140.1,539.6 	"/>
	<polygon class="st4" points="330.4,626.1 328.5,642.6 152,642.6 150.1,626.1 	"/>
	<polygon class="st5" points="327.2,653.3 321,707.6 159.5,707.6 153.3,653.3 	"/>
	<polygon class="st4" points="333.9,595.3 333.1,602.7 147.4,602.7 146.5,595.3 	"/>
</g>
<g>
	<g>
		<path class="st6" d="M1027.7,491.7l96.6-1.6c24.9-0.4,45.6,20.8,46,47.2l1.1,66c0.4,26.4-19.5,48.3-44.5,48.7l-96.6,1.6
			L1027.7,491.7z M1062.2,527.1l1.5,90l62.6-1c6.2-0.1,11.2-5.6,11.1-12.2l-1.1-66c-0.1-6.6-5.3-11.9-11.5-11.8L1062.2,527.1z"/>
	</g>
	<g>
		<path class="st3" d="M1012.4,511.2l96.6-1.6c24.9-0.4,45.5,16.9,45.9,38.6l0.9,54.2c0.4,21.7-19.7,39.7-44.6,40.1l-96.6,1.6
			L1012.4,511.2z M1046.8,540.2l1.2,73.8l62.6-1c6.2-0.1,11.2-4.6,11.1-10l-0.9-54.2c-0.1-5.4-5.2-9.7-11.5-9.6L1046.8,540.2z"/>
	</g>
	<path class="st3" d="M955.4,705.1l120.8-2c14.2-0.2,25.5-11.9,25.3-26.1l-3.6-221.2l-150.7,2.4c-11.9,0.2-21.4,10-21.2,21.9
		l3.2,199.6C929.5,694,941.2,705.3,955.4,705.1z"/>
	<path class="st6" d="M952.7,682.7l109.9-1.8c12.9-0.2,23.2-10.8,23-23.8l-3.3-201.1l-136.1,2.2c-11.3,0.2-20.4,9.5-20.2,20.9
		l2.9,180.6C929.2,672.6,939.8,682.9,952.7,682.7z"/>
</g>
<path class="st5" d="M910,273.9V544c0,24.9-20.2,45.1-45.1,45.1H320.6c-24.9,0-45.1-20.2-45.1-45.1V273.9
	c0-24.9,20.2-45.1,45.1-45.1h544.3C889.8,228.8,910,249,910,273.9z"/>
<rect x="527.5" y="589.1" class="st5" width="130.4" height="103.7"/>
<rect x="445.2" y="674.2" class="st6" width="295.1" height="37.3"/>
<path class="st6" d="M910,526.4V544c0,24.9-20.2,45.1-45.1,45.1H320.6c-24.9,0-45.1-20.2-45.1-45.1v-17.6H910z"/>
<circle class="st5" cx="593.3" cy="557.7" r="18.7"/>
<g>
	<path class="st3" d="M975.2,169.8v270.1c0,24.9-20.2,45.1-45.1,45.1H385.8c-24.9,0-45.1-20.2-45.1-45.1V169.8
		c0-24.9,20.2-45.1,45.1-45.1h544.3C955,124.7,975.2,144.9,975.2,169.8z"/>
	<path class="st5" d="M975.2,169.8v17.6H340.7v-17.6c0-24.9,20.2-45.1,45.1-45.1h544.3C955,124.7,975.2,144.9,975.2,169.8z"/>
	<circle class="st6" cx="376.1" cy="156.1" r="18.7"/>
	<circle class="st6" cx="423.1" cy="156.1" r="18.7"/>
	<circle class="st6" cx="469.3" cy="156.1" r="18.7"/>
	<path class="st5" d="M751.9,439h-81.7c-16,0-29-13-29-29V252.2c0-16,13-29,29-29h81.7c16,0,29,13,29,29V410
		C780.8,426,767.9,439,751.9,439z"/>
	<path class="st5" d="M904.1,435.6h-77.8c-16,0-29-13-29-29v-35c0-16,13-29,29-29h77.8c16,0,29,13,29,29v35
		C933.1,422.6,920.1,435.6,904.1,435.6z"/>
	<path class="st5" d="M904.1,331.1h-48.3c-16,0-29-13-29-29v-48.3c0-16,13-29,29-29h48.3c16,0,29,13,29,29v48.3
		C933.1,318.1,920.1,331.1,904.1,331.1z"/>
</g>
<g>
	<polygon class="st5" points="604.1,291.8 604.1,435.6 377.3,435.6 377.3,291.8 490.7,206.2 	"/>
	<polygon class="st6" points="604.1,435.6 377.3,435.6 490.7,362.7 	"/>
	<polygon class="st6" points="377.3,435.6 377.3,292 490.7,363.8 	"/>
	<polygon class="st6" points="604.1,435.6 604.1,292 490.7,363.8 	"/>
</g>
<g>
	<path class="st7" d="M489.4,340.5c0.7-5.2-22.8-142.4-22.8-142.4l42.5,21.3l33-6.4l0.5,16.8l45.2,23.7L489.4,340.5z"/>
	<polygon class="st8" points="490.5,338.5 542.5,229.8 542,213 542,213 509,219.4 	"/>
	<path class="st9" d="M542.5,198.1c0,0,45.2-168.3,254.8-116.3"/>
</g>
</svg>
