<?xml version="1.0" encoding="utf-8"?>
<!-- Generator: Adobe Illustrator 22.0.0, SVG Export Plug-In . SVG Version: 6.00 Build 0)  -->
<svg version="1.1" id="Layer_1" xmlns="http://www.w3.org/2000/svg" xmlns:xlink="http://www.w3.org/1999/xlink" x="0px" y="0px"
	 viewBox="0 0 1280 720" style="enable-background:new 0 0 1280 720;" xml:space="preserve">
<style type="text/css">
	.st0{fill:#F7FBF2;}
	.st1{fill:#F1F8ED;}
	.st2{fill:#B7DFC5;}
	.st3{fill:#CCE7D4;}
	.st4{opacity:0.4;fill:#96D2B2;enable-background:new    ;}
	.st5{fill:#B2DCBF;}
	.st6{fill:#E7F3E7;}
	.st7{fill:#33B57D;}
	.st8{fill:#246E4A;}
	.st9{fill:none;stroke:#246F4B;stroke-width:10;stroke-miterlimit:10;stroke-dasharray:12;}
</style>
<path class="st0" d="M1184.4,590c-19.5,30.2-48.8,53.4-81.5,67.8c-40.7,17.8-85,23-128.8,27.9c-1.5,0.2-2.3-0.9-2.4-2H166.2
	c-4.8-8.2-9.5-16.4-14.1-24.7c-19.5-34.8-37.8-70.4-52.6-107.4c-14.1-35.1-25.6-72.1-28.2-110c-2.3-34.7,3.9-70.1,17.4-102.1
	c12-28.5,30.3-55.6,56.4-73c11.9-7.9,25.3-13.5,39.4-15.6c17.8-2.6,35.6,0.3,52.6,5.5c37.2,11.4,73,33.6,113.3,29.7
	c38.5-3.7,71.3-28.7,99-53.8c30.4-27.5,57.8-57.9,88.9-84.6c60-51.5,130.9-95.5,210-108.6c34.1-5.6,68.9-5.3,102.5,3.1
	c31.6,7.9,61.6,22.3,88,41.4c55.1,40,93.5,100.9,102.1,168.9c4.7,37-0.3,82.7,25.5,113.1c23,27.2,62.1,28.3,91.6,44.7
	c29.1,16.2,44.4,47.5,48.8,79.5C1211.8,524.9,1203.6,560.3,1184.4,590z"/>
<g id="Plant_2">
	<path class="st2" d="M274.5,582.4c0.4,0,0.7-0.1,1-0.3c20.1-13.7,43.3-68.9,44.2-71.3c0.4-0.9,0-1.9-0.9-2.3c0,0,0,0,0,0
		c-0.9-0.4-2,0-2.4,1c0,0,0,0,0,0c-0.2,0.5-22.6,54.1-41.6,68.7c-5-5.4-26.4-26.3-64.8-34.6c-1-0.2-1.9,0.4-2.1,1.4
		c-0.2,1,0.4,1.9,1.4,2.1l0,0c42.1,9,63.7,34.4,64,34.6C273.4,582.1,273.9,582.4,274.5,582.4z"/>
	<path class="st2" d="M266.5,536.2c0,0,5.2-38,29.5-42.2s17-22.6,23.3-29.7c6.3-7.1,22.9,13.9,8.7,34.2c-14.2,20.3-2.6,14-8.7,32.9
		C313.2,550.4,264.2,567.8,266.5,536.2z"/>
	<path class="st2" d="M266.5,536.2c0,0,5.2-38,29.5-42.2s17-22.6,23.3-29.7c6.3-7.1,22.9,13.9,8.7,34.2c-14.2,20.3-2.6,14-8.7,32.9
		C313.2,550.4,264.2,567.8,266.5,536.2z"/>
	<path class="st2" d="M271.6,563.1c0.7,0,1.2-0.4,1.3-1.1c2.6-11.3,5.8-22.4,9.5-33.3c7.8-24.1,15.9-49,10.4-75.8
		c-4.5-22-15.6-42.2-26.3-61.7c-1.8-3.3-3.6-6.5-5.3-9.8c-1.4-2.7-2.9-5.3-4.3-8c-9.8-18.2-20-37-27.2-56.6
		c-9-24.5-10.2-45.5-3.8-64.3c0.2-0.7-0.2-1.5-1-1.7c-0.7-0.2-1.4,0.2-1.6,0.8c-6.5,19.4-5.3,41,3.9,66.1
		c7.3,19.8,17.5,38.7,27.4,57l4.3,8c1.8,3.3,3.6,6.5,5.3,9.8c10.6,19.4,21.6,39.4,26,60.9c5.4,26-2.2,49.5-10.3,74.3
		c-3.8,11-7,22.3-9.6,33.6c-0.1,0.7,0.3,1.5,1.1,1.6L271.6,563.1z"/>
	<path class="st2" d="M218.5,272.1c0,0-16.6-46.1,18.2-48.1C271.5,222.1,234.3,266.7,218.5,272.1z"/>
	<path class="st2" d="M249.7,307.1c0,0,9.2-42.6,34.2-34.4C308.9,281,274.3,307.2,249.7,307.1z"/>
	<path class="st2" d="M207.8,311.9c0,0,2.8-33.9-23.4-33.8S170.6,307.4,207.8,311.9z"/>
	<path class="st2" d="M227.1,380.3c0,0-36.1-30.4-48.1-6.7C167,397.3,206.4,401.1,227.1,380.3z"/>
	<path class="st2" d="M289.3,373.1c0,0,5.2-52.3,34.1-36.8C352.3,351.8,314.2,377.6,289.3,373.1z"/>
	<path class="st2" d="M316.4,447c0,0-22.4-52.1,16.8-47.2S343.6,433.5,316.4,447z"/>
	<path class="st2" d="M257,467.4c0,0-34-37.9-58.8-24.9S194.9,493.5,257,467.4z"/>
	<g>
		<path class="st2" d="M227.1,380.3c0,0-36.1-30.4-48.1-6.7C167,397.3,206.4,401.1,227.1,380.3z"/>
		<path class="st2" d="M289.3,373.1c0,0,5.2-52.3,34.1-36.8C352.3,351.8,314.2,377.6,289.3,373.1z"/>
	</g>
	<path class="st2" d="M235.2,335.2c0.1,0,0.3,0,0.4,0c0.4-0.1,0.7-0.4,0.8-0.7c0.1-0.3,12.8-26.3,22.8-32.6c0.6-0.5,0.7-1.3,0.3-1.9
		c-0.4-0.5-1.2-0.7-1.8-0.4c-9.4,6-20.4,27-23.1,32.5c-19.7-10.8-34.5-31.5-34.6-31.7c-0.6-0.5-1.5-0.4-2,0.2
		c-0.3,0.4-0.4,0.9-0.2,1.4c0.6,0.9,16,22.2,36.8,33.2C234.8,335.2,235,335.2,235.2,335.2z"/>
	<path class="st2" d="M305.8,354.1C305.8,354.1,305.8,354.1,305.8,354.1c-19.3,12.1-33.9,35.7-37.4,41.6
		c-30.6-21.1-68.1-19.1-68.5-19.1c-0.8,0-1.3,0.7-1.3,1.5c0.1,0.7,0.7,1.3,1.5,1.3c0.4,0,38-2,68,19.5c0.2,0.2,0.5,0.2,0.8,0.2h0.3
		c0.4-0.1,0.7-0.3,0.9-0.7c0.2-0.3,16.1-28.7,37.1-41.9c0.6-0.4,0.8-1.2,0.5-1.9"/>
	<path class="st2" d="M291.6,484c0.3,0,0.6-0.1,0.9-0.3c20.5-17.3,35.4-59.6,36-61.4c0.3-0.7-0.1-1.5-0.8-1.7c0,0,0,0,0,0
		c-0.7-0.3-1.5,0.1-1.7,0.8c0,0,0,0,0,0c-0.2,0.4-15,42.3-34.5,59.6c-6.4-3.4-45.5-23.4-75.1-23.4h-0.5c-0.8,0-1.4,0.6-1.4,1.4
		c0,0.8,0.6,1.4,1.4,1.4h0.5c31,0,74.2,23.3,74.6,23.5C291.1,483.9,291.3,483.9,291.6,484z"/>
	<path class="st2" d="M280,543.1c0,0,12.8-25.4-11.2-34.8c-24-9.4-27.3,0.9-42.3-6.1c-15-7-28.1-26.8-28.8-13
		c-0.7,13.8,16.3,19.5,11.3,26.4C203.9,522.5,252.4,557.2,280,543.1z"/>
	<path class="st2" d="M279.7,530.4c0,0,17.8-18,33.4-17.7c15.5,0.3,25.8-15.4,28.9-3.9C345.2,520.4,322.4,551.2,279.7,530.4z"/>
	<polygon class="st3" points="363.3,527.4 357.4,579 356.6,585.9 354.1,607.5 352.3,622.8 351.1,632.8 345.3,683 195.8,683 
		189.9,632.8 188.8,622.8 187,607.5 184.5,585.9 183.7,579 177.7,527.4 	"/>
	<polygon class="st4" points="354.1,607.5 352.3,622.8 188.8,622.8 187,607.5 	"/>
	<polygon class="st5" points="351.1,632.8 345.3,683 195.8,683 189.9,632.8 	"/>
	<polygon class="st4" points="357.4,579 356.6,585.9 184.5,585.9 183.7,579 	"/>
</g>
<g>
	<g>
		<path class="st6" d="M1000.1,483l89.5-1.4c23.1-0.4,42.2,19.3,42.6,43.8l1,61.2c0.4,24.5-18.1,44.7-41.2,45.1l-89.5,1.4
			L1000.1,483z M1032,515.8l1.3,83.3l58-0.9c5.8-0.1,10.4-5.1,10.3-11.3l-1-61.2c-0.1-6.1-4.9-11-10.6-10.9L1032,515.8z"/>
	</g>
	<g>
		<path class="st3" d="M985.9,501.1l89.5-1.4c23.1-0.4,42.2,15.7,42.5,35.8l0.8,50.2c0.3,20.1-18.2,36.8-41.3,37.1l-89.5,1.4
			L985.9,501.1z M1017.8,528l1.1,68.4l58-0.9c5.8-0.1,10.4-4.3,10.3-9.3l-0.8-50.2c-0.1-5-4.8-9-10.6-8.9L1017.8,528z"/>
	</g>
	<path class="st3" d="M933.1,680.7l112-1.8c13.2-0.2,23.6-11.1,23.4-24.2l-3.3-204.9L925.6,452c-11,0.2-19.8,9.3-19.7,20.3l3,184.9
		C909.1,670.4,920,680.9,933.1,680.7z"/>
	<path class="st6" d="M930.6,660l101.8-1.6c12-0.2,21.5-10,21.3-22l-3-186.3l-126.1,2c-10.5,0.2-18.9,8.8-18.7,19.3l2.7,167.3
		C908.8,650.6,918.7,660.2,930.6,660z"/>
</g>
<path class="st5" d="M891,281.2v250.3c0,23.1-18.7,41.8-41.8,41.8H344.9c-23.1,0-41.8-18.7-41.8-41.8V281.2
	c0-23.1,18.7-41.8,41.8-41.8h504.3C872.3,239.4,891,258.1,891,281.2z"/>
<rect x="536.7" y="573.3" class="st5" width="120.9" height="96.1"/>
<rect x="460.4" y="652.1" class="st6" width="273.4" height="34.6"/>
<path class="st6" d="M891,515.1v16.3c0,23.1-18.7,41.8-41.8,41.8H344.9c-23.1,0-41.8-18.7-41.8-41.8v-16.3H891z"/>
<circle class="st5" cx="597.6" cy="544.2" r="17.3"/>
<g>
	<path class="st3" d="M951.5,184.8V435c0,23.1-18.7,41.8-41.8,41.8H405.4c-23.1,0-41.8-18.7-41.8-41.8V184.8
		c0-23.1,18.7-41.8,41.8-41.8h504.3C932.8,143,951.5,161.7,951.5,184.8z"/>
	<path class="st5" d="M951.5,184.8v16.3H363.6v-16.3c0-23.1,18.7-41.8,41.8-41.8h504.3C932.8,143,951.5,161.7,951.5,184.8z"/>
	<circle class="st6" cx="396.4" cy="172.1" r="17.3"/>
	<circle class="st6" cx="439.9" cy="172.1" r="17.3"/>
	<circle class="st6" cx="482.7" cy="172.1" r="17.3"/>
	<path class="st5" d="M744.5,434.2h-75.7c-14.8,0-26.8-12-26.8-26.8V261.1c0-14.8,12-26.8,26.8-26.8h75.7c14.8,0,26.8,12,26.8,26.8
		v146.2C771.4,422.2,759.4,434.2,744.5,434.2z"/>
	<path class="st5" d="M885.6,431h-72.1c-14.8,0-26.8-12-26.8-26.8v-32.4c0-14.8,12-26.8,26.8-26.8h72.1c14.8,0,26.8,12,26.8,26.8
		v32.4C912.4,419,900.4,431,885.6,431z"/>
	<path class="st5" d="M885.6,334.2h-44.7c-14.8,0-26.8-12-26.8-26.8v-44.7c0-14.8,12-26.8,26.8-26.8h44.7c14.8,0,26.8,12,26.8,26.8
		v44.7C912.4,322.2,900.4,334.2,885.6,334.2z"/>
</g>
<g>
	<polygon class="st5" points="607.6,297.9 607.6,431 397.5,431 397.5,297.9 502.6,218.5 	"/>
	<polygon class="st6" points="607.6,431 397.5,431 502.6,363.5 	"/>
	<polygon class="st6" points="397.5,431 397.5,298 502.6,364.5 	"/>
	<polygon class="st6" points="607.6,431 607.6,298 502.6,364.5 	"/>
</g>
<g>
	<path class="st7" d="M790.1,91.3C784,92.6,620,75.6,620,75.6l28.6,48.5l-5,39.6l19.9-0.8l31.7,51.6L790.1,91.3z"/>
	<polygon class="st8" points="787.8,92.9 663.5,162.9 643.6,163.7 643.6,163.7 648.6,124.1 	"/>
	<path class="st9" d="M628.7,172.1c0,0-133.4,51.9-128.6,175.9"/>
</g>
</svg>
