<svg width="12" height="12" viewBox="0 0 12 12" fill="none" xmlns="http://www.w3.org/2000/svg">
<path d="M8.33332 7.33326H7.80666L7.61999 7.15326C8.41999 6.21993 8.83332 4.9466 8.60666 3.59326C8.29332 1.73993 6.74666 0.259929 4.87999 0.0332621C2.05999 -0.313405 -0.313344 2.05993 0.0333232 4.87993C0.25999 6.74659 1.73999 8.29326 3.59332 8.6066C4.94666 8.83326 6.21999 8.41993 7.15332 7.61993L7.33332 7.80659V8.33326L10.1667 11.1666C10.44 11.4399 10.8867 11.4399 11.16 11.1666C11.4333 10.8933 11.4333 10.4466 11.16 10.1733L8.33332 7.33326ZM4.33332 7.33326C2.67332 7.33326 1.33332 5.99326 1.33332 4.33326C1.33332 2.67326 2.67332 1.33326 4.33332 1.33326C5.99332 1.33326 7.33332 2.67326 7.33332 4.33326C7.33332 5.99326 5.99332 7.33326 4.33332 7.33326Z" fill="#9DACBA"/>
</svg>
